<?xml version="1.0" encoding="UTF-8"?>
<!DOCTYPE svg PUBLIC "-//W3C//DTD SVG 1.1//EN"
    "http://www.w3.org/Graphics/SVG/1.1/DTD/svg11.dtd"><svg xmlns="http://www.w3.org/2000/svg" xmlns:xlink="http://www.w3.org/1999/xlink" version="1.11.1"><rect height="44.0" y1="0" fill="#e5e5f5" transform="translate(22 0)translate(23 23)" width="459.0" stroke="none" x1="0"/><rect height="44.0" y1="0.0" fill="#eaf5ea" transform="translate(22 0)translate(23 23)" width="459.0" stroke="none" x1="0.0"/><rect height="44.0" fill="none" y="0" transform="translate(22 0)translate(23 23)" width="117.0" stroke="none" x="0"/><text fill="black" text-anchor="middle" y="22.0" transform="translate(22 0)translate(23 23)" dominant-baseline="central" x="58.5">walk</text><line y1="0" transform="translate(22 0)translate(23 23)" x2="0" stroke="black" y2="22.0" x1="0"/><line y1="0" transform="translate(22 0)translate(23 23)" x2="117.0" stroke="black" y2="22.0" x1="117.0"/><line y1="0" transform="translate(22 0)translate(23 23)" x2="117.0" stroke="black" y2="0" x1="0"/><rect height="49.0" y1="0" fill="#f5f5f5" transform="translate(127 0)translate(22 0)translate(23 23)" width="332.0" stroke="none" x1="0"/><rect height="44.0" y1="0.0" fill="#f8eeee" transform="translate(127 0)translate(22 0)translate(23 23)" width="332.0" stroke="none" x1="0"/><rect height="44.0" y1="0" fill="#e5e5f5" transform="translate(22 0)translate(127 0)translate(22 0)translate(23 23)" width="244.0" stroke="none" x1="0"/><rect height="44.0" y1="0.0" fill="#eaf5ea" transform="translate(22 0)translate(127 0)translate(22 0)translate(23 23)" width="244.0" stroke="none" x1="0.0"/><rect height="44.0" fill="lightgrey" y="0" transform="translate(22 0)translate(127 0)translate(22 0)translate(23 23)" width="114.0" stroke="none" x="0"/><text fill="white" text-anchor="middle" y="22.0" transform="translate(22 0)translate(127 0)translate(22 0)translate(23 23)" dominant-baseline="central" x="57.0">eat</text><line y1="0" transform="translate(22 0)translate(127 0)translate(22 0)translate(23 23)" x2="0" stroke="black" y2="44.0" x1="0"/><rect height="49.0" y1="0" fill="#f5f5f5" transform="translate(124 0)translate(22 0)translate(127 0)translate(22 0)translate(23 23)" width="120.0" stroke="none" x1="0"/><rect height="44.0" y1="0.0" fill="#f8eeee" transform="translate(124 0)translate(22 0)translate(127 0)translate(22 0)translate(23 23)" width="120.0" stroke="none" x1="0"/><rect height="44.0" fill="lightgrey" y="0" transform="translate(124 0)translate(22 0)translate(127 0)translate(22 0)translate(23 23)" width="120.0" stroke="none" x="0"/><text fill="white" text-anchor="middle" y="22.0" transform="translate(124 0)translate(22 0)translate(127 0)translate(22 0)translate(23 23)" dominant-baseline="central" x="60.0">drink</text><line y1="0" transform="translate(124 0)translate(22 0)translate(127 0)translate(22 0)translate(23 23)" x2="0" stroke="black" y2="22.0" x1="0"/><line y1="0" transform="translate(124 0)translate(22 0)translate(127 0)translate(22 0)translate(23 23)" x2="120.0" stroke="black" y2="22.0" x1="120.0"/><line y1="0" transform="translate(124 0)translate(22 0)translate(127 0)translate(22 0)translate(23 23)" x2="120.0" stroke="black" y2="0" x1="0"/><path fill="none" transform="translate(22 0)translate(127 0)translate(22 0)translate(23 23)" d="M 114,22 c 10,0 0,0 10 0" stroke="red"/><path fill="none" transform="translate(22 0)translate(23 23)" d="M 117,22 c 10,0 0,0 10 0" stroke="red"/></svg>
