<?xml version="1.0" encoding="UTF-8"?>
<!DOCTYPE svg PUBLIC "-//W3C//DTD SVG 1.1//EN"
    "http://www.w3.org/Graphics/SVG/1.1/DTD/svg11.dtd"><svg xmlns="http://www.w3.org/2000/svg" xmlns:xlink="http://www.w3.org/1999/xlink" version="1.11.1"><rect height="44.0" fill="lightgrey" y="0" transform="translate(0 0)translate(0 10)translate(22 -10)translate(22 0)translate(23 23)" width="159.0" stroke="none" x="0"/><text fill="white" text-anchor="middle" y="22.0" transform="translate(0 0)translate(0 10)translate(22 -10)translate(22 0)translate(23 23)" dominant-baseline="central" x="79.5">sink to the bottom</text><line y1="0" transform="translate(0 0)translate(0 10)translate(22 -10)translate(22 0)translate(23 23)" x2="159.0" stroke="black" y2="44.0" x1="159.0"/><path fill="none" transform="translate(22 -10)translate(22 0)translate(23 23)" d="M -22,59 C 0,59 -22,32 0 32" stroke="green"/><path fill="none" transform="translate(22 -10)translate(22 0)translate(23 23)" d="M 181,59 C 159,59 181,32 159 32" stroke="green"/><rect height="44.0" fill="none" y="0" transform="translate(21 0)translate(0 64)translate(22 -10)translate(22 0)translate(23 23)" width="117.0" stroke="none" x="0"/><text fill="black" text-anchor="middle" y="22.0" transform="translate(21 0)translate(0 64)translate(22 -10)translate(22 0)translate(23 23)" dominant-baseline="central" x="58.5">swim</text><line y1="0" transform="translate(21 0)translate(0 64)translate(22 -10)translate(22 0)translate(23 23)" x2="0" stroke="black" y2="44.0" x1="0"/><line y1="0" transform="translate(21 0)translate(0 64)translate(22 -10)translate(22 0)translate(23 23)" x2="117.0" stroke="black" y2="44.0" x1="117.0"/><line y1="0" transform="translate(21 0)translate(0 64)translate(22 -10)translate(22 0)translate(23 23)" x2="117.0" stroke="black" y2="0" x1="0"/><path fill="none" transform="translate(22 -10)translate(22 0)translate(23 23)" d="M -22,59 C 0,59 -22,86 21 86" stroke="green"/><path fill="none" transform="translate(22 -10)translate(22 0)translate(23 23)" d="M 181,59 C 159,59 181,86 138 86" stroke="green"/><line y1="22.0" fill="none" transform="translate(22 0)translate(23 23)" x2="257.0" stroke="green" y2="22.0" x1="247.0"/><rect height="44.0" fill="none" y="0" transform="translate(257 0)translate(22 0)translate(23 23)" width="117.0" stroke="none" x="0"/><text fill="black" text-anchor="middle" y="22.0" transform="translate(257 0)translate(22 0)translate(23 23)" dominant-baseline="central" x="58.5">walk</text><line y1="0" transform="translate(257 0)translate(22 0)translate(23 23)" x2="0" stroke="black" y2="22.0" x1="0"/><line y1="0" transform="translate(257 0)translate(22 0)translate(23 23)" x2="117.0" stroke="black" y2="22.0" x1="117.0"/><line y1="0" transform="translate(257 0)translate(22 0)translate(23 23)" x2="117.0" stroke="black" y2="0" x1="0"/><path fill="none" transform="translate(22 0)translate(23 23)" d="M 237,54 c 10,0 0,-32 10 -32" stroke="red"/><line y1="22.0" fill="none" transform="translate(22 0)translate(23 23)" x2="384.0" stroke="green" y2="22.0" x1="374.0"/><rect height="44.0" fill="lightgrey" y="0" transform="translate(22 0)translate(384 0)translate(22 0)translate(23 23)" width="114.0" stroke="none" x="0"/><text fill="white" text-anchor="middle" y="22.0" transform="translate(22 0)translate(384 0)translate(22 0)translate(23 23)" dominant-baseline="central" x="57.0">eat</text><line y1="0" transform="translate(22 0)translate(384 0)translate(22 0)translate(23 23)" x2="0" stroke="black" y2="44.0" x1="0"/><line y1="22.0" fill="none" transform="translate(22 0)translate(384 0)translate(22 0)translate(23 23)" x2="124.0" stroke="green" y2="22.0" x1="114.0"/><rect height="44.0" fill="lightgrey" y="0" transform="translate(124 0)translate(22 0)translate(384 0)translate(22 0)translate(23 23)" width="120.0" stroke="none" x="0"/><text fill="white" text-anchor="middle" y="22.0" transform="translate(124 0)translate(22 0)translate(384 0)translate(22 0)translate(23 23)" dominant-baseline="central" x="60.0">drink</text><line y1="0" transform="translate(124 0)translate(22 0)translate(384 0)translate(22 0)translate(23 23)" x2="0" stroke="black" y2="22.0" x1="0"/><line y1="0" transform="translate(124 0)translate(22 0)translate(384 0)translate(22 0)translate(23 23)" x2="120.0" stroke="black" y2="22.0" x1="120.0"/><line y1="0" transform="translate(124 0)translate(22 0)translate(384 0)translate(22 0)translate(23 23)" x2="120.0" stroke="black" y2="0" x1="0"/><path fill="none" transform="translate(22 0)translate(384 0)translate(22 0)translate(23 23)" d="M 104,22 c 10,0 0,0 10 0" stroke="red"/><path fill="none" transform="translate(22 0)translate(23 23)" d="M 364,22 c 10,0 0,0 10 0" stroke="red"/></svg>
