<?xml version="1.0" encoding="UTF-8"?>
<!DOCTYPE svg PUBLIC "-//W3C//DTD SVG 1.1//EN"
    "http://www.w3.org/Graphics/SVG/1.1/DTD/svg11.dtd"><svg xmlns="http://www.w3.org/2000/svg" xmlns:xlink="http://www.w3.org/1999/xlink" version="1.11.1"><line y1="22.0" fill="none" x2="10.0" stroke="green" y2="22.0" x1="0.0"/><text fill="black" text-anchor="middle" y="22.0" transform="translate(10 0)" dominant-baseline="central" x="104.0">either</text><path fill="none" transform="translate(22 44)translate(10 0)" d="M 0,-22 c 22,0 0,54 22 54" stroke="green"/><rect height="44.0" fill="none" y="0" transform="translate(22 0)translate(0 10)translate(22 44)translate(10 0)" width="120.0" stroke="none" x="0"/><text fill="black" text-anchor="middle" y="22.0" transform="translate(22 0)translate(0 10)translate(22 44)translate(10 0)" dominant-baseline="central" x="60.0">sink</text><line y1="0" transform="translate(22 0)translate(0 10)translate(22 44)translate(10 0)" x2="0" stroke="black" y2="44.0" x1="0"/><line y1="0" transform="translate(22 0)translate(0 10)translate(22 44)translate(10 0)" x2="120.0" stroke="black" y2="44.0" x1="120.0"/><line y1="0" transform="translate(22 0)translate(0 10)translate(22 44)translate(10 0)" x2="120.0" stroke="black" y2="0" x1="0"/><line y1="22.0" stroke-width="2" transform="translate(0 10)translate(22 44)translate(10 0)" x2="22.0" stroke="blue" y2="22.0" x1="0"/><line y1="22.0" transform="translate(0 10)translate(22 44)translate(10 0)" x2="164.0" stroke="blue" y2="22.0" x1="142.0"/><path fill="none" transform="translate(22 44)translate(10 0)" d="M 0,-22 c 22,0 0,108 22 108" stroke="green"/><rect height="44.0" fill="none" y="0" transform="translate(22 0)translate(0 64)translate(22 44)translate(10 0)" width="120.0" stroke="none" x="0"/><text fill="black" text-anchor="middle" y="22.0" transform="translate(22 0)translate(0 64)translate(22 44)translate(10 0)" dominant-baseline="central" x="60.0">swim</text><line y1="0" transform="translate(22 0)translate(0 64)translate(22 44)translate(10 0)" x2="0" stroke="black" y2="44.0" x1="0"/><line y1="0" transform="translate(22 0)translate(0 64)translate(22 44)translate(10 0)" x2="120.0" stroke="black" y2="44.0" x1="120.0"/><line y1="0" transform="translate(22 0)translate(0 64)translate(22 44)translate(10 0)" x2="120.0" stroke="black" y2="0" x1="0"/><line y1="22.0" stroke-width="2" transform="translate(0 64)translate(22 44)translate(10 0)" x2="22.0" stroke="blue" y2="22.0" x1="0"/><line y1="22.0" transform="translate(0 64)translate(22 44)translate(10 0)" x2="164.0" stroke="blue" y2="22.0" x1="142.0"/><line y1="22.0" transform="translate(10 0)" x2="22.0" stroke="red" y2="22.0" x1="0"/><line y1="22.0" transform="translate(10 0)" x2="22.0" stroke="black" y2="130.0" x1="22.0"/><line y1="22.0" transform="translate(10 0)" x2="208.0" stroke="red" y2="22.0" x1="186.0"/><line y1="22.0" transform="translate(10 0)" x2="186.0" stroke="black" y2="130.0" x1="186.0"/><line y1="22.0" fill="none" x2="228.0" stroke="green" y2="22.0" x1="218.0"/><rect height="44.0" fill="none" y="0" transform="translate(228 0)" width="120.0" stroke="none" x="0"/><text fill="black" text-anchor="middle" y="22.0" transform="translate(228 0)" dominant-baseline="central" x="60.0">walk</text><line y1="0" transform="translate(228 0)" x2="0" stroke="black" y2="22.0" x1="0"/><line y1="0" transform="translate(228 0)" x2="120.0" stroke="black" y2="22.0" x1="120.0"/><line y1="0" transform="translate(228 0)" x2="120.0" stroke="black" y2="0" x1="0"/><line y1="22.0" fill="none" x2="358.0" stroke="green" y2="22.0" x1="348.0"/><line y1="22.0" fill="none" transform="translate(358 0)" x2="10.0" stroke="green" y2="22.0" x1="0.0"/><rect height="44.0" fill="lightgrey" y="0" transform="translate(10 0)translate(358 0)" width="120.0" stroke="none" x="0"/><text fill="white" text-anchor="middle" y="22.0" transform="translate(10 0)translate(358 0)" dominant-baseline="central" x="60.0">eat</text><line y1="0" transform="translate(10 0)translate(358 0)" x2="0" stroke="black" y2="44.0" x1="0"/><line y1="22.0" fill="none" transform="translate(358 0)" x2="140.0" stroke="green" y2="22.0" x1="130.0"/><rect height="44.0" fill="lightgrey" y="0" transform="translate(140 0)translate(358 0)" width="120.0" stroke="none" x="0"/><text fill="white" text-anchor="middle" y="22.0" transform="translate(140 0)translate(358 0)" dominant-baseline="central" x="60.0">drink</text><line y1="0" transform="translate(140 0)translate(358 0)" x2="0" stroke="black" y2="22.0" x1="0"/><line y1="0" transform="translate(140 0)translate(358 0)" x2="120.0" stroke="black" y2="22.0" x1="120.0"/><line y1="0" transform="translate(140 0)translate(358 0)" x2="120.0" stroke="black" y2="0" x1="0"/></svg>
