<?xml version="1.0" encoding="UTF-8"?>
<!DOCTYPE svg PUBLIC "-//W3C//DTD SVG 1.1//EN"
    "http://www.w3.org/Graphics/SVG/1.1/DTD/svg11.dtd"><svg xmlns="http://www.w3.org/2000/svg" xmlns:xlink="http://www.w3.org/1999/xlink" version="1.11.1"><text fill="black" text-anchor="middle" y="22.0" dominant-baseline="central" x="100.0">any of</text><text fill="black" text-anchor="middle" y="22.0" transform="translate(20.0000 44.0000)" dominant-baseline="central" x="100.0">any</text><rect height="44.0" fill="lightgrey" y="0.0" transform="translate(20.0000 44.0000)translate(20.0000 44.0000)" width="120.0" stroke="none" x="20.0"/><text fill="white" text-anchor="middle" y="22.0" transform="translate(20.0000 44.0000)translate(20.0000 44.0000)" dominant-baseline="central" x="80.0">drink</text><line y1="22.0" transform="translate(20.0000 44.0000)translate(20.0000 44.0000)" x2="20.0" stroke="black" y2="22.0" x1="0"/><line y1="22.0" transform="translate(20.0000 44.0000)translate(20.0000 44.0000)" x2="160.0" stroke="black" y2="22.0" x1="140.0"/><line y1="0.0" transform="translate(20.0000 44.0000)translate(20.0000 44.0000)" x2="20.0" stroke="black" y2="22.0" x1="20.0"/><line y1="0.0" transform="translate(20.0000 44.0000)translate(20.0000 44.0000)" x2="140.0" stroke="black" y2="22.0" x1="140.0"/><line y1="0.0" transform="translate(20.0000 44.0000)translate(20.0000 44.0000)" x2="140.0" stroke="black" y2="0.0" x1="20.0"/><rect height="44.0" fill="lightgrey" y="0.0" transform="translate(0.0000 54.0000)translate(20.0000 44.0000)translate(20.0000 44.0000)" width="120.0" stroke="none" x="20.0"/><text fill="white" text-anchor="middle" y="22.0" transform="translate(0.0000 54.0000)translate(20.0000 44.0000)translate(20.0000 44.0000)" dominant-baseline="central" x="80.0">eat</text><line y1="22.0" transform="translate(0.0000 54.0000)translate(20.0000 44.0000)translate(20.0000 44.0000)" x2="20.0" stroke="black" y2="22.0" x1="0"/><line y1="22.0" transform="translate(0.0000 54.0000)translate(20.0000 44.0000)translate(20.0000 44.0000)" x2="160.0" stroke="black" y2="22.0" x1="140.0"/><line y1="0.0" transform="translate(0.0000 54.0000)translate(20.0000 44.0000)translate(20.0000 44.0000)" x2="20.0" stroke="black" y2="44.0" x1="20.0"/><line y1="22.0" transform="translate(20.0000 44.0000)" x2="20.0" stroke="black" y2="22.0" x1="0"/><line y1="22.0" transform="translate(20.0000 44.0000)" x2="20.0" stroke="black" y2="120.0" x1="20.0"/><line y1="22.0" transform="translate(20.0000 44.0000)" x2="200.0" stroke="black" y2="22.0" x1="180.0"/><line y1="22.0" transform="translate(20.0000 44.0000)" x2="180.0" stroke="black" y2="120.0" x1="180.0"/><text fill="black" text-anchor="middle" y="22.0" transform="translate(0.0000 162.0000)translate(20.0000 44.0000)" dominant-baseline="central" x="100.0">either</text><rect height="44.0" fill="none" y="0.0" transform="translate(20.0000 44.0000)translate(0.0000 162.0000)translate(20.0000 44.0000)" width="120.0" stroke="none" x="20.0"/><text fill="black" text-anchor="middle" y="22.0" transform="translate(20.0000 44.0000)translate(0.0000 162.0000)translate(20.0000 44.0000)" dominant-baseline="central" x="80.0">swim</text><line y1="22.0" transform="translate(20.0000 44.0000)translate(0.0000 162.0000)translate(20.0000 44.0000)" x2="20.0" stroke="black" y2="22.0" x1="0"/><line y1="22.0" transform="translate(20.0000 44.0000)translate(0.0000 162.0000)translate(20.0000 44.0000)" x2="160.0" stroke="black" y2="22.0" x1="140.0"/><line y1="0.0" transform="translate(20.0000 44.0000)translate(0.0000 162.0000)translate(20.0000 44.0000)" x2="20.0" stroke="black" y2="44.0" x1="20.0"/><line y1="0.0" transform="translate(20.0000 44.0000)translate(0.0000 162.0000)translate(20.0000 44.0000)" x2="140.0" stroke="black" y2="44.0" x1="140.0"/><line y1="0.0" transform="translate(20.0000 44.0000)translate(0.0000 162.0000)translate(20.0000 44.0000)" x2="140.0" stroke="black" y2="0.0" x1="20.0"/><rect height="44.0" fill="none" y="0.0" transform="translate(0.0000 54.0000)translate(20.0000 44.0000)translate(0.0000 162.0000)translate(20.0000 44.0000)" width="120.0" stroke="none" x="20.0"/><text fill="black" text-anchor="middle" y="22.0" transform="translate(0.0000 54.0000)translate(20.0000 44.0000)translate(0.0000 162.0000)translate(20.0000 44.0000)" dominant-baseline="central" x="80.0">sink</text><line y1="22.0" transform="translate(0.0000 54.0000)translate(20.0000 44.0000)translate(0.0000 162.0000)translate(20.0000 44.0000)" x2="20.0" stroke="black" y2="22.0" x1="0"/><line y1="22.0" transform="translate(0.0000 54.0000)translate(20.0000 44.0000)translate(0.0000 162.0000)translate(20.0000 44.0000)" x2="160.0" stroke="black" y2="22.0" x1="140.0"/><line y1="0.0" transform="translate(0.0000 54.0000)translate(20.0000 44.0000)translate(0.0000 162.0000)translate(20.0000 44.0000)" x2="20.0" stroke="black" y2="44.0" x1="20.0"/><line y1="0.0" transform="translate(0.0000 54.0000)translate(20.0000 44.0000)translate(0.0000 162.0000)translate(20.0000 44.0000)" x2="140.0" stroke="black" y2="44.0" x1="140.0"/><line y1="0.0" transform="translate(0.0000 54.0000)translate(20.0000 44.0000)translate(0.0000 162.0000)translate(20.0000 44.0000)" x2="140.0" stroke="black" y2="0.0" x1="20.0"/><line y1="22.0" transform="translate(0.0000 162.0000)translate(20.0000 44.0000)" x2="20.0" stroke="black" y2="22.0" x1="0"/><line y1="22.0" transform="translate(0.0000 162.0000)translate(20.0000 44.0000)" x2="20.0" stroke="black" y2="120.0" x1="20.0"/><line y1="22.0" transform="translate(0.0000 162.0000)translate(20.0000 44.0000)" x2="200.0" stroke="black" y2="22.0" x1="180.0"/><line y1="22.0" transform="translate(0.0000 162.0000)translate(20.0000 44.0000)" x2="180.0" stroke="black" y2="120.0" x1="180.0"/><rect height="44.0" fill="none" y="0.0" transform="translate(0.0000 162.0000)translate(0.0000 162.0000)translate(20.0000 44.0000)" width="120.0" stroke="none" x="20.0"/><text fill="black" text-anchor="middle" y="22.0" transform="translate(0.0000 162.0000)translate(0.0000 162.0000)translate(20.0000 44.0000)" dominant-baseline="central" x="80.0">walk</text><line y1="22.0" transform="translate(0.0000 162.0000)translate(0.0000 162.0000)translate(20.0000 44.0000)" x2="20.0" stroke="black" y2="22.0" x1="0"/><line y1="22.0" transform="translate(0.0000 162.0000)translate(0.0000 162.0000)translate(20.0000 44.0000)" x2="160.0" stroke="black" y2="22.0" x1="140.0"/><line y1="0.0" transform="translate(0.0000 162.0000)translate(0.0000 162.0000)translate(20.0000 44.0000)" x2="20.0" stroke="black" y2="22.0" x1="20.0"/><line y1="0.0" transform="translate(0.0000 162.0000)translate(0.0000 162.0000)translate(20.0000 44.0000)" x2="140.0" stroke="black" y2="22.0" x1="140.0"/><line y1="0.0" transform="translate(0.0000 162.0000)translate(0.0000 162.0000)translate(20.0000 44.0000)" x2="140.0" stroke="black" y2="0.0" x1="20.0"/><line y1="22.0" x2="20.0" stroke="black" y2="22.0" x1="0"/><line y1="22.0" x2="20.0" stroke="black" y2="390.0" x1="20.0"/><line y1="22.0" x2="240.0" stroke="black" y2="22.0" x1="220.0"/><line y1="22.0" x2="220.0" stroke="black" y2="390.0" x1="220.0"/></svg>
