<?xml version="1.0" encoding="UTF-8"?>
<!DOCTYPE svg PUBLIC "-//W3C//DTD SVG 1.1//EN"
    "http://www.w3.org/Graphics/SVG/1.1/DTD/svg11.dtd"><svg xmlns="http://www.w3.org/2000/svg" xmlns:xlink="http://www.w3.org/1999/xlink" version="1.11.1"><path fill="none" d="M 0,22 c 0,0 0,0 0 0" stroke="green"/><text fill="black" text-anchor="middle" y="22.0" transform="translate(20 0)" dominant-baseline="central" x="100.0">either</text><path fill="none" transform="translate(20 44)translate(20 0)" d="M 0,-22 c 20,0 0,54 20 54" stroke="green"/><rect height="44.0" fill="none" y="0" transform="translate(20 0)translate(0 10)translate(20 44)translate(20 0)" width="120.0" stroke="none" x="0"/><text fill="black" text-anchor="middle" y="22.0" transform="translate(20 0)translate(0 10)translate(20 44)translate(20 0)" dominant-baseline="central" x="60.0">sink</text><line y1="0" transform="translate(20 0)translate(0 10)translate(20 44)translate(20 0)" x2="0" stroke="black" y2="44.0" x1="0"/><line y1="0" transform="translate(20 0)translate(0 10)translate(20 44)translate(20 0)" x2="120.0" stroke="black" y2="44.0" x1="120.0"/><line y1="0" transform="translate(20 0)translate(0 10)translate(20 44)translate(20 0)" x2="120.0" stroke="black" y2="0" x1="0"/><line y1="22.0" stroke-width="2" transform="translate(0 10)translate(20 44)translate(20 0)" x2="20.0" stroke="blue" y2="22.0" x1="0"/><line y1="22.0" transform="translate(0 10)translate(20 44)translate(20 0)" x2="160.0" stroke="blue" y2="22.0" x1="140.0"/><path fill="none" transform="translate(20 44)translate(20 0)" d="M 0,-22 c 20,0 0,108 20 108" stroke="green"/><rect height="44.0" fill="none" y="0" transform="translate(20 0)translate(0 64)translate(20 44)translate(20 0)" width="120.0" stroke="none" x="0"/><text fill="black" text-anchor="middle" y="22.0" transform="translate(20 0)translate(0 64)translate(20 44)translate(20 0)" dominant-baseline="central" x="60.0">swim</text><line y1="0" transform="translate(20 0)translate(0 64)translate(20 44)translate(20 0)" x2="0" stroke="black" y2="44.0" x1="0"/><line y1="0" transform="translate(20 0)translate(0 64)translate(20 44)translate(20 0)" x2="120.0" stroke="black" y2="44.0" x1="120.0"/><line y1="0" transform="translate(20 0)translate(0 64)translate(20 44)translate(20 0)" x2="120.0" stroke="black" y2="0" x1="0"/><line y1="22.0" stroke-width="2" transform="translate(0 64)translate(20 44)translate(20 0)" x2="20.0" stroke="blue" y2="22.0" x1="0"/><line y1="22.0" transform="translate(0 64)translate(20 44)translate(20 0)" x2="160.0" stroke="blue" y2="22.0" x1="140.0"/><line y1="22.0" transform="translate(20 0)" x2="20.0" stroke="red" y2="22.0" x1="0"/><line y1="22.0" transform="translate(20 0)" x2="20.0" stroke="black" y2="130.0" x1="20.0"/><line y1="22.0" transform="translate(20 0)" x2="200.0" stroke="red" y2="22.0" x1="180.0"/><line y1="22.0" transform="translate(20 0)" x2="180.0" stroke="black" y2="130.0" x1="180.0"/><path fill="none" d="M 0,22 c 210,0 210,0 210 0" stroke="green"/><rect height="44.0" fill="none" y="0" transform="translate(230 0)" width="120.0" stroke="none" x="0"/><text fill="black" text-anchor="middle" y="22.0" transform="translate(230 0)" dominant-baseline="central" x="60.0">walk</text><line y1="0" transform="translate(230 0)" x2="0" stroke="black" y2="22.0" x1="0"/><line y1="0" transform="translate(230 0)" x2="120.0" stroke="black" y2="22.0" x1="120.0"/><line y1="0" transform="translate(230 0)" x2="120.0" stroke="black" y2="0" x1="0"/><path fill="none" d="M 0,22 c 340,0 340,0 340 0" stroke="green"/><path fill="none" transform="translate(360 0)" d="M 0,22 c 0,0 0,0 0 0" stroke="green"/><rect height="44.0" fill="lightgrey" y="0" transform="translate(20 0)translate(360 0)" width="120.0" stroke="none" x="0"/><text fill="white" text-anchor="middle" y="22.0" transform="translate(20 0)translate(360 0)" dominant-baseline="central" x="60.0">eat</text><line y1="0" transform="translate(20 0)translate(360 0)" x2="0" stroke="black" y2="44.0" x1="0"/><path fill="none" transform="translate(360 0)" d="M 0,22 c 130,0 130,0 130 0" stroke="green"/><rect height="44.0" fill="lightgrey" y="0" transform="translate(150 0)translate(360 0)" width="120.0" stroke="none" x="0"/><text fill="white" text-anchor="middle" y="22.0" transform="translate(150 0)translate(360 0)" dominant-baseline="central" x="60.0">drink</text><line y1="0" transform="translate(150 0)translate(360 0)" x2="0" stroke="black" y2="22.0" x1="0"/><line y1="0" transform="translate(150 0)translate(360 0)" x2="120.0" stroke="black" y2="22.0" x1="120.0"/><line y1="0" transform="translate(150 0)translate(360 0)" x2="120.0" stroke="black" y2="0" x1="0"/></svg>
