<?xml version="1.0" encoding="UTF-8"?>
<!DOCTYPE svg PUBLIC "-//W3C//DTD SVG 1.1//EN"
    "http://www.w3.org/Graphics/SVG/1.1/DTD/svg11.dtd"><svg xmlns="http://www.w3.org/2000/svg" xmlns:xlink="http://www.w3.org/1999/xlink" version="1.11.1"><line y1="4.0" fill="none" transform="translate(23 23)" x2="5.0" stroke="green" y2="4.0" x1="0.0"/><path fill="none" transform="translate(5 0)translate(23 23)" d="M 0,-4 c 6,0 0,13 6 13" stroke="green"/><rect height="8.0" fill="none" y="0" transform="translate(6 0)translate(0 5)translate(5 0)translate(23 23)" width="8.0" stroke="none" x="0"/><circle fill="black" cx="4.0" transform="translate(6 0)translate(0 5)translate(5 0)translate(23 23)" r="2.6666666666666665" cy="4.0"/><line y1="0" transform="translate(6 0)translate(0 5)translate(5 0)translate(23 23)" x2="0" stroke="black" y2="8.0" x1="0"/><line y1="0" transform="translate(6 0)translate(0 5)translate(5 0)translate(23 23)" x2="8.0" stroke="black" y2="8.0" x1="8.0"/><line y1="0" transform="translate(6 0)translate(0 5)translate(5 0)translate(23 23)" x2="8.0" stroke="black" y2="0" x1="0"/><line y1="4.0" stroke-width="2" transform="translate(0 5)translate(5 0)translate(23 23)" x2="6.0" stroke="blue" y2="4.0" x1="0"/><line y1="4.0" transform="translate(0 5)translate(5 0)translate(23 23)" x2="20.0" stroke="blue" y2="4.0" x1="14.0"/><path fill="none" transform="translate(5 0)translate(23 23)" d="M 0,-4 c 6,0 0,26 6 26" stroke="green"/><rect height="8.0" fill="none" y="0" transform="translate(6 0)translate(0 18)translate(5 0)translate(23 23)" width="8.0" stroke="none" x="0"/><circle fill="black" cx="4.0" transform="translate(6 0)translate(0 18)translate(5 0)translate(23 23)" r="2.6666666666666665" cy="4.0"/><line y1="0" transform="translate(6 0)translate(0 18)translate(5 0)translate(23 23)" x2="0" stroke="black" y2="8.0" x1="0"/><line y1="0" transform="translate(6 0)translate(0 18)translate(5 0)translate(23 23)" x2="8.0" stroke="black" y2="8.0" x1="8.0"/><line y1="0" transform="translate(6 0)translate(0 18)translate(5 0)translate(23 23)" x2="8.0" stroke="black" y2="0" x1="0"/><line y1="4.0" stroke-width="2" transform="translate(0 18)translate(5 0)translate(23 23)" x2="6.0" stroke="blue" y2="4.0" x1="0"/><line y1="4.0" transform="translate(0 18)translate(5 0)translate(23 23)" x2="20.0" stroke="blue" y2="4.0" x1="14.0"/><line y1="4.0" fill="none" transform="translate(23 23)" x2="42.0" stroke="green" y2="4.0" x1="37.0"/><rect height="8.0" fill="none" y="0" transform="translate(42 0)translate(23 23)" width="8.0" stroke="none" x="0"/><circle fill="black" cx="4.0" transform="translate(42 0)translate(23 23)" r="2.6666666666666665" cy="4.0"/><line y1="0" transform="translate(42 0)translate(23 23)" x2="0" stroke="black" y2="4.0" x1="0"/><line y1="0" transform="translate(42 0)translate(23 23)" x2="8.0" stroke="black" y2="4.0" x1="8.0"/><line y1="0" transform="translate(42 0)translate(23 23)" x2="8.0" stroke="black" y2="0" x1="0"/><line y1="4.0" fill="none" transform="translate(23 23)" x2="55.0" stroke="green" y2="4.0" x1="50.0"/><line y1="4.0" fill="none" transform="translate(55 0)translate(23 23)" x2="5.0" stroke="green" y2="4.0" x1="0.0"/><rect height="8.0" fill="lightgrey" y="0" transform="translate(5 0)translate(55 0)translate(23 23)" width="8.0" stroke="none" x="0"/><circle fill="white" cx="4.0" transform="translate(5 0)translate(55 0)translate(23 23)" r="2.6666666666666665" cy="4.0"/><line y1="0" transform="translate(5 0)translate(55 0)translate(23 23)" x2="0" stroke="black" y2="8.0" x1="0"/><line y1="4.0" fill="none" transform="translate(55 0)translate(23 23)" x2="18.0" stroke="green" y2="4.0" x1="13.0"/><rect height="8.0" fill="lightgrey" y="0" transform="translate(18 0)translate(55 0)translate(23 23)" width="8.0" stroke="none" x="0"/><circle fill="white" cx="4.0" transform="translate(18 0)translate(55 0)translate(23 23)" r="2.6666666666666665" cy="4.0"/><line y1="0" transform="translate(18 0)translate(55 0)translate(23 23)" x2="0" stroke="black" y2="4.0" x1="0"/><line y1="0" transform="translate(18 0)translate(55 0)translate(23 23)" x2="8.0" stroke="black" y2="4.0" x1="8.0"/><line y1="0" transform="translate(18 0)translate(55 0)translate(23 23)" x2="8.0" stroke="black" y2="0" x1="0"/></svg>
