<?xml version="1.0" encoding="UTF-8"?>
<!DOCTYPE svg PUBLIC "-//W3C//DTD SVG 1.1//EN"
    "http://www.w3.org/Graphics/SVG/1.1/DTD/svg11.dtd"><svg xmlns="http://www.w3.org/2000/svg" height="210.0" xmlns:xlink="http://www.w3.org/1999/xlink" version="1.11.1"><g><g><rect height="20.0" width="20.0" stroke="black" fill="none" x="0.0" y="0.0"/><text x="25.0" y="15.0">all of</text></g><line x2="10.0" y1="20.0" stroke="grey" y2="25.0" x1="10.0"/><line x2="40.0" y1="25.0" stroke="grey" y2="25.0" x1="10.0"/><line x2="40.0" y1="25.0" stroke="grey" y2="30.0" x1="40.0"/><g transform="translate(30.0000 30.0000)"><g><rect height="20.0" width="20.0" stroke="black" fill="none" x="0.0" y="0.0"/><text x="25.0" y="15.0">walk</text></g><line x2="10.0" y1="20.0" stroke="grey" y2="25.0" x1="10.0"/><g transform="translate(0.0000 25.0000)"><g><line x2="20.0" y1="5.0" stroke="grey" y2="15.0" x1="25.0"/><line x2="10.0" y1="0.0" stroke="grey" y2="25.0" x1="10.0"/><line x2="30.0" y1="10.0" stroke="grey" y2="10.0" x1="10.0"/><g transform="translate(30.0000 0.0000)"><g><rect height="20.0" width="20.0" stroke="black" fill="none" x="0.0" y="0.0"/><text x="25.0" y="15.0">either</text></g><line x2="10.0" y1="20.0" stroke="grey" y2="25.0" x1="10.0"/><line x2="40.0" y1="25.0" stroke="grey" y2="25.0" x1="10.0"/><line x2="40.0" y1="25.0" stroke="grey" y2="30.0" x1="40.0"/><g transform="translate(30.0000 30.0000)"><g><rect height="20.0" width="20.0" stroke="black" fill="none" x="0.0" y="0.0"/><text x="25.0" y="15.0">sink</text></g><line x2="10.0" y1="20.0" stroke="grey" y2="25.0" x1="10.0"/><g transform="translate(0.0000 25.0000)"><rect height="20.0" width="20.0" stroke="black" fill="none" x="0.0" y="0.0"/><text x="25.0" y="15.0">swim</text></g></g></g></g><line x2="10.0" y1="20.0" stroke="grey" y2="80.0" x1="10.0"/><g transform="translate(0.0000 80.0000)"><g><rect height="20.0" width="20.0" stroke="black" fill="none" x="0.0" y="0.0"/><text x="25.0" y="15.0">either</text></g><line x2="10.0" y1="20.0" stroke="grey" y2="60.0" x1="10.0"/><g transform="translate(30.0000 25.0000)"><g><rect height="20.0" width="20.0" stroke="black" fill="none" x="0.0" y="0.0"/><text x="25.0" y="15.0">eat</text></g><line x2="0.0" y1="10.0" stroke="grey" y2="10.0" x1="-20.0"/><g transform="translate(0.0000 25.0000)"><g><rect height="20.0" width="20.0" stroke="black" fill="none" x="0.0" y="0.0"/><text x="25.0" y="15.0">drink</text></g><line x2="0.0" y1="10.0" stroke="grey" y2="10.0" x1="-20.0"/></g></g></g></g></g></g></svg>
