<?xml version="1.0" encoding="UTF-8"?>
<!DOCTYPE svg PUBLIC "-//W3C//DTD SVG 1.1//EN"
    "http://www.w3.org/Graphics/SVG/1.1/DTD/svg11.dtd"><svg xmlns="http://www.w3.org/2000/svg" xmlns:xlink="http://www.w3.org/1999/xlink" version="1.11.1"><text fill="black" text-anchor="middle" y="22.0" transform="translate(23 23)" dominant-baseline="central" x="412.0">all of</text><path fill="none" transform="translate(22 44)translate(23 23)" d="M 0,-22 c 22,0 0,54 22 54" stroke="green"/><line y1="22.0" fill="none" transform="translate(22 0)translate(0 10)translate(22 44)translate(23 23)" x2="10.0" stroke="green" y2="22.0" x1="0.0"/><text fill="black" text-anchor="middle" y="22.0" transform="translate(10 0)translate(22 0)translate(0 10)translate(22 44)translate(23 23)" dominant-baseline="central" x="123.5">either</text><path fill="none" transform="translate(22 44)translate(10 0)translate(22 0)translate(0 10)translate(22 44)translate(23 23)" d="M 0,-22 c 22,0 0,54 22 54" stroke="green"/><rect height="44.0" fill="lightgrey" y="0" transform="translate(22 0)translate(0 10)translate(22 44)translate(10 0)translate(22 0)translate(0 10)translate(22 44)translate(23 23)" width="159.0" stroke="none" x="0"/><text fill="white" text-anchor="middle" y="22.0" transform="translate(22 0)translate(0 10)translate(22 44)translate(10 0)translate(22 0)translate(0 10)translate(22 44)translate(23 23)" dominant-baseline="central" x="79.5">sink to the bottom</text><line y1="0" transform="translate(22 0)translate(0 10)translate(22 44)translate(10 0)translate(22 0)translate(0 10)translate(22 44)translate(23 23)" x2="159.0" stroke="black" y2="44.0" x1="159.0"/><line y1="22.0" stroke-width="2" transform="translate(0 10)translate(22 44)translate(10 0)translate(22 0)translate(0 10)translate(22 44)translate(23 23)" x2="22.0" stroke="blue" y2="22.0" x1="0"/><line y1="22.0" transform="translate(0 10)translate(22 44)translate(10 0)translate(22 0)translate(0 10)translate(22 44)translate(23 23)" x2="203.0" stroke="blue" y2="22.0" x1="181.0"/><path fill="none" transform="translate(22 44)translate(10 0)translate(22 0)translate(0 10)translate(22 44)translate(23 23)" d="M 0,-22 c 22,0 0,108 22 108" stroke="green"/><rect height="44.0" fill="none" y="0" transform="translate(43 0)translate(0 64)translate(22 44)translate(10 0)translate(22 0)translate(0 10)translate(22 44)translate(23 23)" width="117.0" stroke="none" x="0"/><text fill="black" text-anchor="middle" y="22.0" transform="translate(43 0)translate(0 64)translate(22 44)translate(10 0)translate(22 0)translate(0 10)translate(22 44)translate(23 23)" dominant-baseline="central" x="58.5">swim</text><line y1="0" transform="translate(43 0)translate(0 64)translate(22 44)translate(10 0)translate(22 0)translate(0 10)translate(22 44)translate(23 23)" x2="0" stroke="black" y2="44.0" x1="0"/><line y1="0" transform="translate(43 0)translate(0 64)translate(22 44)translate(10 0)translate(22 0)translate(0 10)translate(22 44)translate(23 23)" x2="117.0" stroke="black" y2="44.0" x1="117.0"/><line y1="0" transform="translate(43 0)translate(0 64)translate(22 44)translate(10 0)translate(22 0)translate(0 10)translate(22 44)translate(23 23)" x2="117.0" stroke="black" y2="0" x1="0"/><line y1="22.0" stroke-width="2" transform="translate(0 64)translate(22 44)translate(10 0)translate(22 0)translate(0 10)translate(22 44)translate(23 23)" x2="43.0" stroke="blue" y2="22.0" x1="0"/><line y1="22.0" transform="translate(0 64)translate(22 44)translate(10 0)translate(22 0)translate(0 10)translate(22 44)translate(23 23)" x2="203.0" stroke="blue" y2="22.0" x1="160.0"/><line y1="22.0" transform="translate(10 0)translate(22 0)translate(0 10)translate(22 44)translate(23 23)" x2="22.0" stroke="red" y2="22.0" x1="0"/><line y1="22.0" transform="translate(10 0)translate(22 0)translate(0 10)translate(22 44)translate(23 23)" x2="22.0" stroke="black" y2="130.0" x1="22.0"/><line y1="22.0" transform="translate(10 0)translate(22 0)translate(0 10)translate(22 44)translate(23 23)" x2="247.0" stroke="red" y2="22.0" x1="225.0"/><line y1="22.0" transform="translate(10 0)translate(22 0)translate(0 10)translate(22 44)translate(23 23)" x2="225.0" stroke="black" y2="130.0" x1="225.0"/><line y1="22.0" fill="none" transform="translate(22 0)translate(0 10)translate(22 44)translate(23 23)" x2="267.0" stroke="green" y2="22.0" x1="257.0"/><rect height="44.0" fill="none" y="0" transform="translate(267 0)translate(22 0)translate(0 10)translate(22 44)translate(23 23)" width="117.0" stroke="none" x="0"/><text fill="black" text-anchor="middle" y="22.0" transform="translate(267 0)translate(22 0)translate(0 10)translate(22 44)translate(23 23)" dominant-baseline="central" x="58.5">walk</text><line y1="0" transform="translate(267 0)translate(22 0)translate(0 10)translate(22 44)translate(23 23)" x2="0" stroke="black" y2="22.0" x1="0"/><line y1="0" transform="translate(267 0)translate(22 0)translate(0 10)translate(22 44)translate(23 23)" x2="117.0" stroke="black" y2="22.0" x1="117.0"/><line y1="0" transform="translate(267 0)translate(22 0)translate(0 10)translate(22 44)translate(23 23)" x2="117.0" stroke="black" y2="0" x1="0"/><line y1="22.0" fill="none" transform="translate(22 0)translate(0 10)translate(22 44)translate(23 23)" x2="394.0" stroke="green" y2="22.0" x1="384.0"/><text fill="black" text-anchor="middle" y="22.0" transform="translate(394 0)translate(22 0)translate(0 10)translate(22 44)translate(23 23)" dominant-baseline="central" x="171.0">all</text><path fill="none" transform="translate(22 44)translate(394 0)translate(22 0)translate(0 10)translate(22 44)translate(23 23)" d="M 0,-22 c 22,0 0,54 22 54" stroke="green"/><line y1="22.0" fill="none" transform="translate(22 0)translate(0 10)translate(22 44)translate(394 0)translate(22 0)translate(0 10)translate(22 44)translate(23 23)" x2="10.0" stroke="green" y2="22.0" x1="0.0"/><rect height="44.0" fill="lightgrey" y="0" transform="translate(10 0)translate(22 0)translate(0 10)translate(22 44)translate(394 0)translate(22 0)translate(0 10)translate(22 44)translate(23 23)" width="114.0" stroke="none" x="0"/><text fill="white" text-anchor="middle" y="22.0" transform="translate(10 0)translate(22 0)translate(0 10)translate(22 44)translate(394 0)translate(22 0)translate(0 10)translate(22 44)translate(23 23)" dominant-baseline="central" x="57.0">eat</text><line y1="0" transform="translate(10 0)translate(22 0)translate(0 10)translate(22 44)translate(394 0)translate(22 0)translate(0 10)translate(22 44)translate(23 23)" x2="0" stroke="black" y2="44.0" x1="0"/><line y1="22.0" fill="none" transform="translate(22 0)translate(0 10)translate(22 44)translate(394 0)translate(22 0)translate(0 10)translate(22 44)translate(23 23)" x2="134.0" stroke="green" y2="22.0" x1="124.0"/><rect height="44.0" fill="lightgrey" y="0" transform="translate(134 0)translate(22 0)translate(0 10)translate(22 44)translate(394 0)translate(22 0)translate(0 10)translate(22 44)translate(23 23)" width="120.0" stroke="none" x="0"/><text fill="white" text-anchor="middle" y="22.0" transform="translate(134 0)translate(22 0)translate(0 10)translate(22 44)translate(394 0)translate(22 0)translate(0 10)translate(22 44)translate(23 23)" dominant-baseline="central" x="60.0">drink</text><line y1="0" transform="translate(134 0)translate(22 0)translate(0 10)translate(22 44)translate(394 0)translate(22 0)translate(0 10)translate(22 44)translate(23 23)" x2="0" stroke="black" y2="22.0" x1="0"/><line y1="0" transform="translate(134 0)translate(22 0)translate(0 10)translate(22 44)translate(394 0)translate(22 0)translate(0 10)translate(22 44)translate(23 23)" x2="120.0" stroke="black" y2="22.0" x1="120.0"/><line y1="0" transform="translate(134 0)translate(22 0)translate(0 10)translate(22 44)translate(394 0)translate(22 0)translate(0 10)translate(22 44)translate(23 23)" x2="120.0" stroke="black" y2="0" x1="0"/><line y1="22.0" stroke-width="2" transform="translate(0 10)translate(22 44)translate(394 0)translate(22 0)translate(0 10)translate(22 44)translate(23 23)" x2="22.0" stroke="blue" y2="22.0" x1="0"/><line y1="22.0" transform="translate(0 10)translate(22 44)translate(394 0)translate(22 0)translate(0 10)translate(22 44)translate(23 23)" x2="342.0" stroke="blue" y2="22.0" x1="320.0"/><line y1="22.0" transform="translate(394 0)translate(22 0)translate(0 10)translate(22 44)translate(23 23)" x2="22.0" stroke="red" y2="22.0" x1="0"/><line y1="22.0" transform="translate(394 0)translate(22 0)translate(0 10)translate(22 44)translate(23 23)" x2="22.0" stroke="black" y2="76.0" x1="22.0"/><line y1="22.0" transform="translate(394 0)translate(22 0)translate(0 10)translate(22 44)translate(23 23)" x2="342.0" stroke="red" y2="22.0" x1="320.0"/><line y1="22.0" transform="translate(394 0)translate(22 0)translate(0 10)translate(22 44)translate(23 23)" x2="320.0" stroke="black" y2="76.0" x1="320.0"/><line y1="22.0" stroke-width="2" transform="translate(0 10)translate(22 44)translate(23 23)" x2="22.0" stroke="blue" y2="22.0" x1="0"/><line y1="22.0" transform="translate(0 10)translate(22 44)translate(23 23)" x2="824.0" stroke="blue" y2="22.0" x1="802.0"/><line y1="22.0" transform="translate(23 23)" x2="22.0" stroke="red" y2="22.0" x1="0"/><line y1="22.0" transform="translate(23 23)" x2="22.0" stroke="black" y2="194.0" x1="22.0"/><line y1="22.0" transform="translate(23 23)" x2="824.0" stroke="red" y2="22.0" x1="802.0"/><line y1="22.0" transform="translate(23 23)" x2="802.0" stroke="black" y2="194.0" x1="802.0"/></svg>
