<?xml version="1.0" encoding="UTF-8"?>
<!DOCTYPE svg PUBLIC "-//W3C//DTD SVG 1.1//EN"
    "http://www.w3.org/Graphics/SVG/1.1/DTD/svg11.dtd"><svg xmlns="http://www.w3.org/2000/svg" width="657" xmlns:xlink="http://www.w3.org/1999/xlink" height="181" version="1.11.1"><rect fill="darkgrey" stroke="none" x="0" class="textbox" width="144" y="0" transform="translate(22 0)translate(0 20)translate(23 23)" height="44"/><text fill="white" dominant-baseline="central" x="72" y="22" transform="translate(22 0)translate(0 20)translate(23 23)" text-anchor="middle">walk</text><line stroke="black" class="leftline.half" stroke-width="2px" y1="0" x1="0" y2="22" transform="translate(22 0)translate(0 20)translate(23 23)" x2="0"/><line stroke="black" class="rightline.half" stroke-width="2px" y1="0" x1="144" y2="22" transform="translate(22 0)translate(0 20)translate(23 23)" x2="144"/><line stroke="black" class="topline.full" stroke-width="2px" y1="0" x1="0" y2="0" transform="translate(22 0)translate(0 20)translate(23 23)" x2="144"/><rect fill="none" stroke="none" x="0" class="textbox" width="144" y="0" transform="translate(0 0)translate(0 10)translate(22 -10)translate(0 20)translate(154 0)translate(22 0)translate(0 20)translate(23 23)" height="44"/><text fill="black" dominant-baseline="central" x="72" y="22" transform="translate(0 0)translate(0 10)translate(22 -10)translate(0 20)translate(154 0)translate(22 0)translate(0 20)translate(23 23)" text-anchor="middle">sink</text><line stroke="black" class="leftline.full" stroke-width="2px" y1="0" x1="0" y2="44" transform="translate(0 0)translate(0 10)translate(22 -10)translate(0 20)translate(154 0)translate(22 0)translate(0 20)translate(23 23)" x2="0"/><line stroke="black" class="rightline.full" stroke-width="2px" y1="0" x1="144" y2="44" transform="translate(0 0)translate(0 10)translate(22 -10)translate(0 20)translate(154 0)translate(22 0)translate(0 20)translate(23 23)" x2="144"/><line stroke="white" class="rightline.full" stroke-width="2px" y1="0" x1="142" y2="44" transform="translate(0 0)translate(0 10)translate(22 -10)translate(0 20)translate(154 0)translate(22 0)translate(0 20)translate(23 23)" x2="142"/><line stroke="black" class="topline.full" stroke-width="2px" y1="0" x1="0" y2="0" transform="translate(0 0)translate(0 10)translate(22 -10)translate(0 20)translate(154 0)translate(22 0)translate(0 20)translate(23 23)" x2="144"/><path fill="none" stroke="darkgrey" class="v_connector_in" d="M -22,32 C 0,32 -22,32 0 32" transform="translate(22 -10)translate(0 20)translate(154 0)translate(22 0)translate(0 20)translate(23 23)"/><path fill="none" stroke="darkgrey" class="v_connector_out" d="M 166,32 C 144,32 166,32 144 32" transform="translate(22 -10)translate(0 20)translate(154 0)translate(22 0)translate(0 20)translate(23 23)"/><rect fill="none" stroke="none" x="0" class="textbox" width="144" y="0" transform="translate(0 0)translate(0 64)translate(22 -10)translate(0 20)translate(154 0)translate(22 0)translate(0 20)translate(23 23)" height="44"/><text fill="black" dominant-baseline="central" x="72" y="22" transform="translate(0 0)translate(0 64)translate(22 -10)translate(0 20)translate(154 0)translate(22 0)translate(0 20)translate(23 23)" text-anchor="middle">swim</text><line stroke="black" class="leftline.half" stroke-width="2px" y1="0" x1="0" y2="22" transform="translate(0 0)translate(0 64)translate(22 -10)translate(0 20)translate(154 0)translate(22 0)translate(0 20)translate(23 23)" x2="0"/><line stroke="black" class="rightline.full" stroke-width="2px" y1="0" x1="144" y2="44" transform="translate(0 0)translate(0 64)translate(22 -10)translate(0 20)translate(154 0)translate(22 0)translate(0 20)translate(23 23)" x2="144"/><line stroke="white" class="rightline.full" stroke-width="2px" y1="0" x1="142" y2="44" transform="translate(0 0)translate(0 64)translate(22 -10)translate(0 20)translate(154 0)translate(22 0)translate(0 20)translate(23 23)" x2="142"/><path fill="none" stroke="darkgrey" class="v_connector_in" d="M -22,32 C 0,32 -22,86 0 86" transform="translate(22 -10)translate(0 20)translate(154 0)translate(22 0)translate(0 20)translate(23 23)"/><path fill="none" stroke="darkgrey" class="v_connector_out" d="M 166,32 C 144,32 166,86 144 86" transform="translate(22 -10)translate(0 20)translate(154 0)translate(22 0)translate(0 20)translate(23 23)"/><text dominant-baseline="hanging" x="78" transform="translate(16 0)translate(154 0)translate(22 0)translate(0 20)translate(23 23)" text-anchor="middle">either</text><path fill="none" stroke="darkgrey" class="h_connector" d="M 144,22 c 5,0 5,20 10 20" transform="translate(22 0)translate(0 20)translate(23 23)"/><rect fill="darkgrey" stroke="none" x="0" class="textbox" width="150" y="0" transform="translate(0 0)translate(0 10)translate(22 -10)translate(0 20)translate(352 0)translate(22 0)translate(0 20)translate(23 23)" height="44"/><text fill="white" dominant-baseline="central" x="75" y="22" transform="translate(0 0)translate(0 10)translate(22 -10)translate(0 20)translate(352 0)translate(22 0)translate(0 20)translate(23 23)" text-anchor="middle">drink</text><line stroke="black" class="leftline.half" stroke-width="2px" y1="0" x1="0" y2="22" transform="translate(0 0)translate(0 10)translate(22 -10)translate(0 20)translate(352 0)translate(22 0)translate(0 20)translate(23 23)" x2="0"/><line stroke="black" class="rightline.half" stroke-width="2px" y1="0" x1="150" y2="22" transform="translate(0 0)translate(0 10)translate(22 -10)translate(0 20)translate(352 0)translate(22 0)translate(0 20)translate(23 23)" x2="150"/><line stroke="black" class="topline.full" stroke-width="2px" y1="0" x1="0" y2="0" transform="translate(0 0)translate(0 10)translate(22 -10)translate(0 20)translate(352 0)translate(22 0)translate(0 20)translate(23 23)" x2="150"/><path fill="none" stroke="darkgrey" class="v_connector_in" d="M -22,32 C 0,32 -22,32 0 32" transform="translate(22 -10)translate(0 20)translate(352 0)translate(22 0)translate(0 20)translate(23 23)"/><path fill="none" stroke="darkgrey" class="v_connector_out" d="M 172,32 C 150,32 172,32 150 32" transform="translate(22 -10)translate(0 20)translate(352 0)translate(22 0)translate(0 20)translate(23 23)"/><rect fill="darkgrey" stroke="none" x="0" class="textbox" width="138" y="0" transform="translate(6 0)translate(0 64)translate(22 -10)translate(0 20)translate(352 0)translate(22 0)translate(0 20)translate(23 23)" height="44"/><text fill="white" dominant-baseline="central" x="69" y="22" transform="translate(6 0)translate(0 64)translate(22 -10)translate(0 20)translate(352 0)translate(22 0)translate(0 20)translate(23 23)" text-anchor="middle">eat</text><line stroke="black" class="leftline.full" stroke-width="2px" y1="0" x1="0" y2="44" transform="translate(6 0)translate(0 64)translate(22 -10)translate(0 20)translate(352 0)translate(22 0)translate(0 20)translate(23 23)" x2="0"/><path fill="none" stroke="darkgrey" class="v_connector_in" d="M -22,32 C 0,32 -22,86 6 86" transform="translate(22 -10)translate(0 20)translate(352 0)translate(22 0)translate(0 20)translate(23 23)"/><path fill="none" stroke="darkgrey" class="v_connector_out" d="M 172,32 C 150,32 172,86 144 86" transform="translate(22 -10)translate(0 20)translate(352 0)translate(22 0)translate(0 20)translate(23 23)"/><text dominant-baseline="hanging" x="78" transform="translate(19 0)translate(352 0)translate(22 0)translate(0 20)translate(23 23)" text-anchor="middle">either</text><path fill="none" stroke="darkgrey" class="h_connector" d="M 342,42 c 5,0 5,0 10 0" transform="translate(22 0)translate(0 20)translate(23 23)"/><text dominant-baseline="hanging" x="81" transform="translate(214 0)translate(23 23)" text-anchor="middle">all of:</text></svg>
