<?xml version="1.0" encoding="UTF-8"?>
<!DOCTYPE svg PUBLIC "-//W3C//DTD SVG 1.1//EN"
    "http://www.w3.org/Graphics/SVG/1.1/DTD/svg11.dtd"><svg xmlns="http://www.w3.org/2000/svg" height="67" xmlns:xlink="http://www.w3.org/1999/xlink" version="1.11.1" width="805"><rect height="44" fill="lightgrey" class="textbox" y="0" transform="translate(22 0)translate(23 23)" width="108" stroke="none" x="0"/><text fill="white" text-anchor="middle" y="22" transform="translate(22 0)translate(23 23)" dominant-baseline="central" x="54">x</text><rect height="44" fill="lightgrey" class="textbox" y="0" transform="translate(118 0)translate(22 0)translate(23 23)" width="132" stroke="none" x="0"/><text fill="white" text-anchor="middle" y="22" transform="translate(118 0)translate(22 0)translate(23 23)" dominant-baseline="central" x="66">owner p c</text><path fill="none" class="h_connector" transform="translate(22 0)translate(23 23)" d="M 108,22 c 5,0 5,0 10 0" stroke="green"/><rect height="44" fill="lightgrey" class="textbox" y="0" transform="translate(260 0)translate(22 0)translate(23 23)" width="141" stroke="none" x="0"/><text fill="white" text-anchor="middle" y="22" transform="translate(260 0)translate(22 0)translate(23 23)" dominant-baseline="central" x="70">profitable c</text><path fill="none" class="h_connector" transform="translate(22 0)translate(23 23)" d="M 250,22 c 5,0 5,0 10 0" stroke="green"/><rect height="44" fill="lightgrey" class="textbox" y="0" transform="translate(411 0)translate(22 0)translate(23 23)" width="132" stroke="none" x="0"/><text fill="white" text-anchor="middle" y="22" transform="translate(411 0)translate(22 0)translate(23 23)" dominant-baseline="central" x="66">hasHQ c x</text><path fill="none" class="h_connector" transform="translate(22 0)translate(23 23)" d="M 401,22 c 5,0 5,0 10 0" stroke="green"/><rect height="44" fill="lightgrey" class="textbox" y="0" transform="translate(553 0)translate(22 0)translate(23 23)" width="141" stroke="none" x="0"/><text fill="white" text-anchor="middle" y="22" transform="translate(553 0)translate(22 0)translate(23 23)" dominant-baseline="central" x="70">isTaxHaven x</text><line y1="0" class="rightline.full" transform="translate(553 0)translate(22 0)translate(23 23)" x2="141" stroke="black" y2="44" x1="141"/><path fill="none" class="h_connector" transform="translate(22 0)translate(23 23)" d="M 543,22 c 5,0 5,0 10 0" stroke="green"/></svg>