<?xml version="1.0" encoding="UTF-8" standalone="no"?>
<!DOCTYPE svg PUBLIC "-//W3C//DTD SVG 1.1//EN"
 "http://www.w3.org/Graphics/SVG/1.1/DTD/svg11.dtd">
<!-- Generated by graphviz version 2.43.0 (0)
 -->
<!-- Title: deps Pages: 1 -->
<svg width="1123pt" height="315pt"
 viewBox="0.00 0.00 1123.00 315.00" xmlns="http://www.w3.org/2000/svg" xmlns:xlink="http://www.w3.org/1999/xlink">
<g id="graph0" class="graph" transform="scale(1 1) rotate(0) translate(4 311)">
<title>deps</title>
<polygon fill="white" stroke="transparent" points="-4,4 -4,-311 1119,-311 1119,4 -4,4"/>
<g id="clust1" class="cluster">
<title>cluster_1</title>
<polygon fill="none" stroke="black" points="8,-8 8,-299 1107,-299 1107,-8 8,-8"/>
<text text-anchor="middle" x="557.5" y="-283.8" font-family="Times,serif" font-size="14.00">src/LS/XPile/CoreL4.hs</text>
</g>
<!-- sfl4ToCorel4Rule -->
<g id="node1" class="node">
<title>sfl4ToCorel4Rule</title>
<ellipse fill="#8dd3c7" stroke="#8dd3c7" cx="832" cy="-178" rx="73.39" ry="18"/>
<text text-anchor="middle" x="832" y="-174.3" font-family="Times,serif" font-size="14.00">sfl4ToCorel4Rule</text>
</g>
<!-- sfl4Dummy -->
<g id="node5" class="node">
<title>sfl4Dummy</title>
<ellipse fill="#8dd3c7" stroke="#8dd3c7" cx="994" cy="-106" rx="53.89" ry="18"/>
<text text-anchor="middle" x="994" y="-102.3" font-family="Times,serif" font-size="14.00">sfl4Dummy</text>
</g>
<!-- sfl4ToCorel4Rule&#45;&gt;sfl4Dummy -->
<g id="edge16" class="edge">
<title>sfl4ToCorel4Rule&#45;&gt;sfl4Dummy</title>
<path fill="none" stroke="black" d="M866.75,-161.98C892.01,-151.07 926.28,-136.26 952.9,-124.76"/>
<polygon fill="black" stroke="black" points="954.53,-127.87 962.33,-120.69 951.76,-121.44 954.53,-127.87"/>
</g>
<!-- sfl4ToCorel4Program -->
<g id="node2" class="node">
<title>sfl4ToCorel4Program</title>
<ellipse fill="#8dd3c7" stroke="#8dd3c7" cx="1011" cy="-178" rx="87.99" ry="18"/>
<text text-anchor="middle" x="1011" y="-174.3" font-family="Times,serif" font-size="14.00">sfl4ToCorel4Program</text>
</g>
<!-- sfl4ToCorel4Program&#45;&gt;sfl4Dummy -->
<g id="edge15" class="edge">
<title>sfl4ToCorel4Program&#45;&gt;sfl4Dummy</title>
<path fill="none" stroke="black" d="M1006.8,-159.7C1004.9,-151.9 1002.62,-142.51 1000.52,-133.83"/>
<polygon fill="black" stroke="black" points="1003.92,-133 998.15,-124.1 997.11,-134.65 1003.92,-133"/>
</g>
<!-- sfl4ToCorel4 -->
<g id="node3" class="node">
<title>sfl4ToCorel4</title>
<ellipse fill="#8dd3c7" stroke="#8dd3c7" cx="404" cy="-250" rx="57.39" ry="18"/>
<text text-anchor="middle" x="404" y="-246.3" font-family="Times,serif" font-size="14.00">sfl4ToCorel4</text>
</g>
<!-- prettyDecls -->
<g id="node11" class="node">
<title>prettyDecls</title>
<ellipse fill="#8dd3c7" stroke="#8dd3c7" cx="143" cy="-178" rx="51.19" ry="18"/>
<text text-anchor="middle" x="143" y="-174.3" font-family="Times,serif" font-size="14.00">prettyDecls</text>
</g>
<!-- sfl4ToCorel4&#45;&gt;prettyDecls -->
<g id="edge14" class="edge">
<title>sfl4ToCorel4&#45;&gt;prettyDecls</title>
<path fill="none" stroke="black" d="M361.2,-237.96C320.47,-227.39 257.48,-210.9 203,-196 199.17,-194.95 195.21,-193.86 191.24,-192.75"/>
<polygon fill="black" stroke="black" points="191.95,-189.32 181.38,-189.99 190.06,-196.06 191.95,-189.32"/>
</g>
<!-- prettyClasses -->
<g id="node12" class="node">
<title>prettyClasses</title>
<ellipse fill="#8dd3c7" stroke="#8dd3c7" cx="270" cy="-178" rx="57.69" ry="18"/>
<text text-anchor="middle" x="270" y="-174.3" font-family="Times,serif" font-size="14.00">prettyClasses</text>
</g>
<!-- sfl4ToCorel4&#45;&gt;prettyClasses -->
<g id="edge13" class="edge">
<title>sfl4ToCorel4&#45;&gt;prettyClasses</title>
<path fill="none" stroke="black" d="M375.58,-234.15C355.68,-223.76 328.9,-209.77 307.29,-198.48"/>
<polygon fill="black" stroke="black" points="308.86,-195.35 298.38,-193.82 305.62,-201.56 308.86,-195.35"/>
</g>
<!-- prettyBoilerplate -->
<g id="node13" class="node">
<title>prettyBoilerplate</title>
<ellipse fill="#8dd3c7" stroke="#8dd3c7" cx="538" cy="-178" rx="70.39" ry="18"/>
<text text-anchor="middle" x="538" y="-174.3" font-family="Times,serif" font-size="14.00">prettyBoilerplate</text>
</g>
<!-- sfl4ToCorel4&#45;&gt;prettyBoilerplate -->
<g id="edge12" class="edge">
<title>sfl4ToCorel4&#45;&gt;prettyBoilerplate</title>
<path fill="none" stroke="black" d="M432.42,-234.15C451.83,-224.02 477.78,-210.46 499.11,-199.32"/>
<polygon fill="black" stroke="black" points="500.99,-202.28 508.23,-194.55 497.75,-196.08 500.99,-202.28"/>
</g>
<!-- directToCore -->
<g id="node17" class="node">
<title>directToCore</title>
<ellipse fill="#8dd3c7" stroke="#8dd3c7" cx="683" cy="-178" rx="57.39" ry="18"/>
<text text-anchor="middle" x="683" y="-174.3" font-family="Times,serif" font-size="14.00">directToCore</text>
</g>
<!-- sfl4ToCorel4&#45;&gt;directToCore -->
<g id="edge11" class="edge">
<title>sfl4ToCorel4&#45;&gt;directToCore</title>
<path fill="none" stroke="black" d="M447.68,-238.24C490.75,-227.61 558.45,-210.83 617,-196 621.38,-194.89 625.91,-193.74 630.47,-192.57"/>
<polygon fill="black" stroke="black" points="631.59,-195.9 640.41,-190.03 629.85,-189.12 631.59,-195.9"/>
</g>
<!-- sfl4ToBabyl4 -->
<g id="node4" class="node">
<title>sfl4ToBabyl4</title>
<ellipse fill="#8dd3c7" stroke="#8dd3c7" cx="1011" cy="-250" rx="58.49" ry="18"/>
<text text-anchor="middle" x="1011" y="-246.3" font-family="Times,serif" font-size="14.00">sfl4ToBabyl4</text>
</g>
<!-- sfl4ToBabyl4&#45;&gt;sfl4ToCorel4Program -->
<g id="edge10" class="edge">
<title>sfl4ToBabyl4&#45;&gt;sfl4ToCorel4Program</title>
<path fill="none" stroke="black" d="M1011,-231.7C1011,-223.98 1011,-214.71 1011,-206.11"/>
<polygon fill="black" stroke="black" points="1014.5,-206.1 1011,-196.1 1007.5,-206.1 1014.5,-206.1"/>
</g>
<!-- prettyTypedMulti -->
<g id="node6" class="node">
<title>prettyTypedMulti</title>
<ellipse fill="#8dd3c7" stroke="#8dd3c7" cx="833" cy="-106" rx="73.39" ry="18"/>
<text text-anchor="middle" x="833" y="-102.3" font-family="Times,serif" font-size="14.00">prettyTypedMulti</text>
</g>
<!-- prettyRuleName -->
<g id="node7" class="node">
<title>prettyRuleName</title>
<ellipse fill="#8dd3c7" stroke="#8dd3c7" cx="672" cy="-106" rx="69.59" ry="18"/>
<text text-anchor="middle" x="672" y="-102.3" font-family="Times,serif" font-size="14.00">prettyRuleName</text>
</g>
<!-- prettyFacts -->
<g id="node8" class="node">
<title>prettyFacts</title>
<ellipse fill="#8dd3c7" stroke="#8dd3c7" cx="524" cy="-106" rx="50.09" ry="18"/>
<text text-anchor="middle" x="524" y="-102.3" font-family="Times,serif" font-size="14.00">prettyFacts</text>
</g>
<!-- commentShow -->
<g id="node18" class="node">
<title>commentShow</title>
<ellipse fill="#8dd3c7" stroke="#8dd3c7" cx="398" cy="-34" rx="64.19" ry="18"/>
<text text-anchor="middle" x="398" y="-30.3" font-family="Times,serif" font-size="14.00">commentShow</text>
</g>
<!-- prettyFacts&#45;&gt;commentShow -->
<g id="edge9" class="edge">
<title>prettyFacts&#45;&gt;commentShow</title>
<path fill="none" stroke="black" d="M497.89,-90.5C479.64,-80.36 455.01,-66.67 434.77,-55.43"/>
<polygon fill="black" stroke="black" points="436.26,-52.25 425.82,-50.46 432.86,-58.37 436.26,-52.25"/>
</g>
<!-- prettyDefns -->
<g id="node9" class="node">
<title>prettyDefns</title>
<ellipse fill="#8dd3c7" stroke="#8dd3c7" cx="398" cy="-178" rx="51.99" ry="18"/>
<text text-anchor="middle" x="398" y="-174.3" font-family="Times,serif" font-size="14.00">prettyDefns</text>
</g>
<!-- prettyDefnCs -->
<g id="node10" class="node">
<title>prettyDefnCs</title>
<ellipse fill="#8dd3c7" stroke="#8dd3c7" cx="398" cy="-106" rx="57.69" ry="18"/>
<text text-anchor="middle" x="398" y="-102.3" font-family="Times,serif" font-size="14.00">prettyDefnCs</text>
</g>
<!-- prettyDefns&#45;&gt;prettyDefnCs -->
<g id="edge8" class="edge">
<title>prettyDefns&#45;&gt;prettyDefnCs</title>
<path fill="none" stroke="black" d="M398,-159.7C398,-151.98 398,-142.71 398,-134.11"/>
<polygon fill="black" stroke="black" points="401.5,-134.1 398,-124.1 394.5,-134.1 401.5,-134.1"/>
</g>
<!-- prettyDefnCs&#45;&gt;commentShow -->
<g id="edge7" class="edge">
<title>prettyDefnCs&#45;&gt;commentShow</title>
<path fill="none" stroke="black" d="M398,-87.7C398,-79.98 398,-70.71 398,-62.11"/>
<polygon fill="black" stroke="black" points="401.5,-62.1 398,-52.1 394.5,-62.1 401.5,-62.1"/>
</g>
<!-- hc2decls -->
<g id="node16" class="node">
<title>hc2decls</title>
<ellipse fill="#8dd3c7" stroke="#8dd3c7" cx="143" cy="-106" rx="41.69" ry="18"/>
<text text-anchor="middle" x="143" y="-102.3" font-family="Times,serif" font-size="14.00">hc2decls</text>
</g>
<!-- prettyDecls&#45;&gt;hc2decls -->
<g id="edge6" class="edge">
<title>prettyDecls&#45;&gt;hc2decls</title>
<path fill="none" stroke="black" d="M143,-159.7C143,-151.98 143,-142.71 143,-134.11"/>
<polygon fill="black" stroke="black" points="146.5,-134.1 143,-124.1 139.5,-134.1 146.5,-134.1"/>
</g>
<!-- prettyClasses&#45;&gt;commentShow -->
<g id="edge5" class="edge">
<title>prettyClasses&#45;&gt;commentShow</title>
<path fill="none" stroke="black" d="M279.45,-160.16C290.43,-141.4 309.78,-110.73 331,-88 341.51,-76.75 354.51,-65.91 366.26,-56.99"/>
<polygon fill="black" stroke="black" points="368.58,-59.63 374.53,-50.87 364.41,-54 368.58,-59.63"/>
</g>
<!-- pptle -->
<g id="node14" class="node">
<title>pptle</title>
<ellipse fill="#8dd3c7" stroke="#8dd3c7" cx="45" cy="-178" rx="28.7" ry="18"/>
<text text-anchor="middle" x="45" y="-174.3" font-family="Times,serif" font-size="14.00">pptle</text>
</g>
<!-- ppCorel4 -->
<g id="node15" class="node">
<title>ppCorel4</title>
<ellipse fill="#8dd3c7" stroke="#8dd3c7" cx="60" cy="-250" rx="43.59" ry="18"/>
<text text-anchor="middle" x="60" y="-246.3" font-family="Times,serif" font-size="14.00">ppCorel4</text>
</g>
<!-- ppCorel4&#45;&gt;pptle -->
<g id="edge4" class="edge">
<title>ppCorel4&#45;&gt;pptle</title>
<path fill="none" stroke="black" d="M56.37,-232.05C54.7,-224.26 52.68,-214.82 50.8,-206.08"/>
<polygon fill="black" stroke="black" points="54.22,-205.32 48.7,-196.28 47.37,-206.79 54.22,-205.32"/>
</g>
<!-- directToCore&#45;&gt;prettyTypedMulti -->
<g id="edge3" class="edge">
<title>directToCore&#45;&gt;prettyTypedMulti</title>
<path fill="none" stroke="black" d="M713.72,-162.67C736.14,-152.2 766.78,-137.9 791.4,-126.41"/>
<polygon fill="black" stroke="black" points="792.93,-129.56 800.51,-122.16 789.97,-123.22 792.93,-129.56"/>
</g>
<!-- directToCore&#45;&gt;prettyRuleName -->
<g id="edge2" class="edge">
<title>directToCore&#45;&gt;prettyRuleName</title>
<path fill="none" stroke="black" d="M680.28,-159.7C679.07,-151.98 677.61,-142.71 676.26,-134.11"/>
<polygon fill="black" stroke="black" points="679.7,-133.44 674.69,-124.1 672.78,-134.53 679.7,-133.44"/>
</g>
<!-- directToCore&#45;&gt;prettyDefnCs -->
<g id="edge1" class="edge">
<title>directToCore&#45;&gt;prettyDefnCs</title>
<path fill="none" stroke="black" d="M640.43,-165.9C632.64,-163.91 624.58,-161.87 617,-160 549.6,-143.34 532.43,-140.54 465,-124 460.43,-122.88 455.69,-121.7 450.94,-120.52"/>
<polygon fill="black" stroke="black" points="451.78,-117.12 441.22,-118.07 450.07,-123.91 451.78,-117.12"/>
</g>
</g>
</svg>
