<?xml version="1.0" encoding="UTF-8" standalone="no"?>
<!DOCTYPE svg PUBLIC "-//W3C//DTD SVG 1.1//EN"
 "http://www.w3.org/Graphics/SVG/1.1/DTD/svg11.dtd">
<!-- Generated by graphviz version 2.49.3 (20211023.0002)
 -->
<!-- Title: imports Pages: 1 -->
<svg width="2255pt" height="620pt"
 viewBox="0.00 0.00 2255.29 620.00" xmlns="http://www.w3.org/2000/svg" xmlns:xlink="http://www.w3.org/1999/xlink">
<g id="graph0" class="graph" transform="scale(1 1) rotate(0) translate(4 616)">
<title>imports</title>
<polygon fill="white" stroke="transparent" points="-4,4 -4,-616 2251.29,-616 2251.29,4 -4,4"/>
<!-- LS.Tokens -->
<g id="node1" class="node">
<title>LS.Tokens</title>
<ellipse fill="none" stroke="black" cx="911.84" cy="-234" rx="50.09" ry="18"/>
<text text-anchor="middle" x="911.84" y="-230.3" font-family="Times,serif" font-size="14.00">LS.Tokens</text>
</g>
<!-- LS.Types -->
<g id="node2" class="node">
<title>LS.Types</title>
<ellipse fill="none" stroke="black" cx="1027.84" cy="-90" rx="45.49" ry="18"/>
<text text-anchor="middle" x="1027.84" y="-86.3" font-family="Times,serif" font-size="14.00">LS.Types</text>
</g>
<!-- LS.Tokens&#45;&gt;LS.Types -->
<g id="edge1" class="edge">
<title>LS.Tokens&#45;&gt;LS.Types</title>
<path fill="none" stroke="black" d="M922.69,-216.36C934.88,-198.05 955.62,-168.02 975.84,-144 984.41,-133.83 994.51,-123.25 1003.52,-114.25"/>
<polygon fill="black" stroke="black" points="1006.11,-116.61 1010.78,-107.1 1001.2,-111.62 1006.11,-116.61"/>
</g>
<!-- LS.Rule -->
<g id="node3" class="node">
<title>LS.Rule</title>
<ellipse fill="none" stroke="black" cx="1232.84" cy="-162" rx="40.89" ry="18"/>
<text text-anchor="middle" x="1232.84" y="-158.3" font-family="Times,serif" font-size="14.00">LS.Rule</text>
</g>
<!-- LS.Tokens&#45;&gt;LS.Rule -->
<g id="edge2" class="edge">
<title>LS.Tokens&#45;&gt;LS.Rule</title>
<path fill="none" stroke="black" d="M953.48,-223.92C1013.58,-210.81 1124.27,-186.68 1186.76,-173.05"/>
<polygon fill="black" stroke="black" points="1187.7,-176.43 1196.73,-170.88 1186.21,-169.59 1187.7,-176.43"/>
</g>
<!-- LS.Error -->
<g id="node4" class="node">
<title>LS.Error</title>
<ellipse fill="none" stroke="black" cx="755.84" cy="-162" rx="42.79" ry="18"/>
<text text-anchor="middle" x="755.84" y="-158.3" font-family="Times,serif" font-size="14.00">LS.Error</text>
</g>
<!-- LS.Tokens&#45;&gt;LS.Error -->
<g id="edge3" class="edge">
<title>LS.Tokens&#45;&gt;LS.Error</title>
<path fill="none" stroke="black" d="M881.77,-219.5C856.5,-208.17 820.28,-191.92 793.17,-179.75"/>
<polygon fill="black" stroke="black" points="794.55,-176.53 783.99,-175.63 791.68,-182.92 794.55,-176.53"/>
</g>
<!-- LS.BasicTypes -->
<g id="node29" class="node">
<title>LS.BasicTypes</title>
<ellipse fill="none" stroke="black" cx="912.84" cy="-18" rx="65.79" ry="18"/>
<text text-anchor="middle" x="912.84" y="-14.3" font-family="Times,serif" font-size="14.00">LS.BasicTypes</text>
</g>
<!-- LS.Types&#45;&gt;LS.BasicTypes -->
<g id="edge68" class="edge">
<title>LS.Types&#45;&gt;LS.BasicTypes</title>
<path fill="none" stroke="black" d="M1004.02,-74.5C987.62,-64.52 965.59,-51.1 947.28,-39.96"/>
<polygon fill="black" stroke="black" points="949,-36.91 938.64,-34.7 945.36,-42.89 949,-36.91"/>
</g>
<!-- LS.Rule&#45;&gt;LS.Types -->
<g id="edge35" class="edge">
<title>LS.Rule&#45;&gt;LS.Types</title>
<path fill="none" stroke="black" d="M1201.26,-150.22C1166.27,-138.27 1109.64,-118.93 1070.67,-105.62"/>
<polygon fill="black" stroke="black" points="1071.76,-102.3 1061.16,-102.38 1069.5,-108.92 1071.76,-102.3"/>
</g>
<!-- LS.Error&#45;&gt;LS.BasicTypes -->
<g id="edge47" class="edge">
<title>LS.Error&#45;&gt;LS.BasicTypes</title>
<path fill="none" stroke="black" d="M773.25,-145.26C800.77,-120.36 854.53,-71.74 886.71,-42.64"/>
<polygon fill="black" stroke="black" points="889.33,-44.99 894.4,-35.69 884.63,-39.8 889.33,-44.99"/>
</g>
<!-- LS.XPile.Uppaal -->
<g id="node5" class="node">
<title>LS.XPile.Uppaal</title>
<ellipse fill="none" stroke="black" cx="638.84" cy="-522" rx="72.59" ry="18"/>
<text text-anchor="middle" x="638.84" y="-518.3" font-family="Times,serif" font-size="14.00">LS.XPile.Uppaal</text>
</g>
<!-- LS.XPile.Uppaal&#45;&gt;LS.Types -->
<g id="edge5" class="edge">
<title>LS.XPile.Uppaal&#45;&gt;LS.Types</title>
<path fill="none" stroke="black" d="M638.84,-503.95C638.84,-477.29 638.84,-424.11 638.84,-379 638.84,-379 638.84,-379 638.84,-233 638.84,-190.16 642.09,-170.37 675.84,-144 720.95,-108.77 885.05,-96.77 972.34,-92.83"/>
<polygon fill="black" stroke="black" points="972.76,-96.32 982.6,-92.39 972.45,-89.33 972.76,-96.32"/>
</g>
<!-- LS.XPile.Uppaal&#45;&gt;LS.Rule -->
<g id="edge6" class="edge">
<title>LS.XPile.Uppaal&#45;&gt;LS.Rule</title>
<path fill="none" stroke="black" d="M702.29,-513.14C765.56,-504.61 865.26,-489.3 949.84,-468 1047.16,-443.5 1094.2,-468.25 1163.84,-396 1192.6,-366.17 1217.85,-244.97 1228.04,-190.15"/>
<polygon fill="black" stroke="black" points="1231.52,-190.59 1229.88,-180.12 1224.64,-189.33 1231.52,-190.59"/>
</g>
<!-- L4.Syntax -->
<g id="node6" class="node">
<title>L4.Syntax</title>
<ellipse fill="none" stroke="black" cx="349.84" cy="-450" rx="48.19" ry="18"/>
<text text-anchor="middle" x="349.84" y="-446.3" font-family="Times,serif" font-size="14.00">L4.Syntax</text>
</g>
<!-- LS.XPile.Uppaal&#45;&gt;L4.Syntax -->
<g id="edge4" class="edge">
<title>LS.XPile.Uppaal&#45;&gt;L4.Syntax</title>
<path fill="none" stroke="black" d="M585.41,-509.69C538.45,-499.52 468.36,-483.8 407.84,-468 403.96,-466.99 399.94,-465.89 395.91,-464.77"/>
<polygon fill="black" stroke="black" points="396.53,-461.31 385.95,-461.94 394.61,-468.04 396.53,-461.31"/>
</g>
<!-- L4.PrintProg -->
<g id="node7" class="node">
<title>L4.PrintProg</title>
<ellipse fill="none" stroke="black" cx="57.84" cy="-450" rx="57.69" ry="18"/>
<text text-anchor="middle" x="57.84" y="-446.3" font-family="Times,serif" font-size="14.00">L4.PrintProg</text>
</g>
<!-- LS.XPile.Uppaal&#45;&gt;L4.PrintProg -->
<g id="edge7" class="edge">
<title>LS.XPile.Uppaal&#45;&gt;L4.PrintProg</title>
<path fill="none" stroke="black" d="M573.51,-513.88C545.05,-510.8 511.3,-507.18 480.84,-504 322.67,-487.49 281.46,-495.63 124.84,-468 119.8,-467.11 114.58,-466.05 109.38,-464.89"/>
<polygon fill="black" stroke="black" points="109.99,-461.44 99.45,-462.57 108.4,-468.25 109.99,-461.44"/>
</g>
<!-- L4.SyntaxManipulation -->
<g id="node8" class="node">
<title>L4.SyntaxManipulation</title>
<ellipse fill="none" stroke="black" cx="513.84" cy="-450" rx="97.48" ry="18"/>
<text text-anchor="middle" x="513.84" y="-446.3" font-family="Times,serif" font-size="14.00">L4.SyntaxManipulation</text>
</g>
<!-- LS.XPile.Uppaal&#45;&gt;L4.SyntaxManipulation -->
<g id="edge8" class="edge">
<title>LS.XPile.Uppaal&#45;&gt;L4.SyntaxManipulation</title>
<path fill="none" stroke="black" d="M610.79,-505.29C593.47,-495.59 571.02,-483.02 552.08,-472.41"/>
<polygon fill="black" stroke="black" points="553.54,-469.22 543.11,-467.39 550.12,-475.33 553.54,-469.22"/>
</g>
<!-- LS.XPile.Purescript -->
<g id="node9" class="node">
<title>LS.XPile.Purescript</title>
<ellipse fill="none" stroke="black" cx="1614.84" cy="-594" rx="83.39" ry="18"/>
<text text-anchor="middle" x="1614.84" y="-590.3" font-family="Times,serif" font-size="14.00">LS.XPile.Purescript</text>
</g>
<!-- LS -->
<g id="node10" class="node">
<title>LS</title>
<ellipse fill="none" stroke="black" cx="1138.84" cy="-522" rx="27" ry="18"/>
<text text-anchor="middle" x="1138.84" y="-518.3" font-family="Times,serif" font-size="14.00">LS</text>
</g>
<!-- LS.XPile.Purescript&#45;&gt;LS -->
<g id="edge9" class="edge">
<title>LS.XPile.Purescript&#45;&gt;LS</title>
<path fill="none" stroke="black" d="M1555.57,-581.33C1544.71,-579.4 1533.46,-577.53 1522.84,-576 1368.94,-553.86 1324.61,-581.79 1174.84,-540 1172.9,-539.46 1170.93,-538.82 1168.96,-538.11"/>
<polygon fill="black" stroke="black" points="1169.9,-534.71 1159.32,-534.13 1167.23,-541.18 1169.9,-534.71"/>
</g>
<!-- LS.NLP.NLG -->
<g id="node11" class="node">
<title>LS.NLP.NLG</title>
<ellipse fill="none" stroke="black" cx="2071.84" cy="-522" rx="61.19" ry="18"/>
<text text-anchor="middle" x="2071.84" y="-518.3" font-family="Times,serif" font-size="14.00">LS.NLP.NLG</text>
</g>
<!-- LS.XPile.Purescript&#45;&gt;LS.NLP.NLG -->
<g id="edge10" class="edge">
<title>LS.XPile.Purescript&#45;&gt;LS.NLP.NLG</title>
<path fill="none" stroke="black" d="M1674.64,-581.4C1685.34,-579.48 1696.41,-577.6 1706.84,-576 1837.4,-555.99 1871.89,-563.63 2001.84,-540 2006.94,-539.07 2012.23,-538 2017.5,-536.85"/>
<polygon fill="black" stroke="black" points="2018.59,-540.2 2027.57,-534.58 2017.05,-533.37 2018.59,-540.2"/>
</g>
<!-- LS.NLP.NL4Transformations -->
<g id="node12" class="node">
<title>LS.NLP.NL4Transformations</title>
<ellipse fill="none" stroke="black" cx="1874.84" cy="-522" rx="118.08" ry="18"/>
<text text-anchor="middle" x="1874.84" y="-518.3" font-family="Times,serif" font-size="14.00">LS.NLP.NL4Transformations</text>
</g>
<!-- LS.XPile.Purescript&#45;&gt;LS.NLP.NL4Transformations -->
<g id="edge11" class="edge">
<title>LS.XPile.Purescript&#45;&gt;LS.NLP.NL4Transformations</title>
<path fill="none" stroke="black" d="M1664.98,-579.5C1706.13,-568.42 1764.73,-552.65 1809.55,-540.58"/>
<polygon fill="black" stroke="black" points="1810.72,-543.89 1819.47,-537.91 1808.9,-537.13 1810.72,-543.89"/>
</g>
<!-- LS.Interpreter -->
<g id="node13" class="node">
<title>LS.Interpreter</title>
<ellipse fill="none" stroke="black" cx="1376.84" cy="-450" rx="61.99" ry="18"/>
<text text-anchor="middle" x="1376.84" y="-446.3" font-family="Times,serif" font-size="14.00">LS.Interpreter</text>
</g>
<!-- LS.XPile.Purescript&#45;&gt;LS.Interpreter -->
<g id="edge12" class="edge">
<title>LS.XPile.Purescript&#45;&gt;LS.Interpreter</title>
<path fill="none" stroke="black" d="M1553.98,-581.7C1470.61,-566.22 1331.07,-540.27 1330.84,-540 1314.36,-520.16 1332.42,-493.43 1350.52,-474.46"/>
<polygon fill="black" stroke="black" points="1353.05,-476.89 1357.66,-467.35 1348.1,-471.93 1353.05,-476.89"/>
</g>
<!-- LS&#45;&gt;LS.Types -->
<g id="edge59" class="edge">
<title>LS&#45;&gt;LS.Types</title>
<path fill="none" stroke="black" d="M1112.04,-519.45C1036.8,-514.76 825.22,-499.07 763.84,-468 714.49,-443.02 676.84,-434.32 676.84,-379 676.84,-379 676.84,-379 676.84,-233 676.84,-191.66 672.75,-171.23 703.84,-144 742.96,-109.75 890.89,-97.4 972.66,-93.13"/>
<polygon fill="black" stroke="black" points="972.96,-96.62 982.78,-92.62 972.62,-89.63 972.96,-96.62"/>
</g>
<!-- LS&#45;&gt;LS.Rule -->
<g id="edge60" class="edge">
<title>LS&#45;&gt;LS.Rule</title>
<path fill="none" stroke="black" d="M1150.39,-505.4C1166.54,-482.65 1195.41,-438.45 1208.84,-396 1231.53,-324.34 1233.97,-234.69 1233.57,-190.39"/>
<polygon fill="black" stroke="black" points="1237.07,-190.09 1233.42,-180.14 1230.07,-190.2 1237.07,-190.09"/>
</g>
<!-- LS&#45;&gt;LS.Error -->
<g id="edge63" class="edge">
<title>LS&#45;&gt;LS.Error</title>
<path fill="none" stroke="black" d="M1112.32,-517.98C1019.5,-506.69 714.84,-463.23 714.84,-379 714.84,-379 714.84,-379 714.84,-305 714.84,-263.41 731.28,-217.56 743.34,-189.51"/>
<polygon fill="black" stroke="black" points="746.69,-190.59 747.55,-180.03 740.29,-187.75 746.69,-190.59"/>
</g>
<!-- LS&#45;&gt;LS.Interpreter -->
<g id="edge62" class="edge">
<title>LS&#45;&gt;LS.Interpreter</title>
<path fill="none" stroke="black" d="M1159.89,-510.27C1164.73,-508.02 1169.91,-505.8 1174.84,-504 1201.44,-494.33 1270.7,-476.75 1320.71,-464.5"/>
<polygon fill="black" stroke="black" points="1321.56,-467.89 1330.44,-462.12 1319.9,-461.09 1321.56,-467.89"/>
</g>
<!-- LS.PrettyPrinter -->
<g id="node16" class="node">
<title>LS.PrettyPrinter</title>
<ellipse fill="none" stroke="black" cx="1368.84" cy="-378" rx="70.39" ry="18"/>
<text text-anchor="middle" x="1368.84" y="-374.3" font-family="Times,serif" font-size="14.00">LS.PrettyPrinter</text>
</g>
<!-- LS&#45;&gt;LS.PrettyPrinter -->
<g id="edge64" class="edge">
<title>LS&#45;&gt;LS.PrettyPrinter</title>
<path fill="none" stroke="black" d="M1157.98,-509.22C1175.41,-498.48 1201.86,-482.18 1224.84,-468 1262.36,-444.85 1305.34,-418.28 1334.51,-400.24"/>
<polygon fill="black" stroke="black" points="1336.43,-403.16 1343.1,-394.93 1332.75,-397.21 1336.43,-403.16"/>
</g>
<!-- LS.Lib -->
<g id="node22" class="node">
<title>LS.Lib</title>
<ellipse fill="none" stroke="black" cx="904.84" cy="-450" rx="36.29" ry="18"/>
<text text-anchor="middle" x="904.84" y="-446.3" font-family="Times,serif" font-size="14.00">LS.Lib</text>
</g>
<!-- LS&#45;&gt;LS.Lib -->
<g id="edge58" class="edge">
<title>LS&#45;&gt;LS.Lib</title>
<path fill="none" stroke="black" d="M1114.68,-513.77C1074.48,-501.75 993.47,-477.51 944.7,-462.92"/>
<polygon fill="black" stroke="black" points="945.69,-459.57 935.11,-460.05 943.68,-466.27 945.69,-459.57"/>
</g>
<!-- LS.RelationalPredicates -->
<g id="node24" class="node">
<title>LS.RelationalPredicates</title>
<ellipse fill="none" stroke="black" cx="1030.84" cy="-378" rx="98.28" ry="18"/>
<text text-anchor="middle" x="1030.84" y="-374.3" font-family="Times,serif" font-size="14.00">LS.RelationalPredicates</text>
</g>
<!-- LS&#45;&gt;LS.RelationalPredicates -->
<g id="edge61" class="edge">
<title>LS&#45;&gt;LS.RelationalPredicates</title>
<path fill="none" stroke="black" d="M1127.08,-505.53C1108.57,-481.2 1072.46,-433.71 1050.12,-404.34"/>
<polygon fill="black" stroke="black" points="1052.77,-402.05 1043.93,-396.21 1047.2,-406.29 1052.77,-402.05"/>
</g>
<!-- LS.Interpreter&#45;&gt;LS.Types -->
<g id="edge54" class="edge">
<title>LS.Interpreter&#45;&gt;LS.Types</title>
<path fill="none" stroke="black" d="M1436.23,-444.83C1518.42,-435.45 1656.84,-405.11 1656.84,-307 1656.84,-307 1656.84,-307 1656.84,-233 1656.84,-115.97 1237.32,-95.38 1083.51,-91.77"/>
<polygon fill="black" stroke="black" points="1083.41,-88.27 1073.33,-91.54 1083.25,-95.26 1083.41,-88.27"/>
</g>
<!-- LS.Interpreter&#45;&gt;LS.Rule -->
<g id="edge55" class="edge">
<title>LS.Interpreter&#45;&gt;LS.Rule</title>
<path fill="none" stroke="black" d="M1407.93,-434.43C1422.91,-425.6 1439.43,-412.78 1447.84,-396 1455.02,-381.7 1453.81,-374.85 1447.84,-360 1413.39,-274.25 1318.76,-210.63 1267.28,-181.17"/>
<polygon fill="black" stroke="black" points="1268.93,-178.08 1258.5,-176.24 1265.51,-184.19 1268.93,-178.08"/>
</g>
<!-- LS.Interpreter&#45;&gt;LS.PrettyPrinter -->
<g id="edge57" class="edge">
<title>LS.Interpreter&#45;&gt;LS.PrettyPrinter</title>
<path fill="none" stroke="black" d="M1374.87,-431.7C1373.99,-423.98 1372.93,-414.71 1371.94,-406.11"/>
<polygon fill="black" stroke="black" points="1375.41,-405.64 1370.8,-396.1 1368.46,-406.44 1375.41,-405.64"/>
</g>
<!-- LS.Interpreter&#45;&gt;LS.RelationalPredicates -->
<g id="edge56" class="edge">
<title>LS.Interpreter&#45;&gt;LS.RelationalPredicates</title>
<path fill="none" stroke="black" d="M1327.64,-439.05C1269.34,-427.25 1171.66,-407.49 1104.38,-393.88"/>
<polygon fill="black" stroke="black" points="1104.77,-390.38 1094.27,-391.83 1103.38,-397.25 1104.77,-390.38"/>
</g>
<!-- LS.XPile.Markdown -->
<g id="node14" class="node">
<title>LS.XPile.Markdown</title>
<ellipse fill="none" stroke="black" cx="2160.84" cy="-594" rx="86.38" ry="18"/>
<text text-anchor="middle" x="2160.84" y="-590.3" font-family="Times,serif" font-size="14.00">LS.XPile.Markdown</text>
</g>
<!-- LS.XPile.Markdown&#45;&gt;LS.Types -->
<g id="edge14" class="edge">
<title>LS.XPile.Markdown&#45;&gt;LS.Types</title>
<path fill="none" stroke="black" d="M2160.84,-575.95C2160.84,-549.29 2160.84,-496.11 2160.84,-451 2160.84,-451 2160.84,-451 2160.84,-233 2160.84,-123.12 1310.98,-97.06 1083.36,-92.05"/>
<polygon fill="black" stroke="black" points="1083.38,-88.55 1073.31,-91.83 1083.23,-95.54 1083.38,-88.55"/>
</g>
<!-- LS.XPile.Markdown&#45;&gt;LS -->
<g id="edge13" class="edge">
<title>LS.XPile.Markdown&#45;&gt;LS</title>
<path fill="none" stroke="black" d="M2100.59,-581.05C2088.78,-579.07 2076.46,-577.26 2064.84,-576 1868.06,-554.69 1367.07,-587.21 1174.84,-540 1172.66,-539.46 1170.46,-538.79 1168.26,-538.02"/>
<polygon fill="black" stroke="black" points="1169.46,-534.73 1158.88,-534.19 1166.81,-541.21 1169.46,-534.73"/>
</g>
<!-- LS.XPile.Markdown&#45;&gt;LS.NLP.NLG -->
<g id="edge15" class="edge">
<title>LS.XPile.Markdown&#45;&gt;LS.NLP.NLG</title>
<path fill="none" stroke="black" d="M2139.75,-576.41C2127.95,-567.12 2113.07,-555.42 2100.25,-545.34"/>
<polygon fill="black" stroke="black" points="2102.2,-542.42 2092.17,-538.99 2097.87,-547.92 2102.2,-542.42"/>
</g>
<!-- LS.XPile.CoreL4 -->
<g id="node15" class="node">
<title>LS.XPile.CoreL4</title>
<ellipse fill="none" stroke="black" cx="537.84" cy="-594" rx="74.19" ry="18"/>
<text text-anchor="middle" x="537.84" y="-590.3" font-family="Times,serif" font-size="14.00">LS.XPile.CoreL4</text>
</g>
<!-- LS.XPile.CoreL4&#45;&gt;LS.Tokens -->
<g id="edge24" class="edge">
<title>LS.XPile.CoreL4&#45;&gt;LS.Tokens</title>
<path fill="none" stroke="black" d="M604,-585.63C641.3,-578.76 687.05,-565.51 720.84,-540 820.54,-464.74 881.01,-321 902.72,-261.65"/>
<polygon fill="black" stroke="black" points="906.02,-262.82 906.1,-252.23 899.43,-260.46 906.02,-262.82"/>
</g>
<!-- LS.XPile.CoreL4&#45;&gt;L4.Syntax -->
<g id="edge17" class="edge">
<title>LS.XPile.CoreL4&#45;&gt;L4.Syntax</title>
<path fill="none" stroke="black" d="M530.84,-576.01C521.9,-556.25 504.71,-523.81 480.84,-504 467.16,-492.64 426.95,-477.14 394.65,-465.84"/>
<polygon fill="black" stroke="black" points="395.52,-462.44 384.92,-462.48 393.23,-469.06 395.52,-462.44"/>
</g>
<!-- LS.XPile.CoreL4&#45;&gt;L4.PrintProg -->
<g id="edge22" class="edge">
<title>LS.XPile.CoreL4&#45;&gt;L4.PrintProg</title>
<path fill="none" stroke="black" d="M466.28,-589.21C344.48,-582.12 107.2,-565.23 78.84,-540 61.75,-524.79 57.25,-498.51 56.58,-478.43"/>
<polygon fill="black" stroke="black" points="60.08,-478.3 56.54,-468.31 53.08,-478.32 60.08,-478.3"/>
</g>
<!-- LS.XPile.CoreL4&#45;&gt;L4.SyntaxManipulation -->
<g id="edge23" class="edge">
<title>LS.XPile.CoreL4&#45;&gt;L4.SyntaxManipulation</title>
<path fill="none" stroke="black" d="M534.95,-575.87C530.86,-551.67 523.35,-507.21 518.47,-478.39"/>
<polygon fill="black" stroke="black" points="521.87,-477.47 516.75,-468.19 514.97,-478.63 521.87,-477.47"/>
</g>
<!-- LS.XPile.CoreL4&#45;&gt;LS -->
<g id="edge21" class="edge">
<title>LS.XPile.CoreL4&#45;&gt;LS</title>
<path fill="none" stroke="black" d="M609.04,-588.91C738.41,-581.05 1007.04,-562.58 1097.84,-540 1101.24,-539.16 1104.72,-538.08 1108.14,-536.87"/>
<polygon fill="black" stroke="black" points="1109.48,-540.11 1117.55,-533.24 1106.96,-533.58 1109.48,-540.11"/>
</g>
<!-- LS.XPile.CoreL4&#45;&gt;LS.PrettyPrinter -->
<g id="edge16" class="edge">
<title>LS.XPile.CoreL4&#45;&gt;LS.PrettyPrinter</title>
<path fill="none" stroke="black" d="M607.29,-587.6C684.1,-580.65 811.11,-566.2 917.84,-540 938.27,-534.99 1208.29,-437.27 1320.48,-396.56"/>
<polygon fill="black" stroke="black" points="1321.99,-399.74 1330.2,-393.04 1319.61,-393.16 1321.99,-399.74"/>
</g>
<!-- LS.XPile.ToASP -->
<g id="node17" class="node">
<title>LS.XPile.ToASP</title>
<ellipse fill="none" stroke="black" cx="160.84" cy="-522" rx="72.59" ry="18"/>
<text text-anchor="middle" x="160.84" y="-518.3" font-family="Times,serif" font-size="14.00">LS.XPile.ToASP</text>
</g>
<!-- LS.XPile.CoreL4&#45;&gt;LS.XPile.ToASP -->
<g id="edge18" class="edge">
<title>LS.XPile.CoreL4&#45;&gt;LS.XPile.ToASP</title>
<path fill="none" stroke="black" d="M479.27,-582.95C419.68,-572.62 324.71,-555.84 242.84,-540 236.76,-538.82 230.42,-537.56 224.09,-536.29"/>
<polygon fill="black" stroke="black" points="224.67,-532.83 214.18,-534.27 223.28,-539.69 224.67,-532.83"/>
</g>
<!-- LS.XPile.ToEpilog_fm_nat -->
<g id="node18" class="node">
<title>LS.XPile.ToEpilog_fm_nat</title>
<ellipse fill="none" stroke="black" cx="361.84" cy="-522" rx="110.48" ry="18"/>
<text text-anchor="middle" x="361.84" y="-518.3" font-family="Times,serif" font-size="14.00">LS.XPile.ToEpilog_fm_nat</text>
</g>
<!-- LS.XPile.CoreL4&#45;&gt;LS.XPile.ToEpilog_fm_nat -->
<g id="edge19" class="edge">
<title>LS.XPile.CoreL4&#45;&gt;LS.XPile.ToEpilog_fm_nat</title>
<path fill="none" stroke="black" d="M500.95,-578.33C474.87,-567.95 439.62,-553.93 411.13,-542.6"/>
<polygon fill="black" stroke="black" points="412.34,-539.32 401.75,-538.87 409.75,-545.82 412.34,-539.32"/>
</g>
<!-- L4.Annotation -->
<g id="node19" class="node">
<title>L4.Annotation</title>
<ellipse fill="none" stroke="black" cx="844.84" cy="-522" rx="64.19" ry="18"/>
<text text-anchor="middle" x="844.84" y="-518.3" font-family="Times,serif" font-size="14.00">L4.Annotation</text>
</g>
<!-- LS.XPile.CoreL4&#45;&gt;L4.Annotation -->
<g id="edge20" class="edge">
<title>LS.XPile.CoreL4&#45;&gt;L4.Annotation</title>
<path fill="none" stroke="black" d="M589.92,-581.13C644.47,-568.69 729.95,-549.2 786.67,-536.26"/>
<polygon fill="black" stroke="black" points="787.59,-539.64 796.56,-534.01 786.04,-532.82 787.59,-539.64"/>
</g>
<!-- LS.PrettyPrinter&#45;&gt;LS.Types -->
<g id="edge73" class="edge">
<title>LS.PrettyPrinter&#45;&gt;LS.Types</title>
<path fill="none" stroke="black" d="M1368.25,-359.78C1365.72,-315.78 1352.45,-198.84 1282.84,-144 1252.16,-119.83 1146.76,-104.14 1081.46,-96.5"/>
<polygon fill="black" stroke="black" points="1081.68,-93 1071.35,-95.34 1080.88,-99.96 1081.68,-93"/>
</g>
<!-- LS.PrettyPrinter&#45;&gt;LS.Rule -->
<g id="edge74" class="edge">
<title>LS.PrettyPrinter&#45;&gt;LS.Rule</title>
<path fill="none" stroke="black" d="M1362,-360.08C1349.27,-329.67 1320.06,-264.46 1284.84,-216 1277.03,-205.25 1267.07,-194.56 1257.97,-185.62"/>
<polygon fill="black" stroke="black" points="1260.23,-182.95 1250.59,-178.57 1255.4,-188.01 1260.23,-182.95"/>
</g>
<!-- LS.XPile.ToASP&#45;&gt;L4.Syntax -->
<g id="edge76" class="edge">
<title>LS.XPile.ToASP&#45;&gt;L4.Syntax</title>
<path fill="none" stroke="black" d="M199.55,-506.67C230.87,-495.07 274.93,-478.75 307.24,-466.78"/>
<polygon fill="black" stroke="black" points="308.71,-469.97 316.87,-463.21 306.28,-463.4 308.71,-469.97"/>
</g>
<!-- LS.XPile.ToASP&#45;&gt;L4.PrintProg -->
<g id="edge77" class="edge">
<title>LS.XPile.ToASP&#45;&gt;L4.PrintProg</title>
<path fill="none" stroke="black" d="M137.21,-504.94C123.11,-495.36 105.03,-483.06 89.68,-472.63"/>
<polygon fill="black" stroke="black" points="91.25,-469.47 81.01,-466.74 87.31,-475.26 91.25,-469.47"/>
</g>
<!-- LS.XPile.ToASP&#45;&gt;L4.SyntaxManipulation -->
<g id="edge78" class="edge">
<title>LS.XPile.ToASP&#45;&gt;L4.SyntaxManipulation</title>
<path fill="none" stroke="black" d="M214.64,-509.76C224.04,-507.82 233.72,-505.84 242.84,-504 309.1,-490.65 384.56,-475.93 439,-465.4"/>
<polygon fill="black" stroke="black" points="439.76,-468.82 448.92,-463.48 438.44,-461.95 439.76,-468.82"/>
</g>
<!-- L4.KeyValueMap -->
<g id="node32" class="node">
<title>L4.KeyValueMap</title>
<ellipse fill="none" stroke="black" cx="208.84" cy="-450" rx="75.29" ry="18"/>
<text text-anchor="middle" x="208.84" y="-446.3" font-family="Times,serif" font-size="14.00">L4.KeyValueMap</text>
</g>
<!-- LS.XPile.ToASP&#45;&gt;L4.KeyValueMap -->
<g id="edge79" class="edge">
<title>LS.XPile.ToASP&#45;&gt;L4.KeyValueMap</title>
<path fill="none" stroke="black" d="M172.46,-504.05C178.18,-495.71 185.19,-485.49 191.53,-476.25"/>
<polygon fill="black" stroke="black" points="194.56,-478.02 197.33,-467.79 188.79,-474.06 194.56,-478.02"/>
</g>
<!-- LS.XPile.ToEpilog_fm_nat&#45;&gt;L4.Syntax -->
<g id="edge69" class="edge">
<title>LS.XPile.ToEpilog_fm_nat&#45;&gt;L4.Syntax</title>
<path fill="none" stroke="black" d="M358.88,-503.7C357.56,-495.98 355.97,-486.71 354.49,-478.11"/>
<polygon fill="black" stroke="black" points="357.92,-477.37 352.78,-468.1 351.02,-478.55 357.92,-477.37"/>
</g>
<!-- LS.XPile.ToEpilog_fm_nat&#45;&gt;L4.PrintProg -->
<g id="edge70" class="edge">
<title>LS.XPile.ToEpilog_fm_nat&#45;&gt;L4.PrintProg</title>
<path fill="none" stroke="black" d="M298.11,-507.26C250.33,-496.84 183.39,-481.97 124.84,-468 120.27,-466.91 115.53,-465.75 110.77,-464.58"/>
<polygon fill="black" stroke="black" points="111.6,-461.18 101.05,-462.15 109.91,-467.97 111.6,-461.18"/>
</g>
<!-- LS.XPile.ToEpilog_fm_nat&#45;&gt;L4.SyntaxManipulation -->
<g id="edge71" class="edge">
<title>LS.XPile.ToEpilog_fm_nat&#45;&gt;L4.SyntaxManipulation</title>
<path fill="none" stroke="black" d="M397.1,-504.76C418.84,-494.75 446.89,-481.84 470.04,-471.17"/>
<polygon fill="black" stroke="black" points="471.69,-474.27 479.31,-466.91 468.76,-467.91 471.69,-474.27"/>
</g>
<!-- LS.XPile.ToEpilog_fm_nat&#45;&gt;L4.KeyValueMap -->
<g id="edge72" class="edge">
<title>LS.XPile.ToEpilog_fm_nat&#45;&gt;L4.KeyValueMap</title>
<path fill="none" stroke="black" d="M326.36,-504.76C303.91,-494.5 274.78,-481.17 251.14,-470.35"/>
<polygon fill="black" stroke="black" points="252.59,-467.17 242.04,-466.19 249.68,-473.53 252.59,-467.17"/>
</g>
<!-- LS.XPile.NaturalLanguage -->
<g id="node20" class="node">
<title>LS.XPile.NaturalLanguage</title>
<ellipse fill="none" stroke="black" cx="1403.84" cy="-594" rx="109.68" ry="18"/>
<text text-anchor="middle" x="1403.84" y="-590.3" font-family="Times,serif" font-size="14.00">LS.XPile.NaturalLanguage</text>
</g>
<!-- LS.XPile.NaturalLanguage&#45;&gt;LS.Rule -->
<g id="edge26" class="edge">
<title>LS.XPile.NaturalLanguage&#45;&gt;LS.Rule</title>
<path fill="none" stroke="black" d="M1484.09,-581.7C1572.28,-568.9 1702.53,-548.69 1709.84,-540 1720.15,-527.76 1714.43,-519.33 1709.84,-504 1666.01,-357.31 1649.84,-298.47 1520.84,-216 1429.23,-157.43 1384.18,-206.99 1278.84,-180 1276.55,-179.41 1274.21,-178.75 1271.86,-178.04"/>
<polygon fill="black" stroke="black" points="1272.85,-174.68 1262.25,-174.89 1270.66,-181.33 1272.85,-174.68"/>
</g>
<!-- LS.XPile.NaturalLanguage&#45;&gt;LS -->
<g id="edge25" class="edge">
<title>LS.XPile.NaturalLanguage&#45;&gt;LS</title>
<path fill="none" stroke="black" d="M1331.56,-580.39C1285.92,-571.42 1226.11,-557.81 1174.84,-540 1172.94,-539.34 1170.99,-538.6 1169.05,-537.82"/>
<polygon fill="black" stroke="black" points="1170.04,-534.44 1159.47,-533.66 1167.25,-540.86 1170.04,-534.44"/>
</g>
<!-- LS.XPile.VueJSON -->
<g id="node21" class="node">
<title>LS.XPile.VueJSON</title>
<ellipse fill="none" stroke="black" cx="1972.84" cy="-594" rx="83.39" ry="18"/>
<text text-anchor="middle" x="1972.84" y="-590.3" font-family="Times,serif" font-size="14.00">LS.XPile.VueJSON</text>
</g>
<!-- LS.XPile.VueJSON&#45;&gt;LS -->
<g id="edge27" class="edge">
<title>LS.XPile.VueJSON&#45;&gt;LS</title>
<path fill="none" stroke="black" d="M1914.62,-581.04C1903.45,-579.09 1891.81,-577.29 1880.84,-576 1568.8,-539.38 1479.57,-616.53 1174.84,-540 1172.67,-539.45 1170.46,-538.77 1168.27,-538"/>
<polygon fill="black" stroke="black" points="1169.47,-534.71 1158.89,-534.15 1166.81,-541.18 1169.47,-534.71"/>
</g>
<!-- LS.XPile.VueJSON&#45;&gt;LS.NLP.NLG -->
<g id="edge28" class="edge">
<title>LS.XPile.VueJSON&#45;&gt;LS.NLP.NLG</title>
<path fill="none" stroke="black" d="M1996.06,-576.59C2009.53,-567.06 2026.66,-554.95 2041.23,-544.65"/>
<polygon fill="black" stroke="black" points="2043.32,-547.46 2049.46,-538.83 2039.27,-541.74 2043.32,-547.46"/>
</g>
<!-- LS.Lib&#45;&gt;LS.Tokens -->
<g id="edge30" class="edge">
<title>LS.Lib&#45;&gt;LS.Tokens</title>
<path fill="none" stroke="black" d="M905.14,-431.94C905.47,-414.02 906.06,-385.03 906.84,-360 907.89,-326.53 909.49,-288.03 910.6,-262.71"/>
<polygon fill="black" stroke="black" points="914.11,-262.53 911.05,-252.39 907.12,-262.22 914.11,-262.53"/>
</g>
<!-- LS.Lib&#45;&gt;LS.Types -->
<g id="edge29" class="edge">
<title>LS.Lib&#45;&gt;LS.Types</title>
<path fill="none" stroke="black" d="M889.83,-433.43C867.68,-408.74 828.84,-358.17 828.84,-307 828.84,-307 828.84,-307 828.84,-233 828.84,-159.18 920.71,-120.12 979.61,-102.66"/>
<polygon fill="black" stroke="black" points="980.82,-105.96 989.48,-99.85 978.9,-99.22 980.82,-105.96"/>
</g>
<!-- LS.Lib&#45;&gt;LS.Rule -->
<g id="edge32" class="edge">
<title>LS.Lib&#45;&gt;LS.Rule</title>
<path fill="none" stroke="black" d="M940.49,-445.47C998.65,-438.98 1110.27,-423.28 1137.84,-396 1196.32,-338.16 1141.04,-287.98 1180.84,-216 1187.23,-204.46 1196.82,-193.67 1206.03,-184.88"/>
<polygon fill="black" stroke="black" points="1208.56,-187.32 1213.6,-178 1203.85,-182.14 1208.56,-187.32"/>
</g>
<!-- LS.Lib&#45;&gt;LS.Error -->
<g id="edge34" class="edge">
<title>LS.Lib&#45;&gt;LS.Error</title>
<path fill="none" stroke="black" d="M875.96,-438.91C855.93,-430.46 830.18,-416.46 814.84,-396 767.81,-333.25 758.03,-237.06 756.16,-190.35"/>
<polygon fill="black" stroke="black" points="759.65,-190 755.85,-180.11 752.66,-190.21 759.65,-190"/>
</g>
<!-- LS.Parser -->
<g id="node23" class="node">
<title>LS.Parser</title>
<ellipse fill="none" stroke="black" cx="989.84" cy="-306" rx="46.29" ry="18"/>
<text text-anchor="middle" x="989.84" y="-302.3" font-family="Times,serif" font-size="14.00">LS.Parser</text>
</g>
<!-- LS.Lib&#45;&gt;LS.Parser -->
<g id="edge31" class="edge">
<title>LS.Lib&#45;&gt;LS.Parser</title>
<path fill="none" stroke="black" d="M905.16,-431.67C906.23,-412.75 910.17,-382.19 923.84,-360 931.85,-347.01 944.21,-335.84 956.09,-327.15"/>
<polygon fill="black" stroke="black" points="958.35,-329.84 964.57,-321.27 954.36,-324.09 958.35,-329.84"/>
</g>
<!-- LS.Lib&#45;&gt;LS.RelationalPredicates -->
<g id="edge33" class="edge">
<title>LS.Lib&#45;&gt;LS.RelationalPredicates</title>
<path fill="none" stroke="black" d="M928.25,-436C946.23,-426.01 971.44,-412 992.37,-400.37"/>
<polygon fill="black" stroke="black" points="994.31,-403.3 1001.35,-395.39 990.91,-397.18 994.31,-403.3"/>
</g>
<!-- LS.Parser&#45;&gt;LS.Tokens -->
<g id="edge67" class="edge">
<title>LS.Parser&#45;&gt;LS.Tokens</title>
<path fill="none" stroke="black" d="M972.15,-289.12C961.85,-279.87 948.69,-268.07 937.29,-257.84"/>
<polygon fill="black" stroke="black" points="939.52,-255.14 929.74,-251.06 934.85,-260.35 939.52,-255.14"/>
</g>
<!-- LS.Parser&#45;&gt;LS.Types -->
<g id="edge65" class="edge">
<title>LS.Parser&#45;&gt;LS.Types</title>
<path fill="none" stroke="black" d="M992.89,-287.85C999.48,-250.75 1015.09,-162.81 1023.03,-118.1"/>
<polygon fill="black" stroke="black" points="1026.48,-118.69 1024.78,-108.23 1019.59,-117.47 1026.48,-118.69"/>
</g>
<!-- LS.Parser&#45;&gt;LS.Rule -->
<g id="edge66" class="edge">
<title>LS.Parser&#45;&gt;LS.Rule</title>
<path fill="none" stroke="black" d="M1006.18,-289.1C1026.69,-269.81 1063.6,-237.23 1099.84,-216 1128.6,-199.16 1163.7,-185.43 1190.62,-176.16"/>
<polygon fill="black" stroke="black" points="1191.79,-179.46 1200.15,-172.95 1189.55,-172.83 1191.79,-179.46"/>
</g>
<!-- LS.RelationalPredicates&#45;&gt;LS.Tokens -->
<g id="edge51" class="edge">
<title>LS.RelationalPredicates&#45;&gt;LS.Tokens</title>
<path fill="none" stroke="black" d="M986.79,-361.78C968.28,-353.32 948.03,-341 934.84,-324 921.13,-306.31 915.54,-281.29 913.29,-262.28"/>
<polygon fill="black" stroke="black" points="916.75,-261.78 912.33,-252.15 909.79,-262.44 916.75,-261.78"/>
</g>
<!-- LS.RelationalPredicates&#45;&gt;LS.Types -->
<g id="edge49" class="edge">
<title>LS.RelationalPredicates&#45;&gt;LS.Types</title>
<path fill="none" stroke="black" d="M1036.67,-359.56C1039.78,-349.33 1043.28,-336.08 1044.84,-324 1054.47,-249.84 1041.42,-161.64 1033.35,-118.1"/>
<polygon fill="black" stroke="black" points="1036.74,-117.19 1031.43,-108.02 1029.87,-118.5 1036.74,-117.19"/>
</g>
<!-- LS.RelationalPredicates&#45;&gt;LS.Rule -->
<g id="edge50" class="edge">
<title>LS.RelationalPredicates&#45;&gt;LS.Rule</title>
<path fill="none" stroke="black" d="M1048.19,-360.17C1058.05,-350.14 1070.3,-336.89 1079.84,-324 1112.9,-279.33 1103.63,-255.37 1142.84,-216 1157.74,-201.04 1177.71,-188.72 1195.05,-179.74"/>
<polygon fill="black" stroke="black" points="1196.97,-182.69 1204.36,-175.1 1193.85,-176.43 1196.97,-182.69"/>
</g>
<!-- LS.RelationalPredicates&#45;&gt;LS.Parser -->
<g id="edge52" class="edge">
<title>LS.RelationalPredicates&#45;&gt;LS.Parser</title>
<path fill="none" stroke="black" d="M1020.92,-360.05C1016.09,-351.8 1010.17,-341.7 1004.8,-332.54"/>
<polygon fill="black" stroke="black" points="1007.75,-330.65 999.68,-323.79 1001.71,-334.19 1007.75,-330.65"/>
</g>
<!-- LS.XPile.Typescript -->
<g id="node25" class="node">
<title>LS.XPile.Typescript</title>
<ellipse fill="none" stroke="black" cx="1615.84" cy="-522" rx="85.29" ry="18"/>
<text text-anchor="middle" x="1615.84" y="-518.3" font-family="Times,serif" font-size="14.00">LS.XPile.Typescript</text>
</g>
<!-- LS.XPile.Typescript&#45;&gt;LS.Types -->
<g id="edge37" class="edge">
<title>LS.XPile.Typescript&#45;&gt;LS.Types</title>
<path fill="none" stroke="black" d="M1626.83,-504.04C1648.54,-468.83 1694.84,-384.62 1694.84,-307 1694.84,-307 1694.84,-307 1694.84,-233 1694.84,-173.83 1650.04,-167.73 1595.84,-144 1504.84,-104.16 1207.67,-94.21 1083.33,-91.77"/>
<polygon fill="black" stroke="black" points="1083.32,-88.27 1073.26,-91.59 1083.19,-95.27 1083.32,-88.27"/>
</g>
<!-- LS.XPile.Typescript&#45;&gt;LS.Rule -->
<g id="edge38" class="edge">
<title>LS.XPile.Typescript&#45;&gt;LS.Rule</title>
<path fill="none" stroke="black" d="M1600.36,-504.08C1578.93,-478.83 1542.84,-428.9 1542.84,-379 1542.84,-379 1542.84,-379 1542.84,-305 1542.84,-175.18 1402.43,-219.74 1278.84,-180 1276.74,-179.32 1274.58,-178.61 1272.41,-177.87"/>
<polygon fill="black" stroke="black" points="1273.5,-174.54 1262.9,-174.53 1271.18,-181.14 1273.5,-174.54"/>
</g>
<!-- LS.XPile.Typescript&#45;&gt;LS.Interpreter -->
<g id="edge39" class="edge">
<title>LS.XPile.Typescript&#45;&gt;LS.Interpreter</title>
<path fill="none" stroke="black" d="M1568.05,-507C1527.7,-495.18 1470.03,-478.29 1428.59,-466.16"/>
<polygon fill="black" stroke="black" points="1429.54,-462.79 1418.95,-463.33 1427.57,-469.5 1429.54,-462.79"/>
</g>
<!-- LS.XPile.Typescript&#45;&gt;LS.PrettyPrinter -->
<g id="edge36" class="edge">
<title>LS.XPile.Typescript&#45;&gt;LS.PrettyPrinter</title>
<path fill="none" stroke="black" d="M1587.99,-504.99C1543.09,-479.18 1454.75,-428.38 1405.03,-399.8"/>
<polygon fill="black" stroke="black" points="1406.63,-396.69 1396.22,-394.74 1403.15,-402.76 1406.63,-396.69"/>
</g>
<!-- LS.XPile.DumpRule -->
<g id="node26" class="node">
<title>LS.XPile.DumpRule</title>
<ellipse fill="none" stroke="black" cx="1425.84" cy="-522" rx="86.38" ry="18"/>
<text text-anchor="middle" x="1425.84" y="-518.3" font-family="Times,serif" font-size="14.00">LS.XPile.DumpRule</text>
</g>
<!-- LS.XPile.DumpRule&#45;&gt;LS.Rule -->
<g id="edge40" class="edge">
<title>LS.XPile.DumpRule&#45;&gt;LS.Rule</title>
<path fill="none" stroke="black" d="M1442.6,-504.31C1465.79,-479.35 1504.84,-429.78 1504.84,-379 1504.84,-379 1504.84,-379 1504.84,-305 1504.84,-279 1346.65,-210.07 1271.55,-178.81"/>
<polygon fill="black" stroke="black" points="1272.53,-175.43 1261.95,-174.83 1269.85,-181.9 1272.53,-175.43"/>
</g>
<!-- LS.XPile.DumpRule&#45;&gt;LS.Interpreter -->
<g id="edge41" class="edge">
<title>LS.XPile.DumpRule&#45;&gt;LS.Interpreter</title>
<path fill="none" stroke="black" d="M1413.98,-504.05C1408.15,-495.71 1400.99,-485.49 1394.52,-476.25"/>
<polygon fill="black" stroke="black" points="1397.2,-473.97 1388.6,-467.79 1391.46,-477.99 1397.2,-473.97"/>
</g>
<!-- LS.XPile.GFTrees -->
<g id="node27" class="node">
<title>LS.XPile.GFTrees</title>
<ellipse fill="none" stroke="black" cx="1793.84" cy="-594" rx="77.99" ry="18"/>
<text text-anchor="middle" x="1793.84" y="-590.3" font-family="Times,serif" font-size="14.00">LS.XPile.GFTrees</text>
</g>
<!-- LS.XPile.GFTrees&#45;&gt;LS -->
<g id="edge42" class="edge">
<title>LS.XPile.GFTrees&#45;&gt;LS</title>
<path fill="none" stroke="black" d="M1738.79,-581.16C1728.22,-579.2 1717.22,-577.36 1706.84,-576 1471.87,-545.22 1404.2,-599.63 1174.84,-540 1172.67,-539.43 1170.47,-538.74 1168.28,-537.96"/>
<polygon fill="black" stroke="black" points="1169.49,-534.67 1158.91,-534.08 1166.81,-541.14 1169.49,-534.67"/>
</g>
<!-- LS.XPile.GFTrees&#45;&gt;LS.NLP.NLG -->
<g id="edge43" class="edge">
<title>LS.XPile.GFTrees&#45;&gt;LS.NLP.NLG</title>
<path fill="none" stroke="black" d="M1844.51,-580.24C1893.4,-567.93 1967.19,-549.35 2017.34,-536.72"/>
<polygon fill="black" stroke="black" points="2018.19,-540.12 2027.04,-534.28 2016.49,-533.33 2018.19,-540.12"/>
</g>
<!-- LS.XPile.GFTrees&#45;&gt;LS.NLP.NL4Transformations -->
<g id="edge44" class="edge">
<title>LS.XPile.GFTrees&#45;&gt;LS.NLP.NL4Transformations</title>
<path fill="none" stroke="black" d="M1813.04,-576.41C1823.28,-567.56 1836.06,-556.52 1847.34,-546.77"/>
<polygon fill="black" stroke="black" points="1849.95,-549.14 1855.22,-539.96 1845.37,-543.85 1849.95,-549.14"/>
</g>
<!-- LS.Verdict -->
<g id="node28" class="node">
<title>LS.Verdict</title>
<ellipse fill="none" stroke="black" cx="1233.84" cy="-522" rx="50.09" ry="18"/>
<text text-anchor="middle" x="1233.84" y="-518.3" font-family="Times,serif" font-size="14.00">LS.Verdict</text>
</g>
<!-- LS.Verdict&#45;&gt;LS.Rule -->
<g id="edge46" class="edge">
<title>LS.Verdict&#45;&gt;LS.Rule</title>
<path fill="none" stroke="black" d="M1236.64,-503.71C1243.75,-457.06 1260.97,-324.8 1246.84,-216 1245.71,-207.28 1243.57,-197.95 1241.3,-189.58"/>
<polygon fill="black" stroke="black" points="1244.66,-188.6 1238.52,-179.96 1237.94,-190.54 1244.66,-188.6"/>
</g>
<!-- LS.Verdict&#45;&gt;LS.Interpreter -->
<g id="edge45" class="edge">
<title>LS.Verdict&#45;&gt;LS.Interpreter</title>
<path fill="none" stroke="black" d="M1262.44,-507C1283.88,-496.51 1313.49,-482.01 1337.22,-470.4"/>
<polygon fill="black" stroke="black" points="1338.88,-473.48 1346.32,-465.94 1335.8,-467.19 1338.88,-473.48"/>
</g>
<!-- LS.XPile.Prolog -->
<g id="node30" class="node">
<title>LS.XPile.Prolog</title>
<ellipse fill="none" stroke="black" cx="1056.84" cy="-594" rx="70.69" ry="18"/>
<text text-anchor="middle" x="1056.84" y="-590.3" font-family="Times,serif" font-size="14.00">LS.XPile.Prolog</text>
</g>
<!-- LS.XPile.Prolog&#45;&gt;LS -->
<g id="edge48" class="edge">
<title>LS.XPile.Prolog&#45;&gt;LS</title>
<path fill="none" stroke="black" d="M1076.28,-576.41C1087.93,-566.46 1102.84,-553.74 1115.18,-543.2"/>
<polygon fill="black" stroke="black" points="1117.52,-545.8 1122.86,-536.65 1112.98,-540.48 1117.52,-545.8"/>
</g>
<!-- LS.XPile.SVG -->
<g id="node31" class="node">
<title>LS.XPile.SVG</title>
<ellipse fill="none" stroke="black" cx="1210.84" cy="-594" rx="64.99" ry="18"/>
<text text-anchor="middle" x="1210.84" y="-590.3" font-family="Times,serif" font-size="14.00">LS.XPile.SVG</text>
</g>
<!-- LS.XPile.SVG&#45;&gt;LS -->
<g id="edge53" class="edge">
<title>LS.XPile.SVG&#45;&gt;LS</title>
<path fill="none" stroke="black" d="M1193.78,-576.41C1184.01,-566.91 1171.64,-554.88 1161.11,-544.65"/>
<polygon fill="black" stroke="black" points="1163.44,-542.03 1153.83,-537.57 1158.56,-547.05 1163.44,-542.03"/>
</g>
<!-- LS.XPile.Petri -->
<g id="node33" class="node">
<title>LS.XPile.Petri</title>
<ellipse fill="none" stroke="black" cx="903.84" cy="-594" rx="63.89" ry="18"/>
<text text-anchor="middle" x="903.84" y="-590.3" font-family="Times,serif" font-size="14.00">LS.XPile.Petri</text>
</g>
<!-- LS.XPile.Petri&#45;&gt;LS -->
<g id="edge75" class="edge">
<title>LS.XPile.Petri&#45;&gt;LS</title>
<path fill="none" stroke="black" d="M951,-581.89C990.6,-572.14 1048.46,-556.91 1097.84,-540 1100.98,-538.93 1104.22,-537.73 1107.44,-536.49"/>
<polygon fill="black" stroke="black" points="1108.93,-539.66 1116.91,-532.69 1106.33,-533.17 1108.93,-539.66"/>
</g>
</g>
</svg>
