<?xml version="1.0" encoding="UTF-8" standalone="no"?>
<!DOCTYPE svg PUBLIC "-//W3C//DTD SVG 1.1//EN"
 "http://www.w3.org/Graphics/SVG/1.1/DTD/svg11.dtd">
<!-- Generated by graphviz version 2.43.0 (0)
 -->
<!-- Title: deps Pages: 1 -->
<svg width="1840pt" height="891pt"
 viewBox="0.00 0.00 1840.00 891.00" xmlns="http://www.w3.org/2000/svg" xmlns:xlink="http://www.w3.org/1999/xlink">
<g id="graph0" class="graph" transform="scale(1 1) rotate(0) translate(4 887)">
<title>deps</title>
<polygon fill="white" stroke="transparent" points="-4,4 -4,-887 1836,-887 1836,4 -4,4"/>
<g id="clust1" class="cluster">
<title>cluster_2</title>
<polygon fill="none" stroke="black" points="8,-8 8,-875 1683,-875 1683,-8 8,-8"/>
<text text-anchor="middle" x="845.5" y="-859.8" font-family="Times,serif" font-size="14.00">src/LS/Interpreter.hs</text>
</g>
<g id="clust2" class="cluster">
<title>cluster_1</title>
<polygon fill="none" stroke="black" points="1691,-800 1691,-875 1824,-875 1824,-800 1691,-800"/>
<text text-anchor="middle" x="1757.5" y="-859.8" font-family="Times,serif" font-size="14.00">src/LS/XPile/SVG.hs</text>
</g>
<!-- unleaf -->
<g id="node1" class="node">
<title>unleaf</title>
<ellipse fill="#ffffb3" stroke="#ffffb3" cx="600" cy="-394" rx="32.49" ry="18"/>
<text text-anchor="middle" x="600" y="-390.3" font-family="Times,serif" font-size="14.00">unleaf</text>
</g>
<!-- unleaf&#45;&gt;unleaf -->
<g id="edge67" class="edge">
<title>unleaf&#45;&gt;unleaf</title>
<path fill="none" stroke="black" d="M623.37,-406.66C637.35,-409.47 650.5,-405.25 650.5,-394 650.5,-385.56 643.1,-381.08 633.51,-380.55"/>
<polygon fill="black" stroke="black" points="633.07,-377.08 623.37,-381.34 633.62,-384.05 633.07,-377.08"/>
</g>
<!-- topsortedClasses -->
<g id="node2" class="node">
<title>topsortedClasses</title>
<ellipse fill="#ffffb3" stroke="#ffffb3" cx="1447" cy="-826" rx="69.59" ry="18"/>
<text text-anchor="middle" x="1447" y="-822.3" font-family="Times,serif" font-size="14.00">topsortedClasses</text>
</g>
<!-- getInheritances -->
<g id="node19" class="node">
<title>getInheritances</title>
<ellipse fill="#ffffb3" stroke="#ffffb3" cx="1611" cy="-754" rx="64.19" ry="18"/>
<text text-anchor="middle" x="1611" y="-750.3" font-family="Times,serif" font-size="14.00">getInheritances</text>
</g>
<!-- topsortedClasses&#45;&gt;getInheritances -->
<g id="edge66" class="edge">
<title>topsortedClasses&#45;&gt;getInheritances</title>
<path fill="none" stroke="black" d="M1481.38,-810.33C1506.59,-799.57 1540.98,-784.89 1568,-773.35"/>
<polygon fill="black" stroke="black" points="1569.4,-776.56 1577.23,-769.42 1566.66,-770.12 1569.4,-776.56"/>
</g>
<!-- getCTkeys -->
<g id="node20" class="node">
<title>getCTkeys</title>
<ellipse fill="#ffffb3" stroke="#ffffb3" cx="1406" cy="-682" rx="48.99" ry="18"/>
<text text-anchor="middle" x="1406" y="-678.3" font-family="Times,serif" font-size="14.00">getCTkeys</text>
</g>
<!-- topsortedClasses&#45;&gt;getCTkeys -->
<g id="edge65" class="edge">
<title>topsortedClasses&#45;&gt;getCTkeys</title>
<path fill="none" stroke="black" d="M1413.93,-809.98C1398.83,-801.22 1382.46,-788.6 1374,-772 1363.43,-751.26 1374.38,-726.19 1386.26,-707.95"/>
<polygon fill="black" stroke="black" points="1389.24,-709.8 1392.08,-699.59 1383.49,-705.8 1389.24,-709.8"/>
</g>
<!-- getAttrTypesIn -->
<g id="node21" class="node">
<title>getAttrTypesIn</title>
<ellipse fill="#ffffb3" stroke="#ffffb3" cx="1447" cy="-754" rx="63.89" ry="18"/>
<text text-anchor="middle" x="1447" y="-750.3" font-family="Times,serif" font-size="14.00">getAttrTypesIn</text>
</g>
<!-- topsortedClasses&#45;&gt;getAttrTypesIn -->
<g id="edge64" class="edge">
<title>topsortedClasses&#45;&gt;getAttrTypesIn</title>
<path fill="none" stroke="black" d="M1447,-807.7C1447,-799.98 1447,-790.71 1447,-782.11"/>
<polygon fill="black" stroke="black" points="1450.5,-782.1 1447,-772.1 1443.5,-782.1 1450.5,-782.1"/>
</g>
<!-- symbolTable -->
<g id="node3" class="node">
<title>symbolTable</title>
<ellipse fill="#ffffb3" stroke="#ffffb3" cx="73" cy="-754" rx="56.59" ry="18"/>
<text text-anchor="middle" x="73" y="-750.3" font-family="Times,serif" font-size="14.00">symbolTable</text>
</g>
<!-- stitchRules -->
<g id="node4" class="node">
<title>stitchRules</title>
<ellipse fill="#ffffb3" stroke="#ffffb3" cx="1298" cy="-826" rx="50.09" ry="18"/>
<text text-anchor="middle" x="1298" y="-822.3" font-family="Times,serif" font-size="14.00">stitchRules</text>
</g>
<!-- ruleNameStr -->
<g id="node5" class="node">
<title>ruleNameStr</title>
<ellipse fill="#ffffb3" stroke="#ffffb3" cx="1153" cy="-826" rx="55.79" ry="18"/>
<text text-anchor="middle" x="1153" y="-822.3" font-family="Times,serif" font-size="14.00">ruleNameStr</text>
</g>
<!-- ruleDecisionGraph -->
<g id="node6" class="node">
<title>ruleDecisionGraph</title>
<ellipse fill="#ffffb3" stroke="#ffffb3" cx="954" cy="-682" rx="77.19" ry="18"/>
<text text-anchor="middle" x="954" y="-678.3" font-family="Times,serif" font-size="14.00">ruleDecisionGraph</text>
</g>
<!-- relPredRefsAll -->
<g id="node7" class="node">
<title>relPredRefsAll</title>
<ellipse fill="#ffffb3" stroke="#ffffb3" cx="954" cy="-610" rx="63.89" ry="18"/>
<text text-anchor="middle" x="954" y="-606.3" font-family="Times,serif" font-size="14.00">relPredRefsAll</text>
</g>
<!-- ruleDecisionGraph&#45;&gt;relPredRefsAll -->
<g id="edge63" class="edge">
<title>ruleDecisionGraph&#45;&gt;relPredRefsAll</title>
<path fill="none" stroke="black" d="M954,-663.7C954,-655.98 954,-646.71 954,-638.11"/>
<polygon fill="black" stroke="black" points="957.5,-638.1 954,-628.1 950.5,-638.1 957.5,-638.1"/>
</g>
<!-- relPredRefs -->
<g id="node8" class="node">
<title>relPredRefs</title>
<ellipse fill="#ffffb3" stroke="#ffffb3" cx="954" cy="-538" rx="51.99" ry="18"/>
<text text-anchor="middle" x="954" y="-534.3" font-family="Times,serif" font-size="14.00">relPredRefs</text>
</g>
<!-- relPredRefsAll&#45;&gt;relPredRefs -->
<g id="edge62" class="edge">
<title>relPredRefsAll&#45;&gt;relPredRefs</title>
<path fill="none" stroke="black" d="M954,-591.7C954,-583.98 954,-574.71 954,-566.11"/>
<polygon fill="black" stroke="black" points="957.5,-566.1 954,-556.1 950.5,-566.1 957.5,-566.1"/>
</g>
<!-- onlyTheItems -->
<g id="node9" class="node">
<title>onlyTheItems</title>
<ellipse fill="#ffffb3" stroke="#ffffb3" cx="626" cy="-754" rx="59.59" ry="18"/>
<text text-anchor="middle" x="626" y="-750.3" font-family="Times,serif" font-size="14.00">onlyTheItems</text>
</g>
<!-- getAndOrTree -->
<g id="node22" class="node">
<title>getAndOrTree</title>
<ellipse fill="#ffffb3" stroke="#ffffb3" cx="529" cy="-682" rx="61.99" ry="18"/>
<text text-anchor="middle" x="529" y="-678.3" font-family="Times,serif" font-size="14.00">getAndOrTree</text>
</g>
<!-- onlyTheItems&#45;&gt;getAndOrTree -->
<g id="edge61" class="edge">
<title>onlyTheItems&#45;&gt;getAndOrTree</title>
<path fill="none" stroke="black" d="M603.99,-737.12C590.81,-727.61 573.87,-715.38 559.43,-704.96"/>
<polygon fill="black" stroke="black" points="561.42,-702.08 551.26,-699.06 557.32,-707.75 561.42,-702.08"/>
</g>
<!-- onlyItemNamed -->
<g id="node10" class="node">
<title>onlyItemNamed</title>
<ellipse fill="#ffffb3" stroke="#ffffb3" cx="777" cy="-826" rx="68.79" ry="18"/>
<text text-anchor="middle" x="777" y="-822.3" font-family="Times,serif" font-size="14.00">onlyItemNamed</text>
</g>
<!-- itemsByRule -->
<g id="node13" class="node">
<title>itemsByRule</title>
<ellipse fill="#ffffb3" stroke="#ffffb3" cx="491" cy="-754" rx="57.39" ry="18"/>
<text text-anchor="middle" x="491" y="-750.3" font-family="Times,serif" font-size="14.00">itemsByRule</text>
</g>
<!-- onlyItemNamed&#45;&gt;itemsByRule -->
<g id="edge60" class="edge">
<title>onlyItemNamed&#45;&gt;itemsByRule</title>
<path fill="none" stroke="black" d="M737.18,-811.26C725.01,-807.33 711.53,-803.23 699,-800 636.71,-783.93 619.73,-786.25 557,-772 552.41,-770.96 547.65,-769.83 542.89,-768.66"/>
<polygon fill="black" stroke="black" points="543.71,-765.26 533.16,-766.24 542.02,-772.06 543.71,-765.26"/>
</g>
<!-- musings -->
<g id="node11" class="node">
<title>musings</title>
<ellipse fill="#ffffb3" stroke="#ffffb3" cx="1028" cy="-826" rx="40.09" ry="18"/>
<text text-anchor="middle" x="1028" y="-822.3" font-family="Times,serif" font-size="14.00">musings</text>
</g>
<!-- musings&#45;&gt;ruleDecisionGraph -->
<g id="edge59" class="edge">
<title>musings&#45;&gt;ruleDecisionGraph</title>
<path fill="none" stroke="black" d="M1003.69,-811.61C995.93,-807.6 987.22,-803.38 979,-800 941.04,-784.4 915.23,-805.13 891,-772 881.56,-759.08 884.25,-750.51 891,-736 896.77,-723.61 907.02,-713.08 917.6,-704.75"/>
<polygon fill="black" stroke="black" points="919.69,-707.56 925.68,-698.82 915.55,-701.91 919.69,-707.56"/>
</g>
<!-- isRuleAlias -->
<g id="node14" class="node">
<title>isRuleAlias</title>
<ellipse fill="#ffffb3" stroke="#ffffb3" cx="1240" cy="-682" rx="51.99" ry="18"/>
<text text-anchor="middle" x="1240" y="-678.3" font-family="Times,serif" font-size="14.00">isRuleAlias</text>
</g>
<!-- musings&#45;&gt;isRuleAlias -->
<g id="edge58" class="edge">
<title>musings&#45;&gt;isRuleAlias</title>
<path fill="none" stroke="black" d="M1055.14,-812.63C1065.31,-808.27 1077.06,-803.58 1088,-800 1138.41,-783.53 1163.84,-806.64 1204,-772 1213.79,-763.56 1224.92,-732.69 1232.19,-709.67"/>
<polygon fill="black" stroke="black" points="1235.55,-710.64 1235.14,-700.05 1228.86,-708.59 1235.55,-710.64"/>
</g>
<!-- groupedByAOTree -->
<g id="node15" class="node">
<title>groupedByAOTree</title>
<ellipse fill="#ffffb3" stroke="#ffffb3" cx="979" cy="-754" rx="78.79" ry="18"/>
<text text-anchor="middle" x="979" y="-750.3" font-family="Times,serif" font-size="14.00">groupedByAOTree</text>
</g>
<!-- musings&#45;&gt;groupedByAOTree -->
<g id="edge57" class="edge">
<title>musings&#45;&gt;groupedByAOTree</title>
<path fill="none" stroke="black" d="M1016.39,-808.41C1010.49,-799.99 1003.21,-789.58 996.64,-780.2"/>
<polygon fill="black" stroke="black" points="999.47,-778.14 990.87,-771.96 993.74,-782.16 999.47,-778.14"/>
</g>
<!-- musings&#45;&gt;getAndOrTree -->
<g id="edge56" class="edge">
<title>musings&#45;&gt;getAndOrTree</title>
<path fill="none" stroke="black" d="M1004.8,-810.98C996.87,-806.79 987.79,-802.62 979,-800 868.04,-766.92 819.56,-831.1 720,-772 703.25,-762.06 710.67,-747.58 695,-736 665.12,-713.92 625.71,-700.83 592.79,-693.18"/>
<polygon fill="black" stroke="black" points="593.32,-689.71 582.8,-690.98 591.81,-696.55 593.32,-689.71"/>
</g>
<!-- exposedRoots -->
<g id="node24" class="node">
<title>exposedRoots</title>
<ellipse fill="#ffffb3" stroke="#ffffb3" cx="1135" cy="-754" rx="59.59" ry="18"/>
<text text-anchor="middle" x="1135" y="-750.3" font-family="Times,serif" font-size="14.00">exposedRoots</text>
</g>
<!-- musings&#45;&gt;exposedRoots -->
<g id="edge55" class="edge">
<title>musings&#45;&gt;exposedRoots</title>
<path fill="none" stroke="black" d="M1049.91,-810.67C1065.11,-800.72 1085.62,-787.3 1102.69,-776.14"/>
<polygon fill="black" stroke="black" points="1104.81,-778.93 1111.26,-770.53 1100.97,-773.08 1104.81,-778.93"/>
</g>
<!-- expandRule -->
<g id="node28" class="node">
<title>expandRule</title>
<ellipse fill="#ffffb3" stroke="#ffffb3" cx="363" cy="-754" rx="52.79" ry="18"/>
<text text-anchor="middle" x="363" y="-750.3" font-family="Times,serif" font-size="14.00">expandRule</text>
</g>
<!-- musings&#45;&gt;expandRule -->
<g id="edge54" class="edge">
<title>musings&#45;&gt;expandRule</title>
<path fill="none" stroke="black" d="M1005.38,-810.95C997.34,-806.65 988.04,-802.42 979,-800 740.82,-736.35 668.42,-811.05 425,-772 420.22,-771.23 415.29,-770.24 410.38,-769.12"/>
<polygon fill="black" stroke="black" points="410.96,-765.66 400.42,-766.66 409.29,-772.45 410.96,-765.66"/>
</g>
<!-- expandBSR -->
<g id="node36" class="node">
<title>expandBSR</title>
<ellipse fill="#ffffb3" stroke="#ffffb3" cx="741" cy="-250" rx="52.79" ry="18"/>
<text text-anchor="middle" x="741" y="-246.3" font-family="Times,serif" font-size="14.00">expandBSR</text>
</g>
<!-- musings&#45;&gt;expandBSR -->
<g id="edge53" class="edge">
<title>musings&#45;&gt;expandBSR</title>
<path fill="none" stroke="black" d="M1004.79,-811.01C996.86,-806.83 987.78,-802.65 979,-800 926.75,-784.24 771.33,-812.73 735,-772 724.35,-760.06 733.9,-751.96 735,-736 741.09,-647.95 760,-627.26 760,-539 760,-539 760,-539 760,-393 760,-352.86 752.45,-306.9 746.87,-278.4"/>
<polygon fill="black" stroke="black" points="750.26,-277.5 744.84,-268.39 743.39,-278.88 750.26,-277.5"/>
</g>
<!-- classGraph -->
<g id="node39" class="node">
<title>classGraph</title>
<ellipse fill="#ffffb3" stroke="#ffffb3" cx="794" cy="-754" rx="50.09" ry="18"/>
<text text-anchor="middle" x="794" y="-750.3" font-family="Times,serif" font-size="14.00">classGraph</text>
</g>
<!-- musings&#45;&gt;classGraph -->
<g id="edge52" class="edge">
<title>musings&#45;&gt;classGraph</title>
<path fill="none" stroke="black" d="M1004.08,-811.39C996.26,-807.32 987.42,-803.12 979,-800 954.82,-791.03 891.38,-776.28 845.52,-766.12"/>
<polygon fill="black" stroke="black" points="846.25,-762.7 835.74,-763.96 844.75,-769.53 846.25,-762.7"/>
</g>
<!-- l4interpret -->
<g id="node12" class="node">
<title>l4interpret</title>
<ellipse fill="#ffffb3" stroke="#ffffb3" cx="162" cy="-826" rx="47.39" ry="18"/>
<text text-anchor="middle" x="162" y="-822.3" font-family="Times,serif" font-size="14.00">l4interpret</text>
</g>
<!-- l4interpret&#45;&gt;symbolTable -->
<g id="edge51" class="edge">
<title>l4interpret&#45;&gt;symbolTable</title>
<path fill="none" stroke="black" d="M142.25,-809.46C130.2,-799.99 114.61,-787.73 101.28,-777.24"/>
<polygon fill="black" stroke="black" points="103.34,-774.41 93.31,-770.98 99.01,-779.91 103.34,-774.41"/>
</g>
<!-- classHierarchy -->
<g id="node38" class="node">
<title>classHierarchy</title>
<ellipse fill="#ffffb3" stroke="#ffffb3" cx="211" cy="-754" rx="63.09" ry="18"/>
<text text-anchor="middle" x="211" y="-750.3" font-family="Times,serif" font-size="14.00">classHierarchy</text>
</g>
<!-- l4interpret&#45;&gt;classHierarchy -->
<g id="edge50" class="edge">
<title>l4interpret&#45;&gt;classHierarchy</title>
<path fill="none" stroke="black" d="M173.61,-808.41C179.51,-799.99 186.79,-789.58 193.36,-780.2"/>
<polygon fill="black" stroke="black" points="196.26,-782.16 199.13,-771.96 190.53,-778.14 196.26,-782.16"/>
</g>
<!-- itemsByRule&#45;&gt;getAndOrTree -->
<g id="edge49" class="edge">
<title>itemsByRule&#45;&gt;getAndOrTree</title>
<path fill="none" stroke="black" d="M500.2,-736.05C504.57,-728.01 509.89,-718.2 514.76,-709.23"/>
<polygon fill="black" stroke="black" points="517.93,-710.73 519.62,-700.28 511.78,-707.39 517.93,-710.73"/>
</g>
<!-- groupedByAOTree&#45;&gt;ruleDecisionGraph -->
<g id="edge48" class="edge">
<title>groupedByAOTree&#45;&gt;ruleDecisionGraph</title>
<path fill="none" stroke="black" d="M972.82,-735.7C970,-727.81 966.61,-718.3 963.48,-709.55"/>
<polygon fill="black" stroke="black" points="966.77,-708.34 960.11,-700.1 960.18,-710.7 966.77,-708.34"/>
</g>
<!-- groupedByAOTree&#45;&gt;getAndOrTree -->
<g id="edge47" class="edge">
<title>groupedByAOTree&#45;&gt;getAndOrTree</title>
<path fill="none" stroke="black" d="M916.18,-743.09C901.37,-740.76 885.63,-738.28 871,-736 773.88,-720.83 661.22,-703.4 592.54,-692.8"/>
<polygon fill="black" stroke="black" points="592.74,-689.29 582.32,-691.22 591.67,-696.21 592.74,-689.29"/>
</g>
<!-- decisionRoots -->
<g id="node37" class="node">
<title>decisionRoots</title>
<ellipse fill="#ffffb3" stroke="#ffffb3" cx="1110" cy="-682" rx="60.39" ry="18"/>
<text text-anchor="middle" x="1110" y="-678.3" font-family="Times,serif" font-size="14.00">decisionRoots</text>
</g>
<!-- groupedByAOTree&#45;&gt;decisionRoots -->
<g id="edge46" class="edge">
<title>groupedByAOTree&#45;&gt;decisionRoots</title>
<path fill="none" stroke="black" d="M1008.4,-737.29C1027.37,-727.15 1052.22,-713.88 1072.59,-702.99"/>
<polygon fill="black" stroke="black" points="1074.43,-705.98 1081.6,-698.18 1071.13,-699.8 1074.43,-705.98"/>
</g>
<!-- getRuleByName -->
<g id="node16" class="node">
<title>getRuleByName</title>
<ellipse fill="#ffffb3" stroke="#ffffb3" cx="671" cy="-610" rx="69.59" ry="18"/>
<text text-anchor="middle" x="671" y="-606.3" font-family="Times,serif" font-size="14.00">getRuleByName</text>
</g>
<!-- getRuleByLabelName -->
<g id="node17" class="node">
<title>getRuleByLabelName</title>
<ellipse fill="#ffffb3" stroke="#ffffb3" cx="600" cy="-826" rx="89.88" ry="18"/>
<text text-anchor="middle" x="600" y="-822.3" font-family="Times,serif" font-size="14.00">getRuleByLabelName</text>
</g>
<!-- getRuleByLabel -->
<g id="node18" class="node">
<title>getRuleByLabel</title>
<ellipse fill="#ffffb3" stroke="#ffffb3" cx="424" cy="-826" rx="68.49" ry="18"/>
<text text-anchor="middle" x="424" y="-822.3" font-family="Times,serif" font-size="14.00">getRuleByLabel</text>
</g>
<!-- getInheritances&#45;&gt;getCTkeys -->
<g id="edge45" class="edge">
<title>getInheritances&#45;&gt;getCTkeys</title>
<path fill="none" stroke="black" d="M1571.96,-739.67C1537.24,-727.81 1486.49,-710.49 1450.27,-698.12"/>
<polygon fill="black" stroke="black" points="1451.06,-694.69 1440.46,-694.77 1448.8,-701.31 1451.06,-694.69"/>
</g>
<!-- getAttrTypesIn&#45;&gt;getCTkeys -->
<g id="edge44" class="edge">
<title>getAttrTypesIn&#45;&gt;getCTkeys</title>
<path fill="none" stroke="black" d="M1437.08,-736.05C1432.24,-727.8 1426.33,-717.7 1420.96,-708.54"/>
<polygon fill="black" stroke="black" points="1423.91,-706.65 1415.83,-699.79 1417.87,-710.19 1423.91,-706.65"/>
</g>
<!-- getAttrTypesIn&#45;&gt;getAttrTypesIn -->
<g id="edge43" class="edge">
<title>getAttrTypesIn&#45;&gt;getAttrTypesIn</title>
<path fill="none" stroke="black" d="M1490.71,-767.23C1510.98,-768.68 1528.69,-764.27 1528.69,-754 1528.69,-745.5 1516.55,-741.01 1500.86,-740.54"/>
<polygon fill="black" stroke="black" points="1500.63,-737.05 1490.71,-740.77 1500.78,-744.04 1500.63,-737.05"/>
</g>
<!-- getAndOrTree&#45;&gt;getRuleByName -->
<g id="edge42" class="edge">
<title>getAndOrTree&#45;&gt;getRuleByName</title>
<path fill="none" stroke="black" d="M559.11,-666.15C580.01,-655.86 608.07,-642.02 630.86,-630.79"/>
<polygon fill="black" stroke="black" points="632.53,-633.87 639.95,-626.31 629.43,-627.59 632.53,-633.87"/>
</g>
<!-- getAndOrTree&#45;&gt;getAndOrTree -->
<g id="edge41" class="edge">
<title>getAndOrTree&#45;&gt;getAndOrTree</title>
<path fill="none" stroke="black" d="M571.26,-695.2C591.22,-696.74 608.74,-692.34 608.74,-682 608.74,-673.44 596.72,-668.95 581.25,-668.53"/>
<polygon fill="black" stroke="black" points="581.16,-665.03 571.26,-668.8 581.34,-672.03 581.16,-665.03"/>
</g>
<!-- extractRPMT2Text -->
<g id="node23" class="node">
<title>extractRPMT2Text</title>
<ellipse fill="#ffffb3" stroke="#ffffb3" cx="298" cy="-610" rx="79.09" ry="18"/>
<text text-anchor="middle" x="298" y="-606.3" font-family="Times,serif" font-size="14.00">extractRPMT2Text</text>
</g>
<!-- getAndOrTree&#45;&gt;extractRPMT2Text -->
<g id="edge40" class="edge">
<title>getAndOrTree&#45;&gt;extractRPMT2Text</title>
<path fill="none" stroke="black" d="M487.7,-668.49C450.22,-657.13 394.65,-640.29 353.34,-627.77"/>
<polygon fill="black" stroke="black" points="354.28,-624.4 343.69,-624.85 352.25,-631.1 354.28,-624.4"/>
</g>
<!-- expandTrace -->
<g id="node26" class="node">
<title>expandTrace</title>
<ellipse fill="#ffffb3" stroke="#ffffb3" cx="476" cy="-106" rx="55.79" ry="18"/>
<text text-anchor="middle" x="476" y="-102.3" font-family="Times,serif" font-size="14.00">expandTrace</text>
</g>
<!-- getAndOrTree&#45;&gt;expandTrace -->
<g id="edge39" class="edge">
<title>getAndOrTree&#45;&gt;expandTrace</title>
<path fill="none" stroke="black" d="M492.69,-667.21C473.49,-658.41 450.71,-645.37 435,-628 406.03,-595.97 396,-582.19 396,-539 396,-539 396,-539 396,-249 396,-207.66 401.75,-195.45 423,-160 429.64,-148.93 439.09,-138.47 448.18,-129.83"/>
<polygon fill="black" stroke="black" points="450.63,-132.33 455.66,-123.01 445.91,-127.16 450.63,-132.33"/>
</g>
<!-- expandClauses -->
<g id="node32" class="node">
<title>expandClauses</title>
<ellipse fill="#ffffb3" stroke="#ffffb3" cx="495" cy="-538" rx="63.89" ry="18"/>
<text text-anchor="middle" x="495" y="-534.3" font-family="Times,serif" font-size="14.00">expandClauses</text>
</g>
<!-- getAndOrTree&#45;&gt;expandClauses -->
<g id="edge38" class="edge">
<title>getAndOrTree&#45;&gt;expandClauses</title>
<path fill="none" stroke="black" d="M491.54,-667.68C473.76,-659.25 454.21,-646.4 444,-628 436.24,-614.01 438.02,-606.84 444,-592 448.58,-580.64 456.88,-570.35 465.48,-561.93"/>
<polygon fill="black" stroke="black" points="468.01,-564.36 473.03,-555.03 463.29,-559.2 468.01,-564.36"/>
</g>
<!-- bsmtOfClauses -->
<g id="node41" class="node">
<title>bsmtOfClauses</title>
<ellipse fill="#ffffb3" stroke="#ffffb3" cx="518" cy="-610" rx="64.99" ry="18"/>
<text text-anchor="middle" x="518" y="-606.3" font-family="Times,serif" font-size="14.00">bsmtOfClauses</text>
</g>
<!-- getAndOrTree&#45;&gt;bsmtOfClauses -->
<g id="edge37" class="edge">
<title>getAndOrTree&#45;&gt;bsmtOfClauses</title>
<path fill="none" stroke="black" d="M526.28,-663.7C525.07,-655.98 523.61,-646.71 522.26,-638.11"/>
<polygon fill="black" stroke="black" points="525.7,-637.44 520.69,-628.1 518.78,-638.53 525.7,-637.44"/>
</g>
<!-- exposedRoots&#45;&gt;ruleDecisionGraph -->
<g id="edge36" class="edge">
<title>exposedRoots&#45;&gt;ruleDecisionGraph</title>
<path fill="none" stroke="black" d="M1099.67,-739.34C1071.73,-728.53 1032.44,-713.34 1001.7,-701.45"/>
<polygon fill="black" stroke="black" points="1002.64,-698.06 992.05,-697.72 1000.12,-704.59 1002.64,-698.06"/>
</g>
<!-- exposedRoots&#45;&gt;isRuleAlias -->
<g id="edge35" class="edge">
<title>exposedRoots&#45;&gt;isRuleAlias</title>
<path fill="none" stroke="black" d="M1158.56,-737.29C1173.26,-727.5 1192.35,-714.77 1208.35,-704.1"/>
<polygon fill="black" stroke="black" points="1210.5,-706.88 1216.88,-698.42 1206.61,-701.05 1210.5,-706.88"/>
</g>
<!-- exposedRoots&#45;&gt;decisionRoots -->
<g id="edge34" class="edge">
<title>exposedRoots&#45;&gt;decisionRoots</title>
<path fill="none" stroke="black" d="M1128.95,-736.05C1126.13,-728.18 1122.72,-718.62 1119.57,-709.79"/>
<polygon fill="black" stroke="black" points="1122.83,-708.52 1116.17,-700.28 1116.24,-710.87 1122.83,-708.52"/>
</g>
<!-- expandTraceDebugging -->
<g id="node25" class="node">
<title>expandTraceDebugging</title>
<ellipse fill="#ffffb3" stroke="#ffffb3" cx="476" cy="-34" rx="94.78" ry="18"/>
<text text-anchor="middle" x="476" y="-30.3" font-family="Times,serif" font-size="14.00">expandTraceDebugging</text>
</g>
<!-- expandTrace&#45;&gt;expandTraceDebugging -->
<g id="edge33" class="edge">
<title>expandTrace&#45;&gt;expandTraceDebugging</title>
<path fill="none" stroke="black" d="M476,-87.7C476,-79.98 476,-70.71 476,-62.11"/>
<polygon fill="black" stroke="black" points="479.5,-62.1 476,-52.1 472.5,-62.1 479.5,-62.1"/>
</g>
<!-- expandRulesByLabel -->
<g id="node27" class="node">
<title>expandRulesByLabel</title>
<ellipse fill="#ffffb3" stroke="#ffffb3" cx="363" cy="-682" rx="86.38" ry="18"/>
<text text-anchor="middle" x="363" y="-678.3" font-family="Times,serif" font-size="14.00">expandRulesByLabel</text>
</g>
<!-- expandRulesByLabel&#45;&gt;expandRule -->
<g id="edge32" class="edge">
<title>expandRulesByLabel&#45;&gt;expandRule</title>
<path fill="none" stroke="black" d="M368.91,-700.28C369.71,-708.03 369.94,-717.36 369.59,-726.01"/>
<polygon fill="black" stroke="black" points="366.09,-725.83 368.88,-736.05 373.08,-726.33 366.09,-725.83"/>
</g>
<!-- expandRule&#45;&gt;expandRulesByLabel -->
<g id="edge31" class="edge">
<title>expandRule&#45;&gt;expandRulesByLabel</title>
<path fill="none" stroke="black" d="M357.12,-736.05C356.3,-728.35 356.06,-719.03 356.39,-710.36"/>
<polygon fill="black" stroke="black" points="359.89,-710.49 357.09,-700.28 352.91,-710.01 359.89,-710.49"/>
</g>
<!-- expandRP -->
<g id="node29" class="node">
<title>expandRP</title>
<ellipse fill="#ffffb3" stroke="#ffffb3" cx="483" cy="-394" rx="46.59" ry="18"/>
<text text-anchor="middle" x="483" y="-390.3" font-family="Times,serif" font-size="14.00">expandRP</text>
</g>
<!-- expandRP&#45;&gt;expandTrace -->
<g id="edge30" class="edge">
<title>expandRP&#45;&gt;expandTrace</title>
<path fill="none" stroke="black" d="M467.73,-376.78C459.56,-366.95 450.31,-353.7 446,-340 436.24,-308.95 428.86,-276.98 455,-160 456.99,-151.11 460.26,-141.77 463.63,-133.44"/>
<polygon fill="black" stroke="black" points="466.86,-134.8 467.57,-124.23 460.42,-132.05 466.86,-134.8"/>
</g>
<!-- expandMT -->
<g id="node30" class="node">
<title>expandMT</title>
<ellipse fill="#ffffb3" stroke="#ffffb3" cx="505" cy="-322" rx="50.09" ry="18"/>
<text text-anchor="middle" x="505" y="-318.3" font-family="Times,serif" font-size="14.00">expandMT</text>
</g>
<!-- expandRP&#45;&gt;expandMT -->
<g id="edge29" class="edge">
<title>expandRP&#45;&gt;expandMT</title>
<path fill="none" stroke="black" d="M488.33,-376.05C490.78,-368.26 493.74,-358.82 496.49,-350.08"/>
<polygon fill="black" stroke="black" points="499.91,-350.86 499.57,-340.28 493.23,-348.77 499.91,-350.86"/>
</g>
<!-- expandBSR\&#39; -->
<g id="node35" class="node">
<title>expandBSR\&#39;</title>
<ellipse fill="#ffffb3" stroke="#ffffb3" cx="549" cy="-178" rx="53.89" ry="18"/>
<text text-anchor="middle" x="549" y="-174.3" font-family="Times,serif" font-size="14.00">expandBSR&#39;</text>
</g>
<!-- expandRP&#45;&gt;expandBSR\&#39; -->
<g id="edge28" class="edge">
<title>expandRP&#45;&gt;expandBSR\&#39;</title>
<path fill="none" stroke="black" d="M505,-378.09C520.42,-368.79 540.46,-355.63 555,-340 579.93,-313.2 585.82,-303.44 595,-268 599.01,-252.51 601.26,-246.72 595,-232 590.14,-220.58 581.49,-210.43 572.9,-202.14"/>
<polygon fill="black" stroke="black" points="575.21,-199.51 565.47,-195.35 570.49,-204.68 575.21,-199.51"/>
</g>
<!-- expandMT&#45;&gt;expandTrace -->
<g id="edge27" class="edge">
<title>expandMT&#45;&gt;expandTrace</title>
<path fill="none" stroke="black" d="M488.92,-304.92C480.31,-295.14 470.56,-281.89 466,-268 451.1,-222.62 460.49,-166.25 468.42,-133.67"/>
<polygon fill="black" stroke="black" points="471.81,-134.53 470.91,-123.98 465.03,-132.79 471.81,-134.53"/>
</g>
<!-- expandClause -->
<g id="node33" class="node">
<title>expandClause</title>
<ellipse fill="#ffffb3" stroke="#ffffb3" cx="535" cy="-250" rx="59.59" ry="18"/>
<text text-anchor="middle" x="535" y="-246.3" font-family="Times,serif" font-size="14.00">expandClause</text>
</g>
<!-- expandMT&#45;&gt;expandClause -->
<g id="edge26" class="edge">
<title>expandMT&#45;&gt;expandClause</title>
<path fill="none" stroke="black" d="M512.26,-304.05C515.68,-296.09 519.82,-286.41 523.64,-277.51"/>
<polygon fill="black" stroke="black" points="526.87,-278.85 527.6,-268.28 520.44,-276.09 526.87,-278.85"/>
</g>
<!-- expandClauses\&#39; -->
<g id="node31" class="node">
<title>expandClauses\&#39;</title>
<ellipse fill="#ffffb3" stroke="#ffffb3" cx="505" cy="-466" rx="64.99" ry="18"/>
<text text-anchor="middle" x="505" y="-462.3" font-family="Times,serif" font-size="14.00">expandClauses&#39;</text>
</g>
<!-- expandClauses\&#39;&#45;&gt;unleaf -->
<g id="edge25" class="edge">
<title>expandClauses\&#39;&#45;&gt;unleaf</title>
<path fill="none" stroke="black" d="M527.03,-448.76C540.78,-438.64 558.57,-425.53 573.14,-414.79"/>
<polygon fill="black" stroke="black" points="575.31,-417.54 581.29,-408.79 571.16,-411.9 575.31,-417.54"/>
</g>
<!-- expandClauses\&#39;&#45;&gt;expandTrace -->
<g id="edge24" class="edge">
<title>expandClauses\&#39;&#45;&gt;expandTrace</title>
<path fill="none" stroke="black" d="M516.3,-447.99C523.05,-437.68 531.71,-424.2 539,-412 548.39,-396.29 549.47,-391.63 559,-376 569.01,-359.58 574.13,-357.06 583,-340 614.06,-280.27 621.34,-262.76 630,-196 632.06,-180.13 639.29,-173.03 630,-160 609.61,-131.42 572.78,-118.1 540.24,-111.95"/>
<polygon fill="black" stroke="black" points="540.75,-108.49 530.31,-110.27 539.58,-115.39 540.75,-108.49"/>
</g>
<!-- expandClauses\&#39;&#45;&gt;expandRP -->
<g id="edge23" class="edge">
<title>expandClauses\&#39;&#45;&gt;expandRP</title>
<path fill="none" stroke="black" d="M499.67,-448.05C497.22,-440.26 494.26,-430.82 491.51,-422.08"/>
<polygon fill="black" stroke="black" points="494.77,-420.77 488.43,-412.28 488.09,-422.86 494.77,-420.77"/>
</g>
<!-- expandClauses&#45;&gt;expandTrace -->
<g id="edge22" class="edge">
<title>expandClauses&#45;&gt;expandTrace</title>
<path fill="none" stroke="black" d="M468.3,-521.4C454.98,-512.21 439.86,-499.37 431,-484 410.96,-449.25 416,-435.11 416,-395 416,-395 416,-395 416,-249 416,-205.48 440.21,-159.95 457.87,-132.53"/>
<polygon fill="black" stroke="black" points="460.95,-134.22 463.57,-123.95 455.12,-130.34 460.95,-134.22"/>
</g>
<!-- expandClauses&#45;&gt;expandClauses\&#39; -->
<g id="edge21" class="edge">
<title>expandClauses&#45;&gt;expandClauses\&#39;</title>
<path fill="none" stroke="black" d="M497.47,-519.7C498.57,-511.98 499.9,-502.71 501.13,-494.11"/>
<polygon fill="black" stroke="black" points="504.61,-494.5 502.56,-484.1 497.68,-493.51 504.61,-494.5"/>
</g>
<!-- expandClause&#45;&gt;expandTrace -->
<g id="edge20" class="edge">
<title>expandClause&#45;&gt;expandTrace</title>
<path fill="none" stroke="black" d="M515.01,-232.99C504.54,-223.42 492.57,-210.36 486,-196 477.17,-176.71 474.92,-152.69 474.73,-134.48"/>
<polygon fill="black" stroke="black" points="478.23,-134.27 474.84,-124.24 471.23,-134.2 478.23,-134.27"/>
</g>
<!-- expandClause&#45;&gt;expandBSR\&#39; -->
<g id="edge19" class="edge">
<title>expandClause&#45;&gt;expandBSR\&#39;</title>
<path fill="none" stroke="black" d="M538.46,-231.7C540,-223.98 541.86,-214.71 543.58,-206.11"/>
<polygon fill="black" stroke="black" points="547.05,-206.6 545.58,-196.1 540.19,-205.22 547.05,-206.6"/>
</g>
<!-- expandBody -->
<g id="node34" class="node">
<title>expandBody</title>
<ellipse fill="#ffffb3" stroke="#ffffb3" cx="283" cy="-826" rx="55.49" ry="18"/>
<text text-anchor="middle" x="283" y="-822.3" font-family="Times,serif" font-size="14.00">expandBody</text>
</g>
<!-- expandBSR\&#39;&#45;&gt;expandTrace -->
<g id="edge18" class="edge">
<title>expandBSR\&#39;&#45;&gt;expandTrace</title>
<path fill="none" stroke="black" d="M532.07,-160.76C522.65,-151.73 510.75,-140.33 500.35,-130.35"/>
<polygon fill="black" stroke="black" points="502.73,-127.78 493.09,-123.39 497.89,-132.84 502.73,-127.78"/>
</g>
<!-- expandBSR\&#39;&#45;&gt;expandRP -->
<g id="edge17" class="edge">
<title>expandBSR\&#39;&#45;&gt;expandRP</title>
<path fill="none" stroke="black" d="M578.47,-193.13C591.96,-202.51 606.2,-216.01 613,-232 619.26,-246.72 617.01,-252.51 613,-268 603.82,-303.44 597.93,-313.2 573,-340 559.48,-354.54 541.19,-366.94 524.53,-376.09"/>
<polygon fill="black" stroke="black" points="522.71,-373.09 515.48,-380.83 525.96,-379.29 522.71,-373.09"/>
</g>
<!-- expandBSR\&#39;&#45;&gt;expandBSR\&#39; -->
<g id="edge16" class="edge">
<title>expandBSR\&#39;&#45;&gt;expandBSR\&#39;</title>
<path fill="none" stroke="black" d="M586.02,-191.1C604.48,-192.91 620.95,-188.55 620.95,-178 620.95,-169.43 610.07,-164.94 596.1,-164.53"/>
<polygon fill="black" stroke="black" points="595.88,-161.04 586.02,-164.9 596.14,-168.03 595.88,-161.04"/>
</g>
<!-- expandBSR&#45;&gt;expandTrace -->
<g id="edge15" class="edge">
<title>expandBSR&#45;&gt;expandTrace</title>
<path fill="none" stroke="black" d="M732.81,-232.2C722.1,-211.99 701.42,-178.5 674,-160 633.8,-132.88 580.3,-119.62 539.04,-113.14"/>
<polygon fill="black" stroke="black" points="539.51,-109.67 529.1,-111.67 538.49,-116.59 539.51,-109.67"/>
</g>
<!-- expandBSR&#45;&gt;expandBSR\&#39; -->
<g id="edge14" class="edge">
<title>expandBSR&#45;&gt;expandBSR\&#39;</title>
<path fill="none" stroke="black" d="M706.23,-236.32C674.76,-224.85 628.21,-207.88 593.93,-195.38"/>
<polygon fill="black" stroke="black" points="594.75,-191.96 584.16,-191.82 592.36,-198.53 594.75,-191.96"/>
</g>
<!-- classHierarchy&#45;&gt;classHierarchy -->
<g id="edge13" class="edge">
<title>classHierarchy&#45;&gt;classHierarchy</title>
<path fill="none" stroke="black" d="M253.94,-767.2C274.23,-768.74 292.04,-764.34 292.04,-754 292.04,-745.44 279.83,-740.95 264.11,-740.53"/>
<polygon fill="black" stroke="black" points="263.85,-737.04 253.94,-740.8 264.03,-744.04 263.85,-737.04"/>
</g>
<!-- classGraph&#45;&gt;classGraph -->
<g id="edge12" class="edge">
<title>classGraph&#45;&gt;classGraph</title>
<path fill="none" stroke="black" d="M828.66,-767.06C846.26,-768.97 862.05,-764.62 862.05,-754 862.05,-745.46 851.83,-740.97 838.66,-740.53"/>
<polygon fill="black" stroke="black" points="838.51,-737.04 828.66,-740.94 838.79,-744.03 838.51,-737.04"/>
</g>
<!-- bsr2bsmt -->
<g id="node40" class="node">
<title>bsr2bsmt</title>
<ellipse fill="#ffffb3" stroke="#ffffb3" cx="679" cy="-538" rx="43.59" ry="18"/>
<text text-anchor="middle" x="679" y="-534.3" font-family="Times,serif" font-size="14.00">bsr2bsmt</text>
</g>
<!-- bsr2bsmt&#45;&gt;bsr2bsmt -->
<g id="edge11" class="edge">
<title>bsr2bsmt&#45;&gt;bsr2bsmt</title>
<path fill="none" stroke="black" d="M709.4,-550.94C725.7,-553.14 740.55,-548.83 740.55,-538 740.55,-529.46 731.3,-524.97 719.39,-524.53"/>
<polygon fill="black" stroke="black" points="719.2,-521.04 709.4,-525.06 719.57,-528.03 719.2,-521.04"/>
</g>
<!-- bsmtOfClauses&#45;&gt;expandTrace -->
<g id="edge10" class="edge">
<title>bsmtOfClauses&#45;&gt;expandTrace</title>
<path fill="none" stroke="black" d="M535.09,-592.56C545.18,-582.46 557.92,-568.99 568,-556 614.41,-496.19 633.91,-483.43 659,-412 672.19,-374.44 669,-362.8 669,-323 669,-323 669,-323 669,-249 669,-207.11 667.9,-189.34 638,-160 611.58,-134.08 572.32,-120.84 539.06,-114.07"/>
<polygon fill="black" stroke="black" points="539.42,-110.58 528.95,-112.17 538.13,-117.46 539.42,-110.58"/>
</g>
<!-- bsmtOfClauses&#45;&gt;expandClauses -->
<g id="edge9" class="edge">
<title>bsmtOfClauses&#45;&gt;expandClauses</title>
<path fill="none" stroke="black" d="M512.43,-592.05C509.84,-584.18 506.7,-574.62 503.8,-565.79"/>
<polygon fill="black" stroke="black" points="507.12,-564.68 500.68,-556.28 500.47,-566.87 507.12,-564.68"/>
</g>
<!-- bsmtOfClauses&#45;&gt;bsr2bsmt -->
<g id="edge8" class="edge">
<title>bsmtOfClauses&#45;&gt;bsr2bsmt</title>
<path fill="none" stroke="black" d="M551.36,-594.5C577.39,-583.18 613.59,-567.44 640.79,-555.61"/>
<polygon fill="black" stroke="black" points="642.23,-558.81 650,-551.61 639.44,-552.39 642.23,-558.81"/>
</g>
<!-- biggestItem -->
<g id="node42" class="node">
<title>biggestItem</title>
<ellipse fill="#ffffb3" stroke="#ffffb3" cx="917" cy="-826" rx="52.79" ry="18"/>
<text text-anchor="middle" x="917" y="-822.3" font-family="Times,serif" font-size="14.00">biggestItem</text>
</g>
<!-- biggestItem&#45;&gt;itemsByRule -->
<g id="edge7" class="edge">
<title>biggestItem&#45;&gt;itemsByRule</title>
<path fill="none" stroke="black" d="M887.3,-810.99C877.25,-806.81 865.83,-802.63 855,-800 725.74,-768.57 688.04,-794.88 557,-772 552.03,-771.13 546.88,-770.08 541.75,-768.93"/>
<polygon fill="black" stroke="black" points="542.51,-765.51 531.97,-766.63 540.9,-772.33 542.51,-765.51"/>
</g>
<!-- attrType -->
<g id="node43" class="node">
<title>attrType</title>
<ellipse fill="#ffffb3" stroke="#ffffb3" cx="56" cy="-826" rx="40.09" ry="18"/>
<text text-anchor="middle" x="56" y="-822.3" font-family="Times,serif" font-size="14.00">attrType</text>
</g>
<!-- allCTkeys -->
<g id="node44" class="node">
<title>allCTkeys</title>
<ellipse fill="#ffffb3" stroke="#ffffb3" cx="1280" cy="-754" rx="46.59" ry="18"/>
<text text-anchor="middle" x="1280" y="-750.3" font-family="Times,serif" font-size="14.00">allCTkeys</text>
</g>
<!-- allCTkeys&#45;&gt;getCTkeys -->
<g id="edge2" class="edge">
<title>allCTkeys&#45;&gt;getCTkeys</title>
<path fill="none" stroke="black" d="M1305.5,-738.83C1324.42,-728.32 1350.43,-713.87 1371.25,-702.31"/>
<polygon fill="black" stroke="black" points="1373.07,-705.3 1380.11,-697.38 1369.67,-699.18 1373.07,-705.3"/>
</g>
<!-- allCTkeys&#45;&gt;allCTkeys -->
<g id="edge1" class="edge">
<title>allCTkeys&#45;&gt;allCTkeys</title>
<path fill="none" stroke="black" d="M1312.67,-767.03C1329.57,-769.03 1344.8,-764.69 1344.8,-754 1344.8,-745.57 1335.31,-741.08 1323.01,-740.55"/>
<polygon fill="black" stroke="black" points="1322.52,-737.07 1312.67,-740.97 1322.81,-744.06 1322.52,-737.07"/>
</g>
<!-- asAAsvg -->
<g id="node45" class="node">
<title>asAAsvg</title>
<ellipse fill="#8dd3c7" stroke="#8dd3c7" cx="1742" cy="-826" rx="42.79" ry="18"/>
<text text-anchor="middle" x="1742" y="-822.3" font-family="Times,serif" font-size="14.00">asAAsvg</text>
</g>
<!-- asAAsvg&#45;&gt;isRuleAlias -->
<g id="edge6" class="edge">
<title>asAAsvg&#45;&gt;isRuleAlias</title>
<path fill="none" stroke="black" d="M1736.1,-807.9C1727.93,-787.06 1711.04,-752.58 1684,-736 1619.98,-696.75 1422.45,-709.84 1348,-700 1331.01,-697.75 1312.58,-694.98 1295.83,-692.33"/>
<polygon fill="black" stroke="black" points="1296.07,-688.82 1285.65,-690.7 1294.97,-695.73 1296.07,-688.82"/>
</g>
<!-- asAAsvg&#45;&gt;groupedByAOTree -->
<g id="edge5" class="edge">
<title>asAAsvg&#45;&gt;groupedByAOTree</title>
<path fill="none" stroke="black" d="M1716.98,-811.19C1707.82,-806.8 1697.2,-802.45 1687,-800 1552.68,-767.72 1203.16,-788.4 1066,-772 1058.86,-771.15 1051.42,-770.04 1044.04,-768.79"/>
<polygon fill="black" stroke="black" points="1044.49,-765.32 1034.03,-767.03 1043.27,-772.21 1044.49,-765.32"/>
</g>
<!-- asAAsvg&#45;&gt;exposedRoots -->
<g id="edge4" class="edge">
<title>asAAsvg&#45;&gt;exposedRoots</title>
<path fill="none" stroke="black" d="M1716.96,-811.28C1707.8,-806.9 1697.18,-802.53 1687,-800 1486.93,-750.29 1428.56,-797.61 1224,-772 1213.71,-770.71 1202.82,-768.96 1192.31,-767.07"/>
<polygon fill="black" stroke="black" points="1192.87,-763.61 1182.4,-765.22 1191.59,-770.49 1192.87,-763.61"/>
</g>
<!-- asAAsvg&#45;&gt;expandBSR -->
<g id="edge3" class="edge">
<title>asAAsvg&#45;&gt;expandBSR</title>
<path fill="none" stroke="black" d="M1741.8,-807.95C1741.51,-781.29 1741,-728.12 1741,-683 1741,-683 1741,-683 1741,-393 1741,-297.79 1021.3,-261.93 803.02,-253.24"/>
<polygon fill="black" stroke="black" points="803.14,-249.74 793.01,-252.84 802.86,-256.73 803.14,-249.74"/>
</g>
</g>
</svg>
