<?xml version="1.0" encoding="UTF-8" standalone="no"?>
<!DOCTYPE svg PUBLIC "-//W3C//DTD SVG 1.1//EN"
 "http://www.w3.org/Graphics/SVG/1.1/DTD/svg11.dtd">
<!-- Generated by graphviz version 2.43.0 (0)
 -->
<!-- Title: deps Pages: 1 -->
<svg width="1649pt" height="1107pt"
 viewBox="0.00 0.00 1649.00 1107.00" xmlns="http://www.w3.org/2000/svg" xmlns:xlink="http://www.w3.org/1999/xlink">
<g id="graph0" class="graph" transform="scale(1 1) rotate(0) translate(4 1103)">
<title>deps</title>
<polygon fill="white" stroke="transparent" points="-4,4 -4,-1103 1645,-1103 1645,4 -4,4"/>
<g id="clust1" class="cluster">
<title>cluster_1</title>
<polygon fill="none" stroke="black" points="8,-8 8,-1091 1633,-1091 1633,-8 8,-8"/>
<text text-anchor="middle" x="820.5" y="-1075.8" font-family="Times,serif" font-size="14.00">src/LS/Interpreter.hs</text>
</g>
<!-- unleaf -->
<g id="node1" class="node">
<title>unleaf</title>
<ellipse fill="#8dd3c7" stroke="#8dd3c7" cx="878" cy="-538" rx="32.49" ry="18"/>
<text text-anchor="middle" x="878" y="-534.3" font-family="Times,serif" font-size="14.00">unleaf</text>
</g>
<!-- unleaf&#45;&gt;unleaf -->
<g id="edge70" class="edge">
<title>unleaf&#45;&gt;unleaf</title>
<path fill="none" stroke="black" d="M901.37,-550.66C915.35,-553.47 928.5,-549.25 928.5,-538 928.5,-529.56 921.1,-525.08 911.51,-524.55"/>
<polygon fill="black" stroke="black" points="911.07,-521.08 901.37,-525.34 911.62,-528.05 911.07,-521.08"/>
</g>
<!-- topsortedClasses -->
<g id="node2" class="node">
<title>topsortedClasses</title>
<ellipse fill="#8dd3c7" stroke="#8dd3c7" cx="1541" cy="-1042" rx="69.59" ry="18"/>
<text text-anchor="middle" x="1541" y="-1038.3" font-family="Times,serif" font-size="14.00">topsortedClasses</text>
</g>
<!-- getInheritances -->
<g id="node25" class="node">
<title>getInheritances</title>
<ellipse fill="#8dd3c7" stroke="#8dd3c7" cx="1541" cy="-970" rx="64.19" ry="18"/>
<text text-anchor="middle" x="1541" y="-966.3" font-family="Times,serif" font-size="14.00">getInheritances</text>
</g>
<!-- topsortedClasses&#45;&gt;getInheritances -->
<g id="edge69" class="edge">
<title>topsortedClasses&#45;&gt;getInheritances</title>
<path fill="none" stroke="black" d="M1541,-1023.7C1541,-1015.98 1541,-1006.71 1541,-998.11"/>
<polygon fill="black" stroke="black" points="1544.5,-998.1 1541,-988.1 1537.5,-998.1 1544.5,-998.1"/>
</g>
<!-- getCTkeys -->
<g id="node26" class="node">
<title>getCTkeys</title>
<ellipse fill="#8dd3c7" stroke="#8dd3c7" cx="1527" cy="-898" rx="48.99" ry="18"/>
<text text-anchor="middle" x="1527" y="-894.3" font-family="Times,serif" font-size="14.00">getCTkeys</text>
</g>
<!-- topsortedClasses&#45;&gt;getCTkeys -->
<g id="edge68" class="edge">
<title>topsortedClasses&#45;&gt;getCTkeys</title>
<path fill="none" stroke="black" d="M1574.07,-1025.98C1589.17,-1017.22 1605.54,-1004.6 1614,-988 1621.27,-973.75 1621.84,-965.95 1614,-952 1604.64,-935.35 1587.7,-923.31 1571.23,-914.96"/>
<polygon fill="black" stroke="black" points="1572.72,-911.8 1562.18,-910.7 1569.74,-918.13 1572.72,-911.8"/>
</g>
<!-- getAttrTypesIn -->
<g id="node27" class="node">
<title>getAttrTypesIn</title>
<ellipse fill="#8dd3c7" stroke="#8dd3c7" cx="1248" cy="-970" rx="63.89" ry="18"/>
<text text-anchor="middle" x="1248" y="-966.3" font-family="Times,serif" font-size="14.00">getAttrTypesIn</text>
</g>
<!-- topsortedClasses&#45;&gt;getAttrTypesIn -->
<g id="edge67" class="edge">
<title>topsortedClasses&#45;&gt;getAttrTypesIn</title>
<path fill="none" stroke="black" d="M1491.63,-1029.2C1440.04,-1016.88 1359.21,-997.57 1304.95,-984.61"/>
<polygon fill="black" stroke="black" points="1305.69,-981.18 1295.15,-982.26 1304.06,-987.99 1305.69,-981.18"/>
</g>
<!-- symbolTable -->
<g id="node3" class="node">
<title>symbolTable</title>
<ellipse fill="#8dd3c7" stroke="#8dd3c7" cx="235" cy="-970" rx="56.59" ry="18"/>
<text text-anchor="middle" x="235" y="-966.3" font-family="Times,serif" font-size="14.00">symbolTable</text>
</g>
<!-- ruleNameStr -->
<g id="node4" class="node">
<title>ruleNameStr</title>
<ellipse fill="#8dd3c7" stroke="#8dd3c7" cx="1130" cy="-1042" rx="55.79" ry="18"/>
<text text-anchor="middle" x="1130" y="-1038.3" font-family="Times,serif" font-size="14.00">ruleNameStr</text>
</g>
<!-- ruleLocalsOut -->
<g id="node5" class="node">
<title>ruleLocalsOut</title>
<ellipse fill="#8dd3c7" stroke="#8dd3c7" cx="827" cy="-898" rx="61.19" ry="18"/>
<text text-anchor="middle" x="827" y="-894.3" font-family="Times,serif" font-size="14.00">ruleLocalsOut</text>
</g>
<!-- ruleLocalsIn -->
<g id="node6" class="node">
<title>ruleLocalsIn</title>
<ellipse fill="#8dd3c7" stroke="#8dd3c7" cx="961" cy="-898" rx="55.49" ry="18"/>
<text text-anchor="middle" x="961" y="-894.3" font-family="Times,serif" font-size="14.00">ruleLocalsIn</text>
</g>
<!-- ruleLocals -->
<g id="node7" class="node">
<title>ruleLocals</title>
<ellipse fill="#8dd3c7" stroke="#8dd3c7" cx="948" cy="-970" rx="48.19" ry="18"/>
<text text-anchor="middle" x="948" y="-966.3" font-family="Times,serif" font-size="14.00">ruleLocals</text>
</g>
<!-- ruleLocals&#45;&gt;ruleLocalsOut -->
<g id="edge66" class="edge">
<title>ruleLocals&#45;&gt;ruleLocalsOut</title>
<path fill="none" stroke="black" d="M922.93,-954.5C905.48,-944.4 881.96,-930.79 862.58,-919.58"/>
<polygon fill="black" stroke="black" points="864.13,-916.43 853.72,-914.46 860.62,-922.49 864.13,-916.43"/>
</g>
<!-- ruleLocals&#45;&gt;ruleLocalsIn -->
<g id="edge65" class="edge">
<title>ruleLocals&#45;&gt;ruleLocalsIn</title>
<path fill="none" stroke="black" d="M951.21,-951.7C952.65,-943.98 954.37,-934.71 955.96,-926.11"/>
<polygon fill="black" stroke="black" points="959.44,-926.58 957.82,-916.1 952.56,-925.3 959.44,-926.58"/>
</g>
<!-- ruleDecisionGraph -->
<g id="node8" class="node">
<title>ruleDecisionGraph</title>
<ellipse fill="#8dd3c7" stroke="#8dd3c7" cx="450" cy="-754" rx="77.19" ry="18"/>
<text text-anchor="middle" x="450" y="-750.3" font-family="Times,serif" font-size="14.00">ruleDecisionGraph</text>
</g>
<!-- relPredRefsAll -->
<g id="node9" class="node">
<title>relPredRefsAll</title>
<ellipse fill="#8dd3c7" stroke="#8dd3c7" cx="450" cy="-682" rx="63.89" ry="18"/>
<text text-anchor="middle" x="450" y="-678.3" font-family="Times,serif" font-size="14.00">relPredRefsAll</text>
</g>
<!-- ruleDecisionGraph&#45;&gt;relPredRefsAll -->
<g id="edge64" class="edge">
<title>ruleDecisionGraph&#45;&gt;relPredRefsAll</title>
<path fill="none" stroke="black" d="M450,-735.7C450,-727.98 450,-718.71 450,-710.11"/>
<polygon fill="black" stroke="black" points="453.5,-710.1 450,-700.1 446.5,-710.1 453.5,-710.1"/>
</g>
<!-- relPredRefs -->
<g id="node10" class="node">
<title>relPredRefs</title>
<ellipse fill="#8dd3c7" stroke="#8dd3c7" cx="450" cy="-610" rx="51.99" ry="18"/>
<text text-anchor="middle" x="450" y="-606.3" font-family="Times,serif" font-size="14.00">relPredRefs</text>
</g>
<!-- relPredRefsAll&#45;&gt;relPredRefs -->
<g id="edge63" class="edge">
<title>relPredRefsAll&#45;&gt;relPredRefs</title>
<path fill="none" stroke="black" d="M450,-663.7C450,-655.98 450,-646.71 450,-638.11"/>
<polygon fill="black" stroke="black" points="453.5,-638.1 450,-628.1 446.5,-638.1 453.5,-638.1"/>
</g>
<!-- qaHornsT -->
<g id="node11" class="node">
<title>qaHornsT</title>
<ellipse fill="#8dd3c7" stroke="#8dd3c7" cx="1080" cy="-970" rx="46.29" ry="18"/>
<text text-anchor="middle" x="1080" y="-966.3" font-family="Times,serif" font-size="14.00">qaHornsT</text>
</g>
<!-- qaHornsR -->
<g id="node12" class="node">
<title>qaHornsR</title>
<ellipse fill="#8dd3c7" stroke="#8dd3c7" cx="1080" cy="-898" rx="46.29" ry="18"/>
<text text-anchor="middle" x="1080" y="-894.3" font-family="Times,serif" font-size="14.00">qaHornsR</text>
</g>
<!-- qaHornsT&#45;&gt;qaHornsR -->
<g id="edge62" class="edge">
<title>qaHornsT&#45;&gt;qaHornsR</title>
<path fill="none" stroke="black" d="M1080,-951.7C1080,-943.98 1080,-934.71 1080,-926.11"/>
<polygon fill="black" stroke="black" points="1083.5,-926.1 1080,-916.1 1076.5,-926.1 1083.5,-926.1"/>
</g>
<!-- groupedByAOTree -->
<g id="node19" class="node">
<title>groupedByAOTree</title>
<ellipse fill="#8dd3c7" stroke="#8dd3c7" cx="1077" cy="-826" rx="78.79" ry="18"/>
<text text-anchor="middle" x="1077" y="-822.3" font-family="Times,serif" font-size="14.00">groupedByAOTree</text>
</g>
<!-- qaHornsR&#45;&gt;groupedByAOTree -->
<g id="edge61" class="edge">
<title>qaHornsR&#45;&gt;groupedByAOTree</title>
<path fill="none" stroke="black" d="M1079.26,-879.7C1078.93,-871.98 1078.53,-862.71 1078.16,-854.11"/>
<polygon fill="black" stroke="black" points="1081.66,-853.95 1077.73,-844.1 1074.66,-854.25 1081.66,-853.95"/>
</g>
<!-- exposedRoots -->
<g id="node30" class="node">
<title>exposedRoots</title>
<ellipse fill="#8dd3c7" stroke="#8dd3c7" cx="606" cy="-826" rx="59.59" ry="18"/>
<text text-anchor="middle" x="606" y="-822.3" font-family="Times,serif" font-size="14.00">exposedRoots</text>
</g>
<!-- qaHornsR&#45;&gt;exposedRoots -->
<g id="edge60" class="edge">
<title>qaHornsR&#45;&gt;exposedRoots</title>
<path fill="none" stroke="black" d="M1046.21,-885.55C1039.26,-883.47 1031.94,-881.5 1025,-880 902.54,-853.54 756.88,-838.79 673.56,-831.91"/>
<polygon fill="black" stroke="black" points="673.71,-828.41 663.46,-831.09 673.14,-835.38 673.71,-828.41"/>
</g>
<!-- expandBSR -->
<g id="node42" class="node">
<title>expandBSR</title>
<ellipse fill="#8dd3c7" stroke="#8dd3c7" cx="890" cy="-250" rx="52.79" ry="18"/>
<text text-anchor="middle" x="890" y="-246.3" font-family="Times,serif" font-size="14.00">expandBSR</text>
</g>
<!-- qaHornsR&#45;&gt;expandBSR -->
<g id="edge59" class="edge">
<title>qaHornsR&#45;&gt;expandBSR</title>
<path fill="none" stroke="black" d="M1049.21,-884.53C977.82,-855.15 807,-782.05 807,-755 807,-755 807,-755 807,-537 807,-432.8 786.14,-397.07 833,-304 839.04,-292 848.99,-281.33 858.89,-272.76"/>
<polygon fill="black" stroke="black" points="861.21,-275.39 866.76,-266.36 856.79,-269.96 861.21,-275.39"/>
</g>
<!-- onlyTheItems -->
<g id="node13" class="node">
<title>onlyTheItems</title>
<ellipse fill="#8dd3c7" stroke="#8dd3c7" cx="1366" cy="-826" rx="59.59" ry="18"/>
<text text-anchor="middle" x="1366" y="-822.3" font-family="Times,serif" font-size="14.00">onlyTheItems</text>
</g>
<!-- getAndOrTree -->
<g id="node28" class="node">
<title>getAndOrTree</title>
<ellipse fill="#8dd3c7" stroke="#8dd3c7" cx="1231" cy="-754" rx="61.99" ry="18"/>
<text text-anchor="middle" x="1231" y="-750.3" font-family="Times,serif" font-size="14.00">getAndOrTree</text>
</g>
<!-- onlyTheItems&#45;&gt;getAndOrTree -->
<g id="edge58" class="edge">
<title>onlyTheItems&#45;&gt;getAndOrTree</title>
<path fill="none" stroke="black" d="M1337.37,-810.15C1317.46,-799.83 1290.7,-785.96 1269.01,-774.71"/>
<polygon fill="black" stroke="black" points="1270.54,-771.56 1260.05,-770.07 1267.32,-777.78 1270.54,-771.56"/>
</g>
<!-- onlyItemNamed -->
<g id="node14" class="node">
<title>onlyItemNamed</title>
<ellipse fill="#8dd3c7" stroke="#8dd3c7" cx="1233" cy="-898" rx="68.79" ry="18"/>
<text text-anchor="middle" x="1233" y="-894.3" font-family="Times,serif" font-size="14.00">onlyItemNamed</text>
</g>
<!-- itemsByRule -->
<g id="node17" class="node">
<title>itemsByRule</title>
<ellipse fill="#8dd3c7" stroke="#8dd3c7" cx="1231" cy="-826" rx="57.39" ry="18"/>
<text text-anchor="middle" x="1231" y="-822.3" font-family="Times,serif" font-size="14.00">itemsByRule</text>
</g>
<!-- onlyItemNamed&#45;&gt;itemsByRule -->
<g id="edge57" class="edge">
<title>onlyItemNamed&#45;&gt;itemsByRule</title>
<path fill="none" stroke="black" d="M1232.51,-879.7C1232.29,-871.98 1232.02,-862.71 1231.77,-854.11"/>
<polygon fill="black" stroke="black" points="1235.27,-854 1231.49,-844.1 1228.28,-854.2 1235.27,-854"/>
</g>
<!-- musings -->
<g id="node15" class="node">
<title>musings</title>
<ellipse fill="#8dd3c7" stroke="#8dd3c7" cx="748" cy="-1042" rx="40.09" ry="18"/>
<text text-anchor="middle" x="748" y="-1038.3" font-family="Times,serif" font-size="14.00">musings</text>
</g>
<!-- musings&#45;&gt;ruleLocals -->
<g id="edge56" class="edge">
<title>musings&#45;&gt;ruleLocals</title>
<path fill="none" stroke="black" d="M778.81,-1030.22C812.41,-1018.46 866.44,-999.55 904.38,-986.27"/>
<polygon fill="black" stroke="black" points="905.86,-989.46 914.14,-982.85 903.55,-982.85 905.86,-989.46"/>
</g>
<!-- musings&#45;&gt;ruleDecisionGraph -->
<g id="edge55" class="edge">
<title>musings&#45;&gt;ruleDecisionGraph</title>
<path fill="none" stroke="black" d="M717.09,-1030.4C710.78,-1028.26 704.18,-1026.04 698,-1024 648.36,-1007.58 624.49,-1023.39 586,-988 573.24,-976.27 580.33,-966.61 571,-952 559.32,-933.71 550.63,-933.65 538,-916 506.25,-871.63 477.59,-814.56 462.1,-781.65"/>
<polygon fill="black" stroke="black" points="465.12,-779.84 457.73,-772.25 458.77,-782.79 465.12,-779.84"/>
</g>
<!-- musings&#45;&gt;qaHornsT -->
<g id="edge54" class="edge">
<title>musings&#45;&gt;qaHornsT</title>
<path fill="none" stroke="black" d="M785.17,-1034.77C837.74,-1025.74 936.7,-1007.88 1020,-988 1024.75,-986.87 1029.69,-985.6 1034.61,-984.29"/>
<polygon fill="black" stroke="black" points="1035.87,-987.58 1044.59,-981.56 1034.03,-980.82 1035.87,-987.58"/>
</g>
<!-- musings&#45;&gt;qaHornsR -->
<g id="edge53" class="edge">
<title>musings&#45;&gt;qaHornsR</title>
<path fill="none" stroke="black" d="M786.72,-1036.99C849.69,-1029.83 970.72,-1013.18 1005,-988 1019.75,-977.16 1013.84,-966.51 1025,-952 1033.42,-941.05 1044.09,-930.24 1053.79,-921.26"/>
<polygon fill="black" stroke="black" points="1056.22,-923.79 1061.3,-914.49 1051.53,-918.59 1056.22,-923.79"/>
</g>
<!-- isRuleAlias -->
<g id="node18" class="node">
<title>isRuleAlias</title>
<ellipse fill="#8dd3c7" stroke="#8dd3c7" cx="736" cy="-754" rx="51.99" ry="18"/>
<text text-anchor="middle" x="736" y="-750.3" font-family="Times,serif" font-size="14.00">isRuleAlias</text>
</g>
<!-- musings&#45;&gt;isRuleAlias -->
<g id="edge52" class="edge">
<title>musings&#45;&gt;isRuleAlias</title>
<path fill="none" stroke="black" d="M747.29,-1023.97C745.28,-976.29 739.62,-841.18 737.16,-782.63"/>
<polygon fill="black" stroke="black" points="740.64,-782.15 736.73,-772.31 733.65,-782.44 740.64,-782.15"/>
</g>
<!-- musings&#45;&gt;groupedByAOTree -->
<g id="edge51" class="edge">
<title>musings&#45;&gt;groupedByAOTree</title>
<path fill="none" stroke="black" d="M788.38,-1041.83C878.23,-1042.72 1090.31,-1039.23 1135,-988 1166.55,-951.83 1154.36,-923.92 1135,-880 1129.8,-868.2 1120.53,-857.89 1110.91,-849.58"/>
<polygon fill="black" stroke="black" points="1112.81,-846.61 1102.82,-843.07 1108.42,-852.07 1112.81,-846.61"/>
</g>
<!-- globalFacts -->
<g id="node20" class="node">
<title>globalFacts</title>
<ellipse fill="#8dd3c7" stroke="#8dd3c7" cx="381" cy="-970" rx="51.19" ry="18"/>
<text text-anchor="middle" x="381" y="-966.3" font-family="Times,serif" font-size="14.00">globalFacts</text>
</g>
<!-- musings&#45;&gt;globalFacts -->
<g id="edge50" class="edge">
<title>musings&#45;&gt;globalFacts</title>
<path fill="none" stroke="black" d="M718.13,-1029.82C711.56,-1027.65 704.6,-1025.57 698,-1024 585.79,-997.32 553.86,-1011.78 441,-988 436.83,-987.12 432.52,-986.11 428.22,-985.03"/>
<polygon fill="black" stroke="black" points="428.81,-981.57 418.25,-982.41 427.03,-988.34 428.81,-981.57"/>
</g>
<!-- getMarkings -->
<g id="node24" class="node">
<title>getMarkings</title>
<ellipse fill="#8dd3c7" stroke="#8dd3c7" cx="506" cy="-970" rx="55.79" ry="18"/>
<text text-anchor="middle" x="506" y="-966.3" font-family="Times,serif" font-size="14.00">getMarkings</text>
</g>
<!-- musings&#45;&gt;getMarkings -->
<g id="edge49" class="edge">
<title>musings&#45;&gt;getMarkings</title>
<path fill="none" stroke="black" d="M717.15,-1030.2C710.84,-1028.07 704.22,-1025.91 698,-1024 650.97,-1009.53 596.91,-994.77 558.16,-984.52"/>
<polygon fill="black" stroke="black" points="558.72,-981.04 548.15,-981.88 556.93,-987.81 558.72,-981.04"/>
</g>
<!-- musings&#45;&gt;getAndOrTree -->
<g id="edge48" class="edge">
<title>musings&#45;&gt;getAndOrTree</title>
<path fill="none" stroke="black" d="M788.18,-1039.68C877.34,-1036.13 1088.63,-1024.05 1149,-988 1165.94,-977.88 1158.09,-962.17 1175,-952 1274.97,-891.88 1358.38,-1003.96 1435,-916 1466.53,-879.81 1464.37,-845.97 1435,-808 1418.04,-786.08 1349.72,-771.54 1296.76,-763.33"/>
<polygon fill="black" stroke="black" points="1297.14,-759.84 1286.73,-761.82 1296.1,-766.77 1297.14,-759.84"/>
</g>
<!-- musings&#45;&gt;exposedRoots -->
<g id="edge47" class="edge">
<title>musings&#45;&gt;exposedRoots</title>
<path fill="none" stroke="black" d="M717.19,-1030.17C679.53,-1016.75 619.69,-994.84 611,-988 595.69,-975.96 598.79,-966.69 586,-952 570.51,-934.21 556.46,-937.61 547,-916 540.58,-901.34 540.48,-894.61 547,-880 552.49,-867.7 562.4,-857.05 572.55,-848.6"/>
<polygon fill="black" stroke="black" points="574.91,-851.2 580.66,-842.3 570.62,-845.67 574.91,-851.2"/>
</g>
<!-- expandRule -->
<g id="node34" class="node">
<title>expandRule</title>
<ellipse fill="#8dd3c7" stroke="#8dd3c7" cx="673" cy="-970" rx="52.79" ry="18"/>
<text text-anchor="middle" x="673" y="-966.3" font-family="Times,serif" font-size="14.00">expandRule</text>
</g>
<!-- musings&#45;&gt;expandRule -->
<g id="edge46" class="edge">
<title>musings&#45;&gt;expandRule</title>
<path fill="none" stroke="black" d="M731.36,-1025.46C721.47,-1016.24 708.74,-1004.36 697.7,-994.05"/>
<polygon fill="black" stroke="black" points="700.08,-991.49 690.38,-987.22 695.3,-996.6 700.08,-991.49"/>
</g>
<!-- musings&#45;&gt;expandBSR -->
<g id="edge45" class="edge">
<title>musings&#45;&gt;expandBSR</title>
<path fill="none" stroke="black" d="M718.44,-1029.69C711.8,-1027.5 704.72,-1025.44 698,-1024 615.72,-1006.34 377.61,-1050.27 321,-988 310.24,-976.16 319.51,-967.93 321,-952 336.18,-789.88 299.77,-728.21 389,-592 504.5,-415.69 746.03,-306.5 845.61,-267.35"/>
<polygon fill="black" stroke="black" points="847.03,-270.56 855.08,-263.67 844.49,-264.03 847.03,-270.56"/>
</g>
<!-- classGraph -->
<g id="node46" class="node">
<title>classGraph</title>
<ellipse fill="#8dd3c7" stroke="#8dd3c7" cx="814" cy="-970" rx="50.09" ry="18"/>
<text text-anchor="middle" x="814" y="-966.3" font-family="Times,serif" font-size="14.00">classGraph</text>
</g>
<!-- musings&#45;&gt;classGraph -->
<g id="edge44" class="edge">
<title>musings&#45;&gt;classGraph</title>
<path fill="none" stroke="black" d="M762.98,-1025.12C771.46,-1016.12 782.24,-1004.68 791.71,-994.65"/>
<polygon fill="black" stroke="black" points="794.31,-996.98 798.62,-987.31 789.22,-992.18 794.31,-996.98"/>
</g>
<!-- l4interpret -->
<g id="node16" class="node">
<title>l4interpret</title>
<ellipse fill="#8dd3c7" stroke="#8dd3c7" cx="642" cy="-1042" rx="47.39" ry="18"/>
<text text-anchor="middle" x="642" y="-1038.3" font-family="Times,serif" font-size="14.00">l4interpret</text>
</g>
<!-- l4interpret&#45;&gt;symbolTable -->
<g id="edge43" class="edge">
<title>l4interpret&#45;&gt;symbolTable</title>
<path fill="none" stroke="black" d="M607.58,-1029.57C600.5,-1027.49 593.05,-1025.51 586,-1024 463.32,-997.69 429.41,-1010.64 306,-988 300.09,-986.92 293.93,-985.65 287.83,-984.31"/>
<polygon fill="black" stroke="black" points="288.17,-980.8 277.64,-981.99 286.62,-987.62 288.17,-980.8"/>
</g>
<!-- classHierarchy -->
<g id="node45" class="node">
<title>classHierarchy</title>
<ellipse fill="#8dd3c7" stroke="#8dd3c7" cx="79" cy="-970" rx="63.09" ry="18"/>
<text text-anchor="middle" x="79" y="-966.3" font-family="Times,serif" font-size="14.00">classHierarchy</text>
</g>
<!-- l4interpret&#45;&gt;classHierarchy -->
<g id="edge42" class="edge">
<title>l4interpret&#45;&gt;classHierarchy</title>
<path fill="none" stroke="black" d="M607.93,-1029.42C600.76,-1027.34 593.18,-1025.38 586,-1024 403.34,-988.79 353.29,-1013.3 169,-988 159.08,-986.64 148.58,-984.92 138.41,-983.1"/>
<polygon fill="black" stroke="black" points="138.84,-979.62 128.37,-981.25 137.57,-986.5 138.84,-979.62"/>
</g>
<!-- itemsByRule&#45;&gt;getAndOrTree -->
<g id="edge41" class="edge">
<title>itemsByRule&#45;&gt;getAndOrTree</title>
<path fill="none" stroke="black" d="M1231,-807.7C1231,-799.98 1231,-790.71 1231,-782.11"/>
<polygon fill="black" stroke="black" points="1234.5,-782.1 1231,-772.1 1227.5,-782.1 1234.5,-782.1"/>
</g>
<!-- groupedByAOTree&#45;&gt;getAndOrTree -->
<g id="edge40" class="edge">
<title>groupedByAOTree&#45;&gt;getAndOrTree</title>
<path fill="none" stroke="black" d="M1110.8,-809.64C1134.11,-799.04 1165.25,-784.89 1189.99,-773.64"/>
<polygon fill="black" stroke="black" points="1191.47,-776.81 1199.12,-769.49 1188.57,-770.44 1191.47,-776.81"/>
</g>
<!-- getRuleByName -->
<g id="node21" class="node">
<title>getRuleByName</title>
<ellipse fill="#8dd3c7" stroke="#8dd3c7" cx="1212" cy="-682" rx="69.59" ry="18"/>
<text text-anchor="middle" x="1212" y="-678.3" font-family="Times,serif" font-size="14.00">getRuleByName</text>
</g>
<!-- getRuleByLabelName -->
<g id="node22" class="node">
<title>getRuleByLabelName</title>
<ellipse fill="#8dd3c7" stroke="#8dd3c7" cx="487" cy="-1042" rx="89.88" ry="18"/>
<text text-anchor="middle" x="487" y="-1038.3" font-family="Times,serif" font-size="14.00">getRuleByLabelName</text>
</g>
<!-- getRuleByLabel -->
<g id="node23" class="node">
<title>getRuleByLabel</title>
<ellipse fill="#8dd3c7" stroke="#8dd3c7" cx="311" cy="-1042" rx="68.49" ry="18"/>
<text text-anchor="middle" x="311" y="-1038.3" font-family="Times,serif" font-size="14.00">getRuleByLabel</text>
</g>
<!-- getInheritances&#45;&gt;getCTkeys -->
<g id="edge39" class="edge">
<title>getInheritances&#45;&gt;getCTkeys</title>
<path fill="none" stroke="black" d="M1537.54,-951.7C1536,-943.98 1534.14,-934.71 1532.42,-926.11"/>
<polygon fill="black" stroke="black" points="1535.81,-925.22 1530.42,-916.1 1528.95,-926.6 1535.81,-925.22"/>
</g>
<!-- getAttrTypesIn&#45;&gt;getCTkeys -->
<g id="edge38" class="edge">
<title>getAttrTypesIn&#45;&gt;getCTkeys</title>
<path fill="none" stroke="black" d="M1294.07,-957.44C1344.71,-944.74 1425.75,-924.4 1477.66,-911.38"/>
<polygon fill="black" stroke="black" points="1478.78,-914.71 1487.63,-908.88 1477.08,-907.92 1478.78,-914.71"/>
</g>
<!-- getAttrTypesIn&#45;&gt;getAttrTypesIn -->
<g id="edge37" class="edge">
<title>getAttrTypesIn&#45;&gt;getAttrTypesIn</title>
<path fill="none" stroke="black" d="M1291.71,-983.23C1311.98,-984.68 1329.69,-980.27 1329.69,-970 1329.69,-961.5 1317.55,-957.01 1301.86,-956.54"/>
<polygon fill="black" stroke="black" points="1301.63,-953.05 1291.71,-956.77 1301.78,-960.04 1301.63,-953.05"/>
</g>
<!-- getAndOrTree&#45;&gt;getRuleByName -->
<g id="edge36" class="edge">
<title>getAndOrTree&#45;&gt;getRuleByName</title>
<path fill="none" stroke="black" d="M1226.3,-735.7C1224.19,-727.9 1221.64,-718.51 1219.28,-709.83"/>
<polygon fill="black" stroke="black" points="1222.64,-708.84 1216.64,-700.1 1215.88,-710.67 1222.64,-708.84"/>
</g>
<!-- getAndOrTree&#45;&gt;getAndOrTree -->
<g id="edge35" class="edge">
<title>getAndOrTree&#45;&gt;getAndOrTree</title>
<path fill="none" stroke="black" d="M1273.26,-767.2C1293.22,-768.74 1310.74,-764.34 1310.74,-754 1310.74,-745.44 1298.72,-740.95 1283.25,-740.53"/>
<polygon fill="black" stroke="black" points="1283.16,-737.03 1273.26,-740.8 1283.34,-744.03 1283.16,-737.03"/>
</g>
<!-- extractRPMT2Text -->
<g id="node29" class="node">
<title>extractRPMT2Text</title>
<ellipse fill="#8dd3c7" stroke="#8dd3c7" cx="1379" cy="-682" rx="79.09" ry="18"/>
<text text-anchor="middle" x="1379" y="-678.3" font-family="Times,serif" font-size="14.00">extractRPMT2Text</text>
</g>
<!-- getAndOrTree&#45;&gt;extractRPMT2Text -->
<g id="edge34" class="edge">
<title>getAndOrTree&#45;&gt;extractRPMT2Text</title>
<path fill="none" stroke="black" d="M1262.03,-738.33C1283.8,-728.03 1313.17,-714.13 1337.04,-702.85"/>
<polygon fill="black" stroke="black" points="1338.68,-705.94 1346.22,-698.5 1335.68,-699.62 1338.68,-705.94"/>
</g>
<!-- expandTrace -->
<g id="node32" class="node">
<title>expandTrace</title>
<ellipse fill="#8dd3c7" stroke="#8dd3c7" cx="986" cy="-106" rx="55.79" ry="18"/>
<text text-anchor="middle" x="986" y="-102.3" font-family="Times,serif" font-size="14.00">expandTrace</text>
</g>
<!-- getAndOrTree&#45;&gt;expandTrace -->
<g id="edge33" class="edge">
<title>getAndOrTree&#45;&gt;expandTrace</title>
<path fill="none" stroke="black" d="M1288.81,-747.64C1350.85,-740.62 1443.66,-726.03 1467,-700 1493.57,-670.36 1477,-650.8 1477,-611 1477,-611 1477,-611 1477,-249 1477,-161.11 1183.02,-124.21 1050.01,-112.02"/>
<polygon fill="black" stroke="black" points="1050.22,-108.52 1039.95,-111.12 1049.6,-115.5 1050.22,-108.52"/>
</g>
<!-- expandClauses -->
<g id="node37" class="node">
<title>expandClauses</title>
<ellipse fill="#8dd3c7" stroke="#8dd3c7" cx="975" cy="-610" rx="63.89" ry="18"/>
<text text-anchor="middle" x="975" y="-606.3" font-family="Times,serif" font-size="14.00">expandClauses</text>
</g>
<!-- getAndOrTree&#45;&gt;expandClauses -->
<g id="edge32" class="edge">
<title>getAndOrTree&#45;&gt;expandClauses</title>
<path fill="none" stroke="black" d="M1172.51,-748.17C1107.87,-741.54 1009.62,-727.22 985,-700 970.13,-683.56 968.72,-657.82 970.39,-638.24"/>
<polygon fill="black" stroke="black" points="973.89,-638.44 971.57,-628.1 966.94,-637.63 973.89,-638.44"/>
</g>
<!-- bsmtOfClauses -->
<g id="node48" class="node">
<title>bsmtOfClauses</title>
<ellipse fill="#8dd3c7" stroke="#8dd3c7" cx="1059" cy="-682" rx="64.99" ry="18"/>
<text text-anchor="middle" x="1059" y="-678.3" font-family="Times,serif" font-size="14.00">bsmtOfClauses</text>
</g>
<!-- getAndOrTree&#45;&gt;bsmtOfClauses -->
<g id="edge31" class="edge">
<title>getAndOrTree&#45;&gt;bsmtOfClauses</title>
<path fill="none" stroke="black" d="M1196.61,-739C1169.83,-728.11 1132.46,-712.9 1103.42,-701.08"/>
<polygon fill="black" stroke="black" points="1104.51,-697.74 1093.92,-697.21 1101.87,-704.22 1104.51,-697.74"/>
</g>
<!-- exposedRoots&#45;&gt;ruleDecisionGraph -->
<g id="edge30" class="edge">
<title>exposedRoots&#45;&gt;ruleDecisionGraph</title>
<path fill="none" stroke="black" d="M574.05,-810.67C550.71,-800.19 518.8,-785.87 493.19,-774.38"/>
<polygon fill="black" stroke="black" points="494.62,-771.19 484.06,-770.29 491.76,-777.57 494.62,-771.19"/>
</g>
<!-- exposedRoots&#45;&gt;isRuleAlias -->
<g id="edge29" class="edge">
<title>exposedRoots&#45;&gt;isRuleAlias</title>
<path fill="none" stroke="black" d="M633.89,-809.98C653.25,-799.56 679.23,-785.57 700.14,-774.31"/>
<polygon fill="black" stroke="black" points="701.9,-777.34 709.05,-769.51 698.58,-771.17 701.9,-777.34"/>
</g>
<!-- decisionRoots -->
<g id="node44" class="node">
<title>decisionRoots</title>
<ellipse fill="#8dd3c7" stroke="#8dd3c7" cx="606" cy="-754" rx="60.39" ry="18"/>
<text text-anchor="middle" x="606" y="-750.3" font-family="Times,serif" font-size="14.00">decisionRoots</text>
</g>
<!-- exposedRoots&#45;&gt;decisionRoots -->
<g id="edge28" class="edge">
<title>exposedRoots&#45;&gt;decisionRoots</title>
<path fill="none" stroke="black" d="M606,-807.7C606,-799.98 606,-790.71 606,-782.11"/>
<polygon fill="black" stroke="black" points="609.5,-782.1 606,-772.1 602.5,-782.1 609.5,-782.1"/>
</g>
<!-- expandTraceDebugging -->
<g id="node31" class="node">
<title>expandTraceDebugging</title>
<ellipse fill="#8dd3c7" stroke="#8dd3c7" cx="986" cy="-34" rx="94.78" ry="18"/>
<text text-anchor="middle" x="986" y="-30.3" font-family="Times,serif" font-size="14.00">expandTraceDebugging</text>
</g>
<!-- expandTrace&#45;&gt;expandTraceDebugging -->
<g id="edge27" class="edge">
<title>expandTrace&#45;&gt;expandTraceDebugging</title>
<path fill="none" stroke="black" d="M986,-87.7C986,-79.98 986,-70.71 986,-62.11"/>
<polygon fill="black" stroke="black" points="989.5,-62.1 986,-52.1 982.5,-62.1 989.5,-62.1"/>
</g>
<!-- expandRulesByLabel -->
<g id="node33" class="node">
<title>expandRulesByLabel</title>
<ellipse fill="#8dd3c7" stroke="#8dd3c7" cx="642" cy="-898" rx="86.38" ry="18"/>
<text text-anchor="middle" x="642" y="-894.3" font-family="Times,serif" font-size="14.00">expandRulesByLabel</text>
</g>
<!-- expandRulesByLabel&#45;&gt;expandRule -->
<g id="edge26" class="edge">
<title>expandRulesByLabel&#45;&gt;expandRule</title>
<path fill="none" stroke="black" d="M655.47,-916.1C659.77,-923.96 664.21,-933.46 667.73,-942.23"/>
<polygon fill="black" stroke="black" points="664.48,-943.55 671.25,-951.7 671.04,-941.1 664.48,-943.55"/>
</g>
<!-- expandRule&#45;&gt;expandRulesByLabel -->
<g id="edge25" class="edge">
<title>expandRule&#45;&gt;expandRulesByLabel</title>
<path fill="none" stroke="black" d="M659.81,-952.41C655.47,-944.54 650.96,-934.93 647.38,-926.04"/>
<polygon fill="black" stroke="black" points="650.58,-924.59 643.8,-916.45 644.02,-927.04 650.58,-924.59"/>
</g>
<!-- expandRP -->
<g id="node35" class="node">
<title>expandRP</title>
<ellipse fill="#8dd3c7" stroke="#8dd3c7" cx="993" cy="-538" rx="46.59" ry="18"/>
<text text-anchor="middle" x="993" y="-534.3" font-family="Times,serif" font-size="14.00">expandRP</text>
</g>
<!-- expandMT -->
<g id="node36" class="node">
<title>expandMT</title>
<ellipse fill="#8dd3c7" stroke="#8dd3c7" cx="916" cy="-466" rx="50.09" ry="18"/>
<text text-anchor="middle" x="916" y="-462.3" font-family="Times,serif" font-size="14.00">expandMT</text>
</g>
<!-- expandRP&#45;&gt;expandMT -->
<g id="edge24" class="edge">
<title>expandRP&#45;&gt;expandMT</title>
<path fill="none" stroke="black" d="M975.53,-521.12C965.36,-511.87 952.37,-500.07 941.12,-489.84"/>
<polygon fill="black" stroke="black" points="943.42,-487.2 933.67,-483.06 938.71,-492.38 943.42,-487.2"/>
</g>
<!-- expandBSR\&#39; -->
<g id="node41" class="node">
<title>expandBSR\&#39;</title>
<ellipse fill="#8dd3c7" stroke="#8dd3c7" cx="986" cy="-178" rx="53.89" ry="18"/>
<text text-anchor="middle" x="986" y="-174.3" font-family="Times,serif" font-size="14.00">expandBSR&#39;</text>
</g>
<!-- expandRP&#45;&gt;expandBSR\&#39; -->
<g id="edge23" class="edge">
<title>expandRP&#45;&gt;expandBSR\&#39;</title>
<path fill="none" stroke="black" d="M987.09,-519.95C983.51,-493.29 983,-440.12 983,-395 983,-395 983,-395 983,-321 983,-280.96 980.59,-234.63 981.12,-206.07"/>
<polygon fill="black" stroke="black" points="984.61,-206.16 981.47,-196.04 977.62,-205.91 984.61,-206.16"/>
</g>
<!-- expandClause -->
<g id="node39" class="node">
<title>expandClause</title>
<ellipse fill="#8dd3c7" stroke="#8dd3c7" cx="904" cy="-394" rx="59.59" ry="18"/>
<text text-anchor="middle" x="904" y="-390.3" font-family="Times,serif" font-size="14.00">expandClause</text>
</g>
<!-- expandMT&#45;&gt;expandClause -->
<g id="edge22" class="edge">
<title>expandMT&#45;&gt;expandClause</title>
<path fill="none" stroke="black" d="M913.03,-447.7C911.71,-439.98 910.12,-430.71 908.65,-422.11"/>
<polygon fill="black" stroke="black" points="912.07,-421.37 906.93,-412.1 905.17,-422.55 912.07,-421.37"/>
</g>
<!-- expandClauses&#45;&gt;unleaf -->
<g id="edge21" class="edge">
<title>expandClauses&#45;&gt;unleaf</title>
<path fill="none" stroke="black" d="M952.5,-592.76C938.47,-582.64 920.31,-569.53 905.43,-558.79"/>
<polygon fill="black" stroke="black" points="907.26,-555.8 897.11,-552.79 903.17,-561.48 907.26,-555.8"/>
</g>
<!-- expandClauses&#45;&gt;expandTrace -->
<g id="edge20" class="edge">
<title>expandClauses&#45;&gt;expandTrace</title>
<path fill="none" stroke="black" d="M921.54,-600.08C892.96,-592.74 859.18,-579.53 837,-556 762.48,-476.93 763,-431.65 763,-323 763,-323 763,-323 763,-249 763,-208.81 751.63,-189.43 779,-160 798.7,-138.82 871.21,-123.77 924.89,-115.25"/>
<polygon fill="black" stroke="black" points="925.66,-118.67 935.01,-113.68 924.59,-111.76 925.66,-118.67"/>
</g>
<!-- expandClauses&#45;&gt;expandRP -->
<g id="edge19" class="edge">
<title>expandClauses&#45;&gt;expandRP</title>
<path fill="none" stroke="black" d="M979.45,-591.7C981.45,-583.9 983.87,-574.51 986.1,-565.83"/>
<polygon fill="black" stroke="black" points="989.5,-566.66 988.6,-556.1 982.72,-564.92 989.5,-566.66"/>
</g>
<!-- expandClause\&#39; -->
<g id="node38" class="node">
<title>expandClause\&#39;</title>
<ellipse fill="#8dd3c7" stroke="#8dd3c7" cx="904" cy="-322" rx="61.99" ry="18"/>
<text text-anchor="middle" x="904" y="-318.3" font-family="Times,serif" font-size="14.00">expandClause&#39;</text>
</g>
<!-- expandClause\&#39;&#45;&gt;expandBSR -->
<g id="edge18" class="edge">
<title>expandClause\&#39;&#45;&gt;expandBSR</title>
<path fill="none" stroke="black" d="M900.54,-303.7C899,-295.98 897.14,-286.71 895.42,-278.11"/>
<polygon fill="black" stroke="black" points="898.81,-277.22 893.42,-268.1 891.95,-278.6 898.81,-277.22"/>
</g>
<!-- expandClause&#45;&gt;expandClause\&#39; -->
<g id="edge17" class="edge">
<title>expandClause&#45;&gt;expandClause\&#39;</title>
<path fill="none" stroke="black" d="M904,-375.7C904,-367.98 904,-358.71 904,-350.11"/>
<polygon fill="black" stroke="black" points="907.5,-350.1 904,-340.1 900.5,-350.1 907.5,-350.1"/>
</g>
<!-- expandAround -->
<g id="node43" class="node">
<title>expandAround</title>
<ellipse fill="#8dd3c7" stroke="#8dd3c7" cx="851" cy="-178" rx="63.09" ry="18"/>
<text text-anchor="middle" x="851" y="-174.3" font-family="Times,serif" font-size="14.00">expandAround</text>
</g>
<!-- expandClause&#45;&gt;expandAround -->
<g id="edge16" class="edge">
<title>expandClause&#45;&gt;expandAround</title>
<path fill="none" stroke="black" d="M873.76,-378.4C858.81,-369.49 842.06,-356.61 833,-340 809.99,-297.82 818.23,-279.05 828,-232 829.88,-222.96 833.37,-213.58 837.09,-205.26"/>
<polygon fill="black" stroke="black" points="840.32,-206.61 841.46,-196.07 834,-203.6 840.32,-206.61"/>
</g>
<!-- expandBody -->
<g id="node40" class="node">
<title>expandBody</title>
<ellipse fill="#8dd3c7" stroke="#8dd3c7" cx="170" cy="-1042" rx="55.49" ry="18"/>
<text text-anchor="middle" x="170" y="-1038.3" font-family="Times,serif" font-size="14.00">expandBody</text>
</g>
<!-- expandBSR\&#39;&#45;&gt;expandTrace -->
<g id="edge15" class="edge">
<title>expandBSR\&#39;&#45;&gt;expandTrace</title>
<path fill="none" stroke="black" d="M986,-159.7C986,-151.98 986,-142.71 986,-134.11"/>
<polygon fill="black" stroke="black" points="989.5,-134.1 986,-124.1 982.5,-134.1 989.5,-134.1"/>
</g>
<!-- expandBSR\&#39;&#45;&gt;expandRP -->
<g id="edge14" class="edge">
<title>expandBSR\&#39;&#45;&gt;expandRP</title>
<path fill="none" stroke="black" d="M992.9,-196.04C997.93,-222.69 1001,-275.85 1001,-321 1001,-395 1001,-395 1001,-395 1001,-435 1001.4,-481.35 999.4,-509.92"/>
<polygon fill="black" stroke="black" points="995.91,-509.68 998.51,-519.95 1002.88,-510.3 995.91,-509.68"/>
</g>
<!-- expandBSR\&#39;&#45;&gt;expandBSR -->
<g id="edge13" class="edge">
<title>expandBSR\&#39;&#45;&gt;expandBSR</title>
<path fill="none" stroke="black" d="M969.47,-195.29C956.98,-205.2 939.64,-217.94 924.28,-228.53"/>
<polygon fill="black" stroke="black" points="922.3,-225.64 916,-234.15 926.23,-231.43 922.3,-225.64"/>
</g>
<!-- expandBSR&#45;&gt;expandBSR\&#39; -->
<g id="edge12" class="edge">
<title>expandBSR&#45;&gt;expandBSR\&#39;</title>
<path fill="none" stroke="black" d="M906.46,-232.76C918.91,-222.88 936.21,-210.17 951.56,-199.58"/>
<polygon fill="black" stroke="black" points="953.54,-202.47 959.84,-193.95 949.61,-196.68 953.54,-202.47"/>
</g>
<!-- expandBSR&#45;&gt;expandAround -->
<g id="edge11" class="edge">
<title>expandBSR&#45;&gt;expandAround</title>
<path fill="none" stroke="black" d="M880.56,-232.05C876.08,-224.01 870.61,-214.2 865.61,-205.23"/>
<polygon fill="black" stroke="black" points="868.55,-203.31 860.62,-196.28 862.43,-206.71 868.55,-203.31"/>
</g>
<!-- expandAround&#45;&gt;expandTrace -->
<g id="edge10" class="edge">
<title>expandAround&#45;&gt;expandTrace</title>
<path fill="none" stroke="black" d="M879.96,-161.98C900.03,-151.58 926.93,-137.63 948.61,-126.39"/>
<polygon fill="black" stroke="black" points="950.28,-129.46 957.55,-121.75 947.06,-123.25 950.28,-129.46"/>
</g>
<!-- classHierarchy&#45;&gt;classHierarchy -->
<g id="edge9" class="edge">
<title>classHierarchy&#45;&gt;classHierarchy</title>
<path fill="none" stroke="black" d="M121.94,-983.2C142.23,-984.74 160.04,-980.34 160.04,-970 160.04,-961.44 147.83,-956.95 132.11,-956.53"/>
<polygon fill="black" stroke="black" points="131.85,-953.04 121.94,-956.8 132.03,-960.04 131.85,-953.04"/>
</g>
<!-- classGraph&#45;&gt;classGraph -->
<g id="edge8" class="edge">
<title>classGraph&#45;&gt;classGraph</title>
<path fill="none" stroke="black" d="M848.66,-983.06C866.26,-984.97 882.05,-980.62 882.05,-970 882.05,-961.46 871.83,-956.97 858.66,-956.53"/>
<polygon fill="black" stroke="black" points="858.51,-953.04 848.66,-956.94 858.79,-960.03 858.51,-953.04"/>
</g>
<!-- bsr2bsmt -->
<g id="node47" class="node">
<title>bsr2bsmt</title>
<ellipse fill="#8dd3c7" stroke="#8dd3c7" cx="1122" cy="-610" rx="43.59" ry="18"/>
<text text-anchor="middle" x="1122" y="-606.3" font-family="Times,serif" font-size="14.00">bsr2bsmt</text>
</g>
<!-- bsr2bsmt&#45;&gt;bsr2bsmt -->
<g id="edge7" class="edge">
<title>bsr2bsmt&#45;&gt;bsr2bsmt</title>
<path fill="none" stroke="black" d="M1152.4,-622.94C1168.7,-625.14 1183.55,-620.83 1183.55,-610 1183.55,-601.46 1174.3,-596.97 1162.39,-596.53"/>
<polygon fill="black" stroke="black" points="1162.2,-593.04 1152.4,-597.06 1162.57,-600.03 1162.2,-593.04"/>
</g>
<!-- bsmtOfClauses&#45;&gt;expandTrace -->
<g id="edge6" class="edge">
<title>bsmtOfClauses&#45;&gt;expandTrace</title>
<path fill="none" stroke="black" d="M1059,-663.95C1059,-637.29 1059,-584.11 1059,-539 1059,-539 1059,-539 1059,-249 1059,-209.2 1067.79,-195.09 1049,-160 1042.28,-147.45 1031.25,-136.64 1020.28,-128.12"/>
<polygon fill="black" stroke="black" points="1022.12,-125.13 1011.98,-122.06 1017.99,-130.78 1022.12,-125.13"/>
</g>
<!-- bsmtOfClauses&#45;&gt;expandClauses -->
<g id="edge5" class="edge">
<title>bsmtOfClauses&#45;&gt;expandClauses</title>
<path fill="none" stroke="black" d="M1039.52,-664.76C1028.39,-655.49 1014.26,-643.71 1002.06,-633.55"/>
<polygon fill="black" stroke="black" points="1004.3,-630.86 994.38,-627.15 999.82,-636.24 1004.3,-630.86"/>
</g>
<!-- bsmtOfClauses&#45;&gt;bsr2bsmt -->
<g id="edge4" class="edge">
<title>bsmtOfClauses&#45;&gt;bsr2bsmt</title>
<path fill="none" stroke="black" d="M1073.93,-664.41C1081.85,-655.61 1091.73,-644.63 1100.47,-634.92"/>
<polygon fill="black" stroke="black" points="1103.09,-637.24 1107.18,-627.47 1097.89,-632.56 1103.09,-637.24"/>
</g>
<!-- biggestItem -->
<g id="node49" class="node">
<title>biggestItem</title>
<ellipse fill="#8dd3c7" stroke="#8dd3c7" cx="1373" cy="-898" rx="52.79" ry="18"/>
<text text-anchor="middle" x="1373" y="-894.3" font-family="Times,serif" font-size="14.00">biggestItem</text>
</g>
<!-- biggestItem&#45;&gt;itemsByRule -->
<g id="edge3" class="edge">
<title>biggestItem&#45;&gt;itemsByRule</title>
<path fill="none" stroke="black" d="M1344.26,-882.83C1322.8,-872.25 1293.24,-857.68 1269.69,-846.07"/>
<polygon fill="black" stroke="black" points="1271.19,-842.91 1260.67,-841.63 1268.09,-849.19 1271.19,-842.91"/>
</g>
<!-- attrType -->
<g id="node50" class="node">
<title>attrType</title>
<ellipse fill="#8dd3c7" stroke="#8dd3c7" cx="56" cy="-1042" rx="40.09" ry="18"/>
<text text-anchor="middle" x="56" y="-1038.3" font-family="Times,serif" font-size="14.00">attrType</text>
</g>
<!-- allCTkeys -->
<g id="node51" class="node">
<title>allCTkeys</title>
<ellipse fill="#8dd3c7" stroke="#8dd3c7" cx="1394" cy="-970" rx="46.59" ry="18"/>
<text text-anchor="middle" x="1394" y="-966.3" font-family="Times,serif" font-size="14.00">allCTkeys</text>
</g>
<!-- allCTkeys&#45;&gt;getCTkeys -->
<g id="edge2" class="edge">
<title>allCTkeys&#45;&gt;getCTkeys</title>
<path fill="none" stroke="black" d="M1420.59,-955C1440.76,-944.39 1468.69,-929.69 1490.88,-918.01"/>
<polygon fill="black" stroke="black" points="1492.78,-920.97 1500,-913.21 1489.52,-914.77 1492.78,-920.97"/>
</g>
<!-- allCTkeys&#45;&gt;allCTkeys -->
<g id="edge1" class="edge">
<title>allCTkeys&#45;&gt;allCTkeys</title>
<path fill="none" stroke="black" d="M1426.67,-983.03C1443.57,-985.03 1458.8,-980.69 1458.8,-970 1458.8,-961.57 1449.31,-957.08 1437.01,-956.55"/>
<polygon fill="black" stroke="black" points="1436.52,-953.07 1426.67,-956.97 1436.81,-960.06 1436.52,-953.07"/>
</g>
</g>
</svg>
