<?xml version="1.0" encoding="UTF-8" standalone="no"?>
<!DOCTYPE svg PUBLIC "-//W3C//DTD SVG 1.1//EN"
 "http://www.w3.org/Graphics/SVG/1.1/DTD/svg11.dtd">
<!-- Generated by graphviz version 2.43.0 (0)
 -->
<!-- Title: deps Pages: 1 -->
<svg width="1885pt" height="819pt"
 viewBox="0.00 0.00 1885.00 819.00" xmlns="http://www.w3.org/2000/svg" xmlns:xlink="http://www.w3.org/1999/xlink">
<g id="graph0" class="graph" transform="scale(1 1) rotate(0) translate(4 815)">
<title>deps</title>
<polygon fill="white" stroke="transparent" points="-4,4 -4,-815 1881,-815 1881,4 -4,4"/>
<g id="clust1" class="cluster">
<title>cluster_1</title>
<polygon fill="none" stroke="black" points="8,-8 8,-803 1869,-803 1869,-8 8,-8"/>
<text text-anchor="middle" x="938.5" y="-787.8" font-family="Times,serif" font-size="14.00">src/LS/Interpreter.hs</text>
</g>
<!-- unleaf -->
<g id="node1" class="node">
<title>unleaf</title>
<ellipse fill="#8dd3c7" stroke="#8dd3c7" cx="741" cy="-250" rx="32.49" ry="18"/>
<text text-anchor="middle" x="741" y="-246.3" font-family="Times,serif" font-size="14.00">unleaf</text>
</g>
<!-- unleaf&#45;&gt;unleaf -->
<g id="edge58" class="edge">
<title>unleaf&#45;&gt;unleaf</title>
<path fill="none" stroke="black" d="M764.37,-262.66C778.35,-265.47 791.5,-261.25 791.5,-250 791.5,-241.56 784.1,-237.08 774.51,-236.55"/>
<polygon fill="black" stroke="black" points="774.07,-233.08 764.37,-237.34 774.62,-240.05 774.07,-233.08"/>
</g>
<!-- topsortedClasses -->
<g id="node2" class="node">
<title>topsortedClasses</title>
<ellipse fill="#8dd3c7" stroke="#8dd3c7" cx="1791" cy="-682" rx="69.59" ry="18"/>
<text text-anchor="middle" x="1791" y="-678.3" font-family="Times,serif" font-size="14.00">topsortedClasses</text>
</g>
<!-- getInheritances -->
<g id="node24" class="node">
<title>getInheritances</title>
<ellipse fill="#8dd3c7" stroke="#8dd3c7" cx="1483" cy="-610" rx="64.19" ry="18"/>
<text text-anchor="middle" x="1483" y="-606.3" font-family="Times,serif" font-size="14.00">getInheritances</text>
</g>
<!-- topsortedClasses&#45;&gt;getInheritances -->
<g id="edge57" class="edge">
<title>topsortedClasses&#45;&gt;getInheritances</title>
<path fill="none" stroke="black" d="M1740.09,-669.63C1692.48,-658.96 1619.39,-642.53 1556,-628 1551.05,-626.87 1545.92,-625.68 1540.77,-624.49"/>
<polygon fill="black" stroke="black" points="1541.43,-621.05 1530.9,-622.2 1539.85,-627.87 1541.43,-621.05"/>
</g>
<!-- getCTkeys -->
<g id="node25" class="node">
<title>getCTkeys</title>
<ellipse fill="#8dd3c7" stroke="#8dd3c7" cx="1671" cy="-538" rx="48.99" ry="18"/>
<text text-anchor="middle" x="1671" y="-534.3" font-family="Times,serif" font-size="14.00">getCTkeys</text>
</g>
<!-- topsortedClasses&#45;&gt;getCTkeys -->
<g id="edge56" class="edge">
<title>topsortedClasses&#45;&gt;getCTkeys</title>
<path fill="none" stroke="black" d="M1772.79,-664.36C1762.47,-654.39 1749.72,-641.14 1740,-628 1729.12,-613.28 1730.73,-606.83 1720,-592 1712.61,-581.79 1703.47,-571.43 1695.09,-562.6"/>
<polygon fill="black" stroke="black" points="1697.46,-560.02 1687.98,-555.29 1692.44,-564.9 1697.46,-560.02"/>
</g>
<!-- getAttrTypesIn -->
<g id="node26" class="node">
<title>getAttrTypesIn</title>
<ellipse fill="#8dd3c7" stroke="#8dd3c7" cx="1629" cy="-610" rx="63.89" ry="18"/>
<text text-anchor="middle" x="1629" y="-606.3" font-family="Times,serif" font-size="14.00">getAttrTypesIn</text>
</g>
<!-- topsortedClasses&#45;&gt;getAttrTypesIn -->
<g id="edge55" class="edge">
<title>topsortedClasses&#45;&gt;getAttrTypesIn</title>
<path fill="none" stroke="black" d="M1756.64,-666.15C1731.91,-655.47 1698.38,-640.98 1671.89,-629.53"/>
<polygon fill="black" stroke="black" points="1673.04,-626.22 1662.47,-625.46 1670.27,-632.64 1673.04,-626.22"/>
</g>
<!-- symbolTable -->
<g id="node3" class="node">
<title>symbolTable</title>
<ellipse fill="#8dd3c7" stroke="#8dd3c7" cx="1216" cy="-682" rx="56.59" ry="18"/>
<text text-anchor="middle" x="1216" y="-678.3" font-family="Times,serif" font-size="14.00">symbolTable</text>
</g>
<!-- ruleNameStr -->
<g id="node4" class="node">
<title>ruleNameStr</title>
<ellipse fill="#8dd3c7" stroke="#8dd3c7" cx="1805" cy="-754" rx="55.79" ry="18"/>
<text text-anchor="middle" x="1805" y="-750.3" font-family="Times,serif" font-size="14.00">ruleNameStr</text>
</g>
<!-- ruleLocalsOut -->
<g id="node5" class="node">
<title>ruleLocalsOut</title>
<ellipse fill="#8dd3c7" stroke="#8dd3c7" cx="1642" cy="-682" rx="61.19" ry="18"/>
<text text-anchor="middle" x="1642" y="-678.3" font-family="Times,serif" font-size="14.00">ruleLocalsOut</text>
</g>
<!-- ruleLocalsIn -->
<g id="node6" class="node">
<title>ruleLocalsIn</title>
<ellipse fill="#8dd3c7" stroke="#8dd3c7" cx="1508" cy="-682" rx="55.49" ry="18"/>
<text text-anchor="middle" x="1508" y="-678.3" font-family="Times,serif" font-size="14.00">ruleLocalsIn</text>
</g>
<!-- ruleLocals -->
<g id="node7" class="node">
<title>ruleLocals</title>
<ellipse fill="#8dd3c7" stroke="#8dd3c7" cx="1683" cy="-754" rx="48.19" ry="18"/>
<text text-anchor="middle" x="1683" y="-750.3" font-family="Times,serif" font-size="14.00">ruleLocals</text>
</g>
<!-- ruleLocals&#45;&gt;ruleLocalsOut -->
<g id="edge54" class="edge">
<title>ruleLocals&#45;&gt;ruleLocalsOut</title>
<path fill="none" stroke="black" d="M1673.08,-736.05C1668.24,-727.8 1662.33,-717.7 1656.96,-708.54"/>
<polygon fill="black" stroke="black" points="1659.91,-706.65 1651.83,-699.79 1653.87,-710.19 1659.91,-706.65"/>
</g>
<!-- ruleLocals&#45;&gt;ruleLocalsIn -->
<g id="edge53" class="edge">
<title>ruleLocals&#45;&gt;ruleLocalsIn</title>
<path fill="none" stroke="black" d="M1651.31,-740.32C1623.31,-729.12 1582.23,-712.69 1551.23,-700.29"/>
<polygon fill="black" stroke="black" points="1552.13,-696.88 1541.54,-696.42 1549.53,-703.38 1552.13,-696.88"/>
</g>
<!-- ruleDecisionGraph -->
<g id="node8" class="node">
<title>ruleDecisionGraph</title>
<ellipse fill="#8dd3c7" stroke="#8dd3c7" cx="823" cy="-538" rx="77.19" ry="18"/>
<text text-anchor="middle" x="823" y="-534.3" font-family="Times,serif" font-size="14.00">ruleDecisionGraph</text>
</g>
<!-- relPredRefsAll -->
<g id="node9" class="node">
<title>relPredRefsAll</title>
<ellipse fill="#8dd3c7" stroke="#8dd3c7" cx="1073" cy="-466" rx="63.89" ry="18"/>
<text text-anchor="middle" x="1073" y="-462.3" font-family="Times,serif" font-size="14.00">relPredRefsAll</text>
</g>
<!-- ruleDecisionGraph&#45;&gt;relPredRefsAll -->
<g id="edge52" class="edge">
<title>ruleDecisionGraph&#45;&gt;relPredRefsAll</title>
<path fill="none" stroke="black" d="M870.32,-523.75C912.83,-511.85 975.19,-494.39 1019.5,-481.98"/>
<polygon fill="black" stroke="black" points="1020.54,-485.32 1029.23,-479.26 1018.65,-478.58 1020.54,-485.32"/>
</g>
<!-- relPredRefs -->
<g id="node10" class="node">
<title>relPredRefs</title>
<ellipse fill="#8dd3c7" stroke="#8dd3c7" cx="1073" cy="-394" rx="51.99" ry="18"/>
<text text-anchor="middle" x="1073" y="-390.3" font-family="Times,serif" font-size="14.00">relPredRefs</text>
</g>
<!-- relPredRefsAll&#45;&gt;relPredRefs -->
<g id="edge51" class="edge">
<title>relPredRefsAll&#45;&gt;relPredRefs</title>
<path fill="none" stroke="black" d="M1073,-447.7C1073,-439.98 1073,-430.71 1073,-422.11"/>
<polygon fill="black" stroke="black" points="1076.5,-422.1 1073,-412.1 1069.5,-422.1 1076.5,-422.1"/>
</g>
<!-- qaHornsT -->
<g id="node11" class="node">
<title>qaHornsT</title>
<ellipse fill="#8dd3c7" stroke="#8dd3c7" cx="1457" cy="-754" rx="46.29" ry="18"/>
<text text-anchor="middle" x="1457" y="-750.3" font-family="Times,serif" font-size="14.00">qaHornsT</text>
</g>
<!-- qaHornsR -->
<g id="node12" class="node">
<title>qaHornsR</title>
<ellipse fill="#8dd3c7" stroke="#8dd3c7" cx="944" cy="-682" rx="46.29" ry="18"/>
<text text-anchor="middle" x="944" y="-678.3" font-family="Times,serif" font-size="14.00">qaHornsR</text>
</g>
<!-- qaHornsT&#45;&gt;qaHornsR -->
<g id="edge50" class="edge">
<title>qaHornsT&#45;&gt;qaHornsR</title>
<path fill="none" stroke="black" d="M1423.55,-741.43C1416.5,-739.34 1409.06,-737.39 1402,-736 1225.56,-701.26 1175.44,-734.74 999,-700 995.14,-699.24 991.16,-698.31 987.2,-697.28"/>
<polygon fill="black" stroke="black" points="988.03,-693.88 977.45,-694.57 986.15,-700.62 988.03,-693.88"/>
</g>
<!-- groupedByAOTree -->
<g id="node18" class="node">
<title>groupedByAOTree</title>
<ellipse fill="#8dd3c7" stroke="#8dd3c7" cx="685" cy="-610" rx="78.79" ry="18"/>
<text text-anchor="middle" x="685" y="-606.3" font-family="Times,serif" font-size="14.00">groupedByAOTree</text>
</g>
<!-- qaHornsR&#45;&gt;groupedByAOTree -->
<g id="edge49" class="edge">
<title>qaHornsR&#45;&gt;groupedByAOTree</title>
<path fill="none" stroke="black" d="M907.17,-671.05C864.61,-659.54 794.03,-640.47 743.85,-626.9"/>
<polygon fill="black" stroke="black" points="744.66,-623.5 734.1,-624.27 742.84,-630.26 744.66,-623.5"/>
</g>
<!-- exposedRoots -->
<g id="node30" class="node">
<title>exposedRoots</title>
<ellipse fill="#8dd3c7" stroke="#8dd3c7" cx="979" cy="-610" rx="59.59" ry="18"/>
<text text-anchor="middle" x="979" y="-606.3" font-family="Times,serif" font-size="14.00">exposedRoots</text>
</g>
<!-- qaHornsR&#45;&gt;exposedRoots -->
<g id="edge48" class="edge">
<title>qaHornsR&#45;&gt;exposedRoots</title>
<path fill="none" stroke="black" d="M952.47,-664.05C956.5,-656.01 961.4,-646.2 965.89,-637.23"/>
<polygon fill="black" stroke="black" points="969.02,-638.78 970.36,-628.28 962.76,-635.65 969.02,-638.78"/>
</g>
<!-- expandBSR -->
<g id="node43" class="node">
<title>expandBSR</title>
<ellipse fill="#8dd3c7" stroke="#8dd3c7" cx="1121" cy="-322" rx="52.79" ry="18"/>
<text text-anchor="middle" x="1121" y="-318.3" font-family="Times,serif" font-size="14.00">expandBSR</text>
</g>
<!-- qaHornsR&#45;&gt;expandBSR -->
<g id="edge47" class="edge">
<title>qaHornsR&#45;&gt;expandBSR</title>
<path fill="none" stroke="black" d="M976.81,-668.98C1041.66,-644.2 1180,-585.86 1180,-539 1180,-539 1180,-539 1180,-465 1180,-421.35 1155.93,-375.53 1138.54,-348.12"/>
<polygon fill="black" stroke="black" points="1141.34,-346.01 1132.94,-339.56 1135.48,-349.84 1141.34,-346.01"/>
</g>
<!-- onlyTheItems -->
<g id="node13" class="node">
<title>onlyTheItems</title>
<ellipse fill="#8dd3c7" stroke="#8dd3c7" cx="841" cy="-610" rx="59.59" ry="18"/>
<text text-anchor="middle" x="841" y="-606.3" font-family="Times,serif" font-size="14.00">onlyTheItems</text>
</g>
<!-- getAndOrTree -->
<g id="node27" class="node">
<title>getAndOrTree</title>
<ellipse fill="#8dd3c7" stroke="#8dd3c7" cx="648" cy="-538" rx="61.99" ry="18"/>
<text text-anchor="middle" x="648" y="-534.3" font-family="Times,serif" font-size="14.00">getAndOrTree</text>
</g>
<!-- onlyTheItems&#45;&gt;getAndOrTree -->
<g id="edge46" class="edge">
<title>onlyTheItems&#45;&gt;getAndOrTree</title>
<path fill="none" stroke="black" d="M804.24,-595.67C773.19,-584.4 728.52,-568.2 694.89,-556.01"/>
<polygon fill="black" stroke="black" points="695.87,-552.64 685.28,-552.52 693.48,-559.22 695.87,-552.64"/>
</g>
<!-- onlyItemNamed -->
<g id="node14" class="node">
<title>onlyItemNamed</title>
<ellipse fill="#8dd3c7" stroke="#8dd3c7" cx="707" cy="-682" rx="68.79" ry="18"/>
<text text-anchor="middle" x="707" y="-678.3" font-family="Times,serif" font-size="14.00">onlyItemNamed</text>
</g>
<!-- itemsByRule -->
<g id="node16" class="node">
<title>itemsByRule</title>
<ellipse fill="#8dd3c7" stroke="#8dd3c7" cx="531" cy="-610" rx="57.39" ry="18"/>
<text text-anchor="middle" x="531" y="-606.3" font-family="Times,serif" font-size="14.00">itemsByRule</text>
</g>
<!-- onlyItemNamed&#45;&gt;itemsByRule -->
<g id="edge45" class="edge">
<title>onlyItemNamed&#45;&gt;itemsByRule</title>
<path fill="none" stroke="black" d="M670.53,-666.5C642.67,-655.41 604.17,-640.1 574.66,-628.37"/>
<polygon fill="black" stroke="black" points="575.62,-624.98 565.03,-624.54 573.03,-631.48 575.62,-624.98"/>
</g>
<!-- l4interpret -->
<g id="node15" class="node">
<title>l4interpret</title>
<ellipse fill="#8dd3c7" stroke="#8dd3c7" cx="1569" cy="-754" rx="47.39" ry="18"/>
<text text-anchor="middle" x="1569" y="-750.3" font-family="Times,serif" font-size="14.00">l4interpret</text>
</g>
<!-- l4interpret&#45;&gt;symbolTable -->
<g id="edge44" class="edge">
<title>l4interpret&#45;&gt;symbolTable</title>
<path fill="none" stroke="black" d="M1533.92,-741.73C1526.72,-739.65 1519.15,-737.62 1512,-736 1411.08,-713.16 1383.33,-720.93 1282,-700 1277.25,-699.02 1272.33,-697.92 1267.42,-696.76"/>
<polygon fill="black" stroke="black" points="1267.95,-693.28 1257.4,-694.32 1266.29,-700.08 1267.95,-693.28"/>
</g>
<!-- classHierarchy -->
<g id="node48" class="node">
<title>classHierarchy</title>
<ellipse fill="#8dd3c7" stroke="#8dd3c7" cx="1354" cy="-682" rx="63.09" ry="18"/>
<text text-anchor="middle" x="1354" y="-678.3" font-family="Times,serif" font-size="14.00">classHierarchy</text>
</g>
<!-- l4interpret&#45;&gt;classHierarchy -->
<g id="edge43" class="edge">
<title>l4interpret&#45;&gt;classHierarchy</title>
<path fill="none" stroke="black" d="M1533.98,-741.6C1498.58,-730.07 1443.56,-712.16 1403.67,-699.17"/>
<polygon fill="black" stroke="black" points="1404.72,-695.83 1394.13,-696.07 1402.56,-702.49 1404.72,-695.83"/>
</g>
<!-- attrsAsMethods -->
<g id="node52" class="node">
<title>attrsAsMethods</title>
<ellipse fill="#8dd3c7" stroke="#8dd3c7" cx="1075" cy="-682" rx="66.89" ry="18"/>
<text text-anchor="middle" x="1075" y="-678.3" font-family="Times,serif" font-size="14.00">attrsAsMethods</text>
</g>
<!-- l4interpret&#45;&gt;attrsAsMethods -->
<g id="edge42" class="edge">
<title>l4interpret&#45;&gt;attrsAsMethods</title>
<path fill="none" stroke="black" d="M1534.6,-741.59C1527.21,-739.47 1519.4,-737.46 1512,-736 1353.37,-704.75 1309.59,-725.92 1150,-700 1144.48,-699.1 1138.76,-698.05 1133.05,-696.9"/>
<polygon fill="black" stroke="black" points="1133.34,-693.39 1122.84,-694.77 1131.91,-700.24 1133.34,-693.39"/>
</g>
<!-- itemsByRule&#45;&gt;getAndOrTree -->
<g id="edge41" class="edge">
<title>itemsByRule&#45;&gt;getAndOrTree</title>
<path fill="none" stroke="black" d="M556.39,-593.81C573.14,-583.79 595.29,-570.54 613.61,-559.57"/>
<polygon fill="black" stroke="black" points="615.47,-562.54 622.26,-554.4 611.88,-556.53 615.47,-562.54"/>
</g>
<!-- isRuleAlias -->
<g id="node17" class="node">
<title>isRuleAlias</title>
<ellipse fill="#8dd3c7" stroke="#8dd3c7" cx="1109" cy="-538" rx="51.99" ry="18"/>
<text text-anchor="middle" x="1109" y="-534.3" font-family="Times,serif" font-size="14.00">isRuleAlias</text>
</g>
<!-- groupedByAOTree&#45;&gt;getAndOrTree -->
<g id="edge40" class="edge">
<title>groupedByAOTree&#45;&gt;getAndOrTree</title>
<path fill="none" stroke="black" d="M676.04,-592.05C671.79,-584.01 666.61,-574.2 661.86,-565.23"/>
<polygon fill="black" stroke="black" points="664.9,-563.48 657.13,-556.28 658.71,-566.75 664.9,-563.48"/>
</g>
<!-- globalFacts -->
<g id="node19" class="node">
<title>globalFacts</title>
<ellipse fill="#8dd3c7" stroke="#8dd3c7" cx="1342" cy="-754" rx="51.19" ry="18"/>
<text text-anchor="middle" x="1342" y="-750.3" font-family="Times,serif" font-size="14.00">globalFacts</text>
</g>
<!-- getRuleByName -->
<g id="node20" class="node">
<title>getRuleByName</title>
<ellipse fill="#8dd3c7" stroke="#8dd3c7" cx="470" cy="-466" rx="69.59" ry="18"/>
<text text-anchor="middle" x="470" y="-462.3" font-family="Times,serif" font-size="14.00">getRuleByName</text>
</g>
<!-- getRuleByLabelName -->
<g id="node21" class="node">
<title>getRuleByLabelName</title>
<ellipse fill="#8dd3c7" stroke="#8dd3c7" cx="1183" cy="-754" rx="89.88" ry="18"/>
<text text-anchor="middle" x="1183" y="-750.3" font-family="Times,serif" font-size="14.00">getRuleByLabelName</text>
</g>
<!-- getRuleByLabel -->
<g id="node22" class="node">
<title>getRuleByLabel</title>
<ellipse fill="#8dd3c7" stroke="#8dd3c7" cx="1007" cy="-754" rx="68.49" ry="18"/>
<text text-anchor="middle" x="1007" y="-750.3" font-family="Times,serif" font-size="14.00">getRuleByLabel</text>
</g>
<!-- getMarkings -->
<g id="node23" class="node">
<title>getMarkings</title>
<ellipse fill="#8dd3c7" stroke="#8dd3c7" cx="865" cy="-754" rx="55.79" ry="18"/>
<text text-anchor="middle" x="865" y="-750.3" font-family="Times,serif" font-size="14.00">getMarkings</text>
</g>
<!-- getInheritances&#45;&gt;getCTkeys -->
<g id="edge39" class="edge">
<title>getInheritances&#45;&gt;getCTkeys</title>
<path fill="none" stroke="black" d="M1520.14,-595.17C1551.27,-583.58 1595.73,-567.03 1628.32,-554.89"/>
<polygon fill="black" stroke="black" points="1629.87,-558.05 1638.02,-551.28 1627.43,-551.49 1629.87,-558.05"/>
</g>
<!-- defaultToSuperClass -->
<g id="node46" class="node">
<title>defaultToSuperClass</title>
<ellipse fill="#8dd3c7" stroke="#8dd3c7" cx="1440" cy="-538" rx="83.69" ry="18"/>
<text text-anchor="middle" x="1440" y="-534.3" font-family="Times,serif" font-size="14.00">defaultToSuperClass</text>
</g>
<!-- getInheritances&#45;&gt;defaultToSuperClass -->
<g id="edge38" class="edge">
<title>getInheritances&#45;&gt;defaultToSuperClass</title>
<path fill="none" stroke="black" d="M1472.59,-592.05C1467.59,-583.92 1461.5,-574 1455.94,-564.94"/>
<polygon fill="black" stroke="black" points="1458.83,-562.96 1450.61,-556.28 1452.86,-566.63 1458.83,-562.96"/>
</g>
<!-- getAttrTypesIn&#45;&gt;getCTkeys -->
<g id="edge37" class="edge">
<title>getAttrTypesIn&#45;&gt;getCTkeys</title>
<path fill="none" stroke="black" d="M1639.17,-592.05C1644.12,-583.8 1650.18,-573.7 1655.68,-564.54"/>
<polygon fill="black" stroke="black" points="1658.78,-566.16 1660.93,-555.79 1652.78,-562.56 1658.78,-566.16"/>
</g>
<!-- getAttrTypesIn&#45;&gt;getAttrTypesIn -->
<g id="edge36" class="edge">
<title>getAttrTypesIn&#45;&gt;getAttrTypesIn</title>
<path fill="none" stroke="black" d="M1672.71,-623.23C1692.98,-624.68 1710.69,-620.27 1710.69,-610 1710.69,-601.5 1698.55,-597.01 1682.86,-596.54"/>
<polygon fill="black" stroke="black" points="1682.63,-593.05 1672.71,-596.77 1682.78,-600.04 1682.63,-593.05"/>
</g>
<!-- getAndOrTree&#45;&gt;getRuleByName -->
<g id="edge35" class="edge">
<title>getAndOrTree&#45;&gt;getRuleByName</title>
<path fill="none" stroke="black" d="M612.83,-523.17C585.13,-512.28 546.29,-497 516.1,-485.13"/>
<polygon fill="black" stroke="black" points="517.21,-481.81 506.62,-481.4 514.65,-488.32 517.21,-481.81"/>
</g>
<!-- getAndOrTree&#45;&gt;getAndOrTree -->
<g id="edge34" class="edge">
<title>getAndOrTree&#45;&gt;getAndOrTree</title>
<path fill="none" stroke="black" d="M690.26,-551.2C710.22,-552.74 727.74,-548.34 727.74,-538 727.74,-529.44 715.72,-524.95 700.25,-524.53"/>
<polygon fill="black" stroke="black" points="700.16,-521.03 690.26,-524.8 700.34,-528.03 700.16,-521.03"/>
</g>
<!-- extractRPMT2Text -->
<g id="node28" class="node">
<title>extractRPMT2Text</title>
<ellipse fill="#8dd3c7" stroke="#8dd3c7" cx="637" cy="-466" rx="79.09" ry="18"/>
<text text-anchor="middle" x="637" y="-462.3" font-family="Times,serif" font-size="14.00">extractRPMT2Text</text>
</g>
<!-- getAndOrTree&#45;&gt;extractRPMT2Text -->
<g id="edge33" class="edge">
<title>getAndOrTree&#45;&gt;extractRPMT2Text</title>
<path fill="none" stroke="black" d="M645.28,-519.7C644.07,-511.98 642.61,-502.71 641.26,-494.11"/>
<polygon fill="black" stroke="black" points="644.7,-493.44 639.69,-484.1 637.78,-494.53 644.7,-493.44"/>
</g>
<!-- expandTrace -->
<g id="node32" class="node">
<title>expandTrace</title>
<ellipse fill="#8dd3c7" stroke="#8dd3c7" cx="907" cy="-250" rx="55.79" ry="18"/>
<text text-anchor="middle" x="907" y="-246.3" font-family="Times,serif" font-size="14.00">expandTrace</text>
</g>
<!-- getAndOrTree&#45;&gt;expandTrace -->
<g id="edge32" class="edge">
<title>getAndOrTree&#45;&gt;expandTrace</title>
<path fill="none" stroke="black" d="M697.79,-527.29C763.22,-514.35 871.87,-492.12 889,-484 935.6,-461.9 957.53,-458.42 980,-412 1003.29,-363.87 961.06,-306.67 931.71,-275.05"/>
<polygon fill="black" stroke="black" points="934.02,-272.39 924.58,-267.58 928.95,-277.23 934.02,-272.39"/>
</g>
<!-- expandClauses -->
<g id="node38" class="node">
<title>expandClauses</title>
<ellipse fill="#8dd3c7" stroke="#8dd3c7" cx="907" cy="-394" rx="63.89" ry="18"/>
<text text-anchor="middle" x="907" y="-390.3" font-family="Times,serif" font-size="14.00">expandClauses</text>
</g>
<!-- getAndOrTree&#45;&gt;expandClauses -->
<g id="edge31" class="edge">
<title>getAndOrTree&#45;&gt;expandClauses</title>
<path fill="none" stroke="black" d="M696.6,-526.76C760.72,-513.07 866.3,-489.86 873,-484 890.94,-468.31 899.46,-442.08 903.47,-422.15"/>
<polygon fill="black" stroke="black" points="906.95,-422.57 905.23,-412.12 900.06,-421.36 906.95,-422.57"/>
</g>
<!-- bsmtOfClauses -->
<g id="node51" class="node">
<title>bsmtOfClauses</title>
<ellipse fill="#8dd3c7" stroke="#8dd3c7" cx="799" cy="-466" rx="64.99" ry="18"/>
<text text-anchor="middle" x="799" y="-462.3" font-family="Times,serif" font-size="14.00">bsmtOfClauses</text>
</g>
<!-- getAndOrTree&#45;&gt;bsmtOfClauses -->
<g id="edge30" class="edge">
<title>getAndOrTree&#45;&gt;bsmtOfClauses</title>
<path fill="none" stroke="black" d="M679.65,-522.33C702.43,-511.77 733.35,-497.43 758.01,-486"/>
<polygon fill="black" stroke="black" points="759.53,-489.16 767.13,-481.78 756.58,-482.81 759.53,-489.16"/>
</g>
<!-- extractEnums -->
<g id="node29" class="node">
<title>extractEnums</title>
<ellipse fill="#8dd3c7" stroke="#8dd3c7" cx="731" cy="-754" rx="59.59" ry="18"/>
<text text-anchor="middle" x="731" y="-750.3" font-family="Times,serif" font-size="14.00">extractEnums</text>
</g>
<!-- exposedRoots&#45;&gt;ruleDecisionGraph -->
<g id="edge29" class="edge">
<title>exposedRoots&#45;&gt;ruleDecisionGraph</title>
<path fill="none" stroke="black" d="M947.05,-594.67C923.71,-584.19 891.8,-569.87 866.19,-558.38"/>
<polygon fill="black" stroke="black" points="867.62,-555.19 857.06,-554.29 864.76,-561.57 867.62,-555.19"/>
</g>
<!-- exposedRoots&#45;&gt;isRuleAlias -->
<g id="edge28" class="edge">
<title>exposedRoots&#45;&gt;isRuleAlias</title>
<path fill="none" stroke="black" d="M1006.89,-593.98C1026.25,-583.56 1052.23,-569.57 1073.14,-558.31"/>
<polygon fill="black" stroke="black" points="1074.9,-561.34 1082.05,-553.51 1071.58,-555.17 1074.9,-561.34"/>
</g>
<!-- decisionRoots -->
<g id="node47" class="node">
<title>decisionRoots</title>
<ellipse fill="#8dd3c7" stroke="#8dd3c7" cx="979" cy="-538" rx="60.39" ry="18"/>
<text text-anchor="middle" x="979" y="-534.3" font-family="Times,serif" font-size="14.00">decisionRoots</text>
</g>
<!-- exposedRoots&#45;&gt;decisionRoots -->
<g id="edge27" class="edge">
<title>exposedRoots&#45;&gt;decisionRoots</title>
<path fill="none" stroke="black" d="M979,-591.7C979,-583.98 979,-574.71 979,-566.11"/>
<polygon fill="black" stroke="black" points="982.5,-566.1 979,-556.1 975.5,-566.1 982.5,-566.1"/>
</g>
<!-- expandTraceDebugging -->
<g id="node31" class="node">
<title>expandTraceDebugging</title>
<ellipse fill="#8dd3c7" stroke="#8dd3c7" cx="907" cy="-178" rx="94.78" ry="18"/>
<text text-anchor="middle" x="907" y="-174.3" font-family="Times,serif" font-size="14.00">expandTraceDebugging</text>
</g>
<!-- expandTrace&#45;&gt;expandTraceDebugging -->
<g id="edge26" class="edge">
<title>expandTrace&#45;&gt;expandTraceDebugging</title>
<path fill="none" stroke="black" d="M907,-231.7C907,-223.98 907,-214.71 907,-206.11"/>
<polygon fill="black" stroke="black" points="910.5,-206.1 907,-196.1 903.5,-206.1 910.5,-206.1"/>
</g>
<!-- expandRulesByLabel -->
<g id="node33" class="node">
<title>expandRulesByLabel</title>
<ellipse fill="#8dd3c7" stroke="#8dd3c7" cx="567" cy="-754" rx="86.38" ry="18"/>
<text text-anchor="middle" x="567" y="-750.3" font-family="Times,serif" font-size="14.00">expandRulesByLabel</text>
</g>
<!-- expandRule -->
<g id="node34" class="node">
<title>expandRule</title>
<ellipse fill="#8dd3c7" stroke="#8dd3c7" cx="567" cy="-682" rx="52.79" ry="18"/>
<text text-anchor="middle" x="567" y="-678.3" font-family="Times,serif" font-size="14.00">expandRule</text>
</g>
<!-- expandRulesByLabel&#45;&gt;expandRule -->
<g id="edge25" class="edge">
<title>expandRulesByLabel&#45;&gt;expandRule</title>
<path fill="none" stroke="black" d="M561.08,-735.7C560.29,-727.98 560.06,-718.71 560.4,-710.11"/>
<polygon fill="black" stroke="black" points="563.9,-710.32 561.1,-700.1 556.92,-709.84 563.9,-710.32"/>
</g>
<!-- expandRule&#45;&gt;expandRulesByLabel -->
<g id="edge24" class="edge">
<title>expandRule&#45;&gt;expandRulesByLabel</title>
<path fill="none" stroke="black" d="M572.9,-700.1C573.7,-707.79 573.94,-717.05 573.6,-725.67"/>
<polygon fill="black" stroke="black" points="570.11,-725.48 572.92,-735.7 577.09,-725.96 570.11,-725.48"/>
</g>
<!-- expandRP -->
<g id="node35" class="node">
<title>expandRP</title>
<ellipse fill="#8dd3c7" stroke="#8dd3c7" cx="644" cy="-250" rx="46.59" ry="18"/>
<text text-anchor="middle" x="644" y="-246.3" font-family="Times,serif" font-size="14.00">expandRP</text>
</g>
<!-- expandMT -->
<g id="node36" class="node">
<title>expandMT</title>
<ellipse fill="#8dd3c7" stroke="#8dd3c7" cx="718" cy="-178" rx="50.09" ry="18"/>
<text text-anchor="middle" x="718" y="-174.3" font-family="Times,serif" font-size="14.00">expandMT</text>
</g>
<!-- expandRP&#45;&gt;expandMT -->
<g id="edge23" class="edge">
<title>expandRP&#45;&gt;expandMT</title>
<path fill="none" stroke="black" d="M660.79,-233.12C670.47,-223.96 682.8,-212.29 693.54,-202.13"/>
<polygon fill="black" stroke="black" points="696.16,-204.48 701.02,-195.06 691.35,-199.39 696.16,-204.48"/>
</g>
<!-- expandBSR\&#39; -->
<g id="node41" class="node">
<title>expandBSR\&#39;</title>
<ellipse fill="#8dd3c7" stroke="#8dd3c7" cx="683" cy="-34" rx="53.89" ry="18"/>
<text text-anchor="middle" x="683" y="-30.3" font-family="Times,serif" font-size="14.00">expandBSR&#39;</text>
</g>
<!-- expandRP&#45;&gt;expandBSR\&#39; -->
<g id="edge22" class="edge">
<title>expandRP&#45;&gt;expandBSR\&#39;</title>
<path fill="none" stroke="black" d="M637.3,-232.14C631.86,-202.37 630.3,-138.85 645,-88 647.85,-78.13 652.77,-68.05 658.26,-59.37"/>
<polygon fill="black" stroke="black" points="661.31,-61.11 664.12,-50.9 655.55,-57.13 661.31,-61.11"/>
</g>
<!-- expandClause -->
<g id="node39" class="node">
<title>expandClause</title>
<ellipse fill="#8dd3c7" stroke="#8dd3c7" cx="723" cy="-106" rx="59.59" ry="18"/>
<text text-anchor="middle" x="723" y="-102.3" font-family="Times,serif" font-size="14.00">expandClause</text>
</g>
<!-- expandMT&#45;&gt;expandClause -->
<g id="edge21" class="edge">
<title>expandMT&#45;&gt;expandClause</title>
<path fill="none" stroke="black" d="M719.24,-159.7C719.79,-151.98 720.45,-142.71 721.06,-134.11"/>
<polygon fill="black" stroke="black" points="724.56,-134.33 721.78,-124.1 717.57,-133.83 724.56,-134.33"/>
</g>
<!-- expandClauses\&#39; -->
<g id="node37" class="node">
<title>expandClauses\&#39;</title>
<ellipse fill="#8dd3c7" stroke="#8dd3c7" cx="644" cy="-322" rx="64.99" ry="18"/>
<text text-anchor="middle" x="644" y="-318.3" font-family="Times,serif" font-size="14.00">expandClauses&#39;</text>
</g>
<!-- expandClauses\&#39;&#45;&gt;unleaf -->
<g id="edge20" class="edge">
<title>expandClauses\&#39;&#45;&gt;unleaf</title>
<path fill="none" stroke="black" d="M666.5,-304.76C680.53,-294.64 698.69,-281.53 713.57,-270.79"/>
<polygon fill="black" stroke="black" points="715.83,-273.48 721.89,-264.79 711.74,-267.8 715.83,-273.48"/>
</g>
<!-- expandClauses\&#39;&#45;&gt;expandTrace -->
<g id="edge19" class="edge">
<title>expandClauses\&#39;&#45;&gt;expandTrace</title>
<path fill="none" stroke="black" d="M689.21,-308.97C735.42,-296.67 807.08,-277.6 855.46,-264.72"/>
<polygon fill="black" stroke="black" points="856.65,-268.02 865.41,-262.07 854.85,-261.26 856.65,-268.02"/>
</g>
<!-- expandClauses\&#39;&#45;&gt;expandRP -->
<g id="edge18" class="edge">
<title>expandClauses\&#39;&#45;&gt;expandRP</title>
<path fill="none" stroke="black" d="M644,-303.7C644,-295.98 644,-286.71 644,-278.11"/>
<polygon fill="black" stroke="black" points="647.5,-278.1 644,-268.1 640.5,-278.1 647.5,-278.1"/>
</g>
<!-- expandClauses&#45;&gt;expandTrace -->
<g id="edge17" class="edge">
<title>expandClauses&#45;&gt;expandTrace</title>
<path fill="none" stroke="black" d="M907,-375.87C907,-351.67 907,-307.21 907,-278.39"/>
<polygon fill="black" stroke="black" points="910.5,-278.19 907,-268.19 903.5,-278.19 910.5,-278.19"/>
</g>
<!-- expandClauses&#45;&gt;expandClauses\&#39; -->
<g id="edge16" class="edge">
<title>expandClauses&#45;&gt;expandClauses\&#39;</title>
<path fill="none" stroke="black" d="M862.39,-381.13C817.28,-369.12 747.48,-350.54 698.98,-337.63"/>
<polygon fill="black" stroke="black" points="699.84,-334.24 689.27,-335.05 698.04,-341 699.84,-334.24"/>
</g>
<!-- expandClause&#45;&gt;expandBSR\&#39; -->
<g id="edge15" class="edge">
<title>expandClause&#45;&gt;expandBSR\&#39;</title>
<path fill="none" stroke="black" d="M713.32,-88.05C708.6,-79.8 702.83,-69.7 697.59,-60.54"/>
<polygon fill="black" stroke="black" points="700.59,-58.73 692.59,-51.79 694.52,-62.21 700.59,-58.73"/>
</g>
<!-- expandBody -->
<g id="node40" class="node">
<title>expandBody</title>
<ellipse fill="#8dd3c7" stroke="#8dd3c7" cx="407" cy="-754" rx="55.49" ry="18"/>
<text text-anchor="middle" x="407" y="-750.3" font-family="Times,serif" font-size="14.00">expandBody</text>
</g>
<!-- expandBSR\&#39;&#45;&gt;expandRP -->
<g id="edge14" class="edge">
<title>expandBSR\&#39;&#45;&gt;expandRP</title>
<path fill="none" stroke="black" d="M678.93,-52.3C673.75,-62.27 666.67,-75.3 663,-88 649.87,-133.44 649.71,-189.01 648.54,-221.55"/>
<polygon fill="black" stroke="black" points="645.04,-221.51 648.08,-231.66 652.03,-221.83 645.04,-221.51"/>
</g>
<!-- expandBSR\&#39;&#45;&gt;expandBSR\&#39; -->
<g id="edge13" class="edge">
<title>expandBSR\&#39;&#45;&gt;expandBSR\&#39;</title>
<path fill="none" stroke="black" d="M720.02,-47.1C738.48,-48.91 754.95,-44.55 754.95,-34 754.95,-25.43 744.07,-20.94 730.1,-20.53"/>
<polygon fill="black" stroke="black" points="729.88,-17.04 720.02,-20.9 730.14,-24.03 729.88,-17.04"/>
</g>
<!-- expandBSRM -->
<g id="node42" class="node">
<title>expandBSRM</title>
<ellipse fill="#8dd3c7" stroke="#8dd3c7" cx="1260" cy="-394" rx="61.19" ry="18"/>
<text text-anchor="middle" x="1260" y="-390.3" font-family="Times,serif" font-size="14.00">expandBSRM</text>
</g>
<!-- expandBSRM&#45;&gt;expandBSR -->
<g id="edge12" class="edge">
<title>expandBSRM&#45;&gt;expandBSR</title>
<path fill="none" stroke="black" d="M1230.52,-378.15C1209.51,-367.57 1181.09,-353.26 1158.47,-341.87"/>
<polygon fill="black" stroke="black" points="1159.99,-338.72 1149.49,-337.35 1156.84,-344.97 1159.99,-338.72"/>
</g>
<!-- expandBSR&#45;&gt;expandTrace -->
<g id="edge11" class="edge">
<title>expandBSR&#45;&gt;expandTrace</title>
<path fill="none" stroke="black" d="M1084.21,-308.97C1048.3,-297.22 993.49,-279.29 954.34,-266.48"/>
<polygon fill="black" stroke="black" points="955.34,-263.13 944.75,-263.35 953.16,-269.78 955.34,-263.13"/>
</g>
<!-- expandBSR&#45;&gt;expandBSR\&#39; -->
<g id="edge10" class="edge">
<title>expandBSR&#45;&gt;expandBSR\&#39;</title>
<path fill="none" stroke="black" d="M1113.73,-304.15C1098.96,-271.79 1062.43,-200.56 1011,-160 928.68,-95.08 808.87,-60.96 739.14,-45.57"/>
<polygon fill="black" stroke="black" points="739.74,-42.12 729.22,-43.43 738.26,-48.96 739.74,-42.12"/>
</g>
<!-- entryPoints -->
<g id="node44" class="node">
<title>entryPoints</title>
<ellipse fill="#8dd3c7" stroke="#8dd3c7" cx="283" cy="-754" rx="50.89" ry="18"/>
<text text-anchor="middle" x="283" y="-750.3" font-family="Times,serif" font-size="14.00">entryPoints</text>
</g>
<!-- defaultToSuperType -->
<g id="node45" class="node">
<title>defaultToSuperType</title>
<ellipse fill="#8dd3c7" stroke="#8dd3c7" cx="1318" cy="-610" rx="82.59" ry="18"/>
<text text-anchor="middle" x="1318" y="-606.3" font-family="Times,serif" font-size="14.00">defaultToSuperType</text>
</g>
<!-- defaultToSuperType&#45;&gt;defaultToSuperClass -->
<g id="edge9" class="edge">
<title>defaultToSuperType&#45;&gt;defaultToSuperClass</title>
<path fill="none" stroke="black" d="M1345.99,-592.94C1363.04,-583.16 1385.01,-570.55 1403.42,-559.99"/>
<polygon fill="black" stroke="black" points="1405.21,-563 1412.14,-554.98 1401.73,-556.93 1405.21,-563"/>
</g>
<!-- classHierarchy&#45;&gt;defaultToSuperType -->
<g id="edge8" class="edge">
<title>classHierarchy&#45;&gt;defaultToSuperType</title>
<path fill="none" stroke="black" d="M1345.29,-664.05C1341.15,-656.01 1336.11,-646.2 1331.49,-637.23"/>
<polygon fill="black" stroke="black" points="1334.57,-635.57 1326.88,-628.28 1328.35,-638.77 1334.57,-635.57"/>
</g>
<!-- classHierarchy&#45;&gt;classHierarchy -->
<g id="edge7" class="edge">
<title>classHierarchy&#45;&gt;classHierarchy</title>
<path fill="none" stroke="black" d="M1396.94,-695.2C1417.23,-696.74 1435.04,-692.34 1435.04,-682 1435.04,-673.44 1422.83,-668.95 1407.11,-668.53"/>
<polygon fill="black" stroke="black" points="1406.85,-665.04 1396.94,-668.8 1407.03,-672.04 1406.85,-665.04"/>
</g>
<!-- classGraph -->
<g id="node49" class="node">
<title>classGraph</title>
<ellipse fill="#8dd3c7" stroke="#8dd3c7" cx="164" cy="-754" rx="50.09" ry="18"/>
<text text-anchor="middle" x="164" y="-750.3" font-family="Times,serif" font-size="14.00">classGraph</text>
</g>
<!-- bsr2bsmt -->
<g id="node50" class="node">
<title>bsr2bsmt</title>
<ellipse fill="#8dd3c7" stroke="#8dd3c7" cx="764" cy="-394" rx="43.59" ry="18"/>
<text text-anchor="middle" x="764" y="-390.3" font-family="Times,serif" font-size="14.00">bsr2bsmt</text>
</g>
<!-- bsr2bsmt&#45;&gt;bsr2bsmt -->
<g id="edge6" class="edge">
<title>bsr2bsmt&#45;&gt;bsr2bsmt</title>
<path fill="none" stroke="black" d="M794.4,-406.94C810.7,-409.14 825.55,-404.83 825.55,-394 825.55,-385.46 816.3,-380.97 804.39,-380.53"/>
<polygon fill="black" stroke="black" points="804.2,-377.04 794.4,-381.06 804.57,-384.03 804.2,-377.04"/>
</g>
<!-- bsmtOfClauses&#45;&gt;expandTrace -->
<g id="edge5" class="edge">
<title>bsmtOfClauses&#45;&gt;expandTrace</title>
<path fill="none" stroke="black" d="M759.34,-451.58C741.19,-443.23 721.44,-430.48 711,-412 703.13,-398.07 703.31,-390.03 711,-376 742.13,-319.22 811.23,-284.51 858.48,-266.51"/>
<polygon fill="black" stroke="black" points="859.74,-269.78 867.91,-263.03 857.32,-263.21 859.74,-269.78"/>
</g>
<!-- bsmtOfClauses&#45;&gt;expandClauses -->
<g id="edge4" class="edge">
<title>bsmtOfClauses&#45;&gt;expandClauses</title>
<path fill="none" stroke="black" d="M823.24,-449.29C838.24,-439.56 857.71,-426.95 874.1,-416.32"/>
<polygon fill="black" stroke="black" points="876.36,-419.03 882.84,-410.66 872.55,-413.16 876.36,-419.03"/>
</g>
<!-- bsmtOfClauses&#45;&gt;bsr2bsmt -->
<g id="edge3" class="edge">
<title>bsmtOfClauses&#45;&gt;bsr2bsmt</title>
<path fill="none" stroke="black" d="M790.53,-448.05C786.44,-439.89 781.46,-429.91 776.91,-420.82"/>
<polygon fill="black" stroke="black" points="780,-419.17 772.39,-411.79 773.74,-422.3 780,-419.17"/>
</g>
<!-- attrType -->
<g id="node53" class="node">
<title>attrType</title>
<ellipse fill="#8dd3c7" stroke="#8dd3c7" cx="56" cy="-754" rx="40.09" ry="18"/>
<text text-anchor="middle" x="56" y="-750.3" font-family="Times,serif" font-size="14.00">attrType</text>
</g>
<!-- allCTkeys -->
<g id="node54" class="node">
<title>allCTkeys</title>
<ellipse fill="#8dd3c7" stroke="#8dd3c7" cx="1796" cy="-610" rx="46.59" ry="18"/>
<text text-anchor="middle" x="1796" y="-606.3" font-family="Times,serif" font-size="14.00">allCTkeys</text>
</g>
<!-- allCTkeys&#45;&gt;getCTkeys -->
<g id="edge2" class="edge">
<title>allCTkeys&#45;&gt;getCTkeys</title>
<path fill="none" stroke="black" d="M1770.7,-594.83C1751.94,-584.32 1726.13,-569.87 1705.48,-558.31"/>
<polygon fill="black" stroke="black" points="1707.12,-555.22 1696.69,-553.38 1703.7,-561.32 1707.12,-555.22"/>
</g>
<!-- allCTkeys&#45;&gt;allCTkeys -->
<g id="edge1" class="edge">
<title>allCTkeys&#45;&gt;allCTkeys</title>
<path fill="none" stroke="black" d="M1828.67,-623.03C1845.57,-625.03 1860.8,-620.69 1860.8,-610 1860.8,-601.57 1851.31,-597.08 1839.01,-596.55"/>
<polygon fill="black" stroke="black" points="1838.52,-593.07 1828.67,-596.97 1838.81,-600.06 1838.52,-593.07"/>
</g>
</g>
</svg>
